solid CAD2
  facet normal 0.000000e+000 -1.000000e+000 0.000000e+000
    outer loop
      vertex 0.000000e+000 0.000000e+000 -5.000000e+000
      vertex -8.000000e+000 0.000000e+000 0.000000e+000
      vertex -8.000000e+000 0.000000e+000 -1.000000e+001
    endloop
  endfacet
  facet normal -1.000000e+000 0.000000e+000 0.000000e+000
    outer loop
      vertex -8.000000e+000 1.000000e+001 0.000000e+000
      vertex -8.000000e+000 0.000000e+000 -1.000000e+001
      vertex -8.000000e+000 0.000000e+000 0.000000e+000
    endloop
  endfacet
  facet normal 0.000000e+000 -1.000000e+000 0.000000e+000
    outer loop
      vertex 1.200000e+001 0.000000e+000 -1.000000e+001
      vertex 0.000000e+000 0.000000e+000 -5.000000e+000
      vertex -8.000000e+000 0.000000e+000 -1.000000e+001
    endloop
  endfacet
  facet normal 0.000000e+000 0.000000e+000 -1.000000e+000
    outer loop
      vertex 7.000000e+000 3.000000e+000 -1.000000e+001
      vertex 1.200000e+001 0.000000e+000 -1.000000e+001
      vertex -8.000000e+000 0.000000e+000 -1.000000e+001
    endloop
  endfacet
  facet normal -1.000000e+000 0.000000e+000 0.000000e+000
    outer loop
      vertex -8.000000e+000 1.000000e+001 0.000000e+000
      vertex -8.000000e+000 1.000000e+001 -1.000000e+001
      vertex -8.000000e+000 0.000000e+000 -1.000000e+001
    endloop
  endfacet
  facet normal 0.000000e+000 0.000000e+000 -1.000000e+000
    outer loop
      vertex 2.000000e+000 8.000000e+000 -1.000000e+001
      vertex -8.000000e+000 0.000000e+000 -1.000000e+001
      vertex -8.000000e+000 1.000000e+001 -1.000000e+001
    endloop
  endfacet
  facet normal 0.000000e+000 0.000000e+000 -1.000000e+000
    outer loop
      vertex 2.000000e+000 3.000000e+000 -1.000000e+001
      vertex -8.000000e+000 0.000000e+000 -1.000000e+001
      vertex 2.000000e+000 8.000000e+000 -1.000000e+001
    endloop
  endfacet
  facet normal 0.000000e+000 0.000000e+000 -1.000000e+000
    outer loop
      vertex 2.000000e+000 3.000000e+000 -1.000000e+001
      vertex 7.000000e+000 3.000000e+000 -1.000000e+001
      vertex -8.000000e+000 0.000000e+000 -1.000000e+001
    endloop
  endfacet
  facet normal 0.000000e+000 -1.000000e+000 0.000000e+000
    outer loop
      vertex 0.000000e+000 0.000000e+000 -5.000000e+000
      vertex 0.000000e+000 0.000000e+000 0.000000e+000
      vertex -8.000000e+000 0.000000e+000 0.000000e+000
    endloop
  endfacet
  facet normal 0.000000e+000 0.000000e+000 1.000000e+000
    outer loop
      vertex 0.000000e+000 1.000000e+001 0.000000e+000
      vertex -8.000000e+000 0.000000e+000 0.000000e+000
      vertex 0.000000e+000 0.000000e+000 0.000000e+000
    endloop
  endfacet
  facet normal 0.000000e+000 0.000000e+000 1.000000e+000
    outer loop
      vertex -8.000000e+000 1.000000e+001 0.000000e+000
      vertex -8.000000e+000 0.000000e+000 0.000000e+000
      vertex 0.000000e+000 1.000000e+001 0.000000e+000
    endloop
  endfacet
  facet normal 1.000000e+000 0.000000e+000 0.000000e+000
    outer loop
      vertex 0.000000e+000 1.000000e+001 -5.000000e+000
      vertex 0.000000e+000 0.000000e+000 0.000000e+000
      vertex 0.000000e+000 0.000000e+000 -5.000000e+000
    endloop
  endfacet
  facet normal 1.000000e+000 0.000000e+000 0.000000e+000
    outer loop
      vertex 0.000000e+000 1.000000e+001 0.000000e+000
      vertex 0.000000e+000 0.000000e+000 0.000000e+000
      vertex 0.000000e+000 1.000000e+001 -5.000000e+000
    endloop
  endfacet
  facet normal 0.000000e+000 -1.000000e+000 0.000000e+000
    outer loop
      vertex 1.200000e+001 0.000000e+000 -1.000000e+001
      vertex 8.000000e+000 0.000000e+000 -5.000000e+000
      vertex 0.000000e+000 0.000000e+000 -5.000000e+000
    endloop
  endfacet
  facet normal 0.000000e+000 0.000000e+000 1.000000e+000
    outer loop
      vertex 7.000000e+000 3.000000e+000 -5.000000e+000
      vertex 0.000000e+000 0.000000e+000 -5.000000e+000
      vertex 8.000000e+000 0.000000e+000 -5.000000e+000
    endloop
  endfacet
  facet normal 0.000000e+000 0.000000e+000 1.000000e+000
    outer loop
      vertex 2.000000e+000 8.000000e+000 -5.000000e+000
      vertex 0.000000e+000 1.000000e+001 -5.000000e+000
      vertex 0.000000e+000 0.000000e+000 -5.000000e+000
    endloop
  endfacet
  facet normal 0.000000e+000 0.000000e+000 1.000000e+000
    outer loop
      vertex 2.000000e+000 3.000000e+000 -5.000000e+000
      vertex 2.000000e+000 8.000000e+000 -5.000000e+000
      vertex 0.000000e+000 0.000000e+000 -5.000000e+000
    endloop
  endfacet
  facet normal 0.000000e+000 0.000000e+000 1.000000e+000
    outer loop
      vertex 7.000000e+000 3.000000e+000 -5.000000e+000
      vertex 2.000000e+000 3.000000e+000 -5.000000e+000
      vertex 0.000000e+000 0.000000e+000 -5.000000e+000
    endloop
  endfacet
  facet normal 0.000000e+000 -1.000000e+000 0.000000e+000
    outer loop
      vertex 1.200000e+001 0.000000e+000 -1.000000e+001
      vertex 8.000000e+000 0.000000e+000 0.000000e+000
      vertex 8.000000e+000 0.000000e+000 -5.000000e+000
    endloop
  endfacet
  facet normal -1.000000e+000 0.000000e+000 0.000000e+000
    outer loop
      vertex 8.000000e+000 1.000000e+001 0.000000e+000
      vertex 8.000000e+000 0.000000e+000 -5.000000e+000
      vertex 8.000000e+000 0.000000e+000 0.000000e+000
    endloop
  endfacet
  facet normal -1.000000e+000 0.000000e+000 0.000000e+000
    outer loop
      vertex 8.000000e+000 1.000000e+001 -5.000000e+000
      vertex 8.000000e+000 0.000000e+000 -5.000000e+000
      vertex 8.000000e+000 1.000000e+001 0.000000e+000
    endloop
  endfacet
  facet normal 0.000000e+000 0.000000e+000 1.000000e+000
    outer loop
      vertex 7.000000e+000 3.000000e+000 -5.000000e+000
      vertex 8.000000e+000 0.000000e+000 -5.000000e+000
      vertex 8.000000e+000 1.000000e+001 -5.000000e+000
    endloop
  endfacet
  facet normal 0.000000e+000 -1.000000e+000 0.000000e+000
    outer loop
      vertex 1.200000e+001 0.000000e+000 -1.000000e+001
      vertex 1.200000e+001 0.000000e+000 0.000000e+000
      vertex 8.000000e+000 0.000000e+000 0.000000e+000
    endloop
  endfacet
  facet normal 0.000000e+000 0.000000e+000 1.000000e+000
    outer loop
      vertex 1.200000e+001 1.000000e+001 0.000000e+000
      vertex 8.000000e+000 0.000000e+000 0.000000e+000
      vertex 1.200000e+001 0.000000e+000 0.000000e+000
    endloop
  endfacet
  facet normal 0.000000e+000 0.000000e+000 1.000000e+000
    outer loop
      vertex 8.000000e+000 1.000000e+001 0.000000e+000
      vertex 8.000000e+000 0.000000e+000 0.000000e+000
      vertex 1.200000e+001 1.000000e+001 0.000000e+000
    endloop
  endfacet
  facet normal 1.000000e+000 0.000000e+000 0.000000e+000
    outer loop
      vertex 1.200000e+001 1.000000e+001 -1.000000e+001
      vertex 1.200000e+001 0.000000e+000 0.000000e+000
      vertex 1.200000e+001 0.000000e+000 -1.000000e+001
    endloop
  endfacet
  facet normal 1.000000e+000 0.000000e+000 0.000000e+000
    outer loop
      vertex 1.200000e+001 1.000000e+001 0.000000e+000
      vertex 1.200000e+001 0.000000e+000 0.000000e+000
      vertex 1.200000e+001 1.000000e+001 -1.000000e+001
    endloop
  endfacet
  facet normal 0.000000e+000 0.000000e+000 -1.000000e+000
    outer loop
      vertex 7.000000e+000 3.000000e+000 -1.000000e+001
      vertex 1.200000e+001 1.000000e+001 -1.000000e+001
      vertex 1.200000e+001 0.000000e+000 -1.000000e+001
    endloop
  endfacet
  facet normal 0.000000e+000 1.000000e+000 0.000000e+000
    outer loop
      vertex 8.000000e+000 1.000000e+001 -5.000000e+000
      vertex 1.200000e+001 1.000000e+001 -1.000000e+001
      vertex -8.000000e+000 1.000000e+001 -1.000000e+001
    endloop
  endfacet
  facet normal 0.000000e+000 0.000000e+000 -1.000000e+000
    outer loop
      vertex 2.000000e+000 8.000000e+000 -1.000000e+001
      vertex -8.000000e+000 1.000000e+001 -1.000000e+001
      vertex 1.200000e+001 1.000000e+001 -1.000000e+001
    endloop
  endfacet
  facet normal 0.000000e+000 1.000000e+000 0.000000e+000
    outer loop
      vertex 0.000000e+000 1.000000e+001 -5.000000e+000
      vertex 8.000000e+000 1.000000e+001 -5.000000e+000
      vertex -8.000000e+000 1.000000e+001 -1.000000e+001
    endloop
  endfacet
  facet normal 0.000000e+000 1.000000e+000 0.000000e+000
    outer loop
      vertex 0.000000e+000 1.000000e+001 0.000000e+000
      vertex 0.000000e+000 1.000000e+001 -5.000000e+000
      vertex -8.000000e+000 1.000000e+001 -1.000000e+001
    endloop
  endfacet
  facet normal 0.000000e+000 1.000000e+000 0.000000e+000
    outer loop
      vertex -8.000000e+000 1.000000e+001 0.000000e+000
      vertex 0.000000e+000 1.000000e+001 0.000000e+000
      vertex -8.000000e+000 1.000000e+001 -1.000000e+001
    endloop
  endfacet
  facet normal 0.000000e+000 1.000000e+000 0.000000e+000
    outer loop
      vertex 8.000000e+000 1.000000e+001 -5.000000e+000
      vertex 1.200000e+001 1.000000e+001 0.000000e+000
      vertex 1.200000e+001 1.000000e+001 -1.000000e+001
    endloop
  endfacet
  facet normal 0.000000e+000 0.000000e+000 -1.000000e+000
    outer loop
      vertex 7.000000e+000 8.000000e+000 -1.000000e+001
      vertex 2.000000e+000 8.000000e+000 -1.000000e+001
      vertex 1.200000e+001 1.000000e+001 -1.000000e+001
    endloop
  endfacet
  facet normal 0.000000e+000 0.000000e+000 -1.000000e+000
    outer loop
      vertex 7.000000e+000 3.000000e+000 -1.000000e+001
      vertex 7.000000e+000 8.000000e+000 -1.000000e+001
      vertex 1.200000e+001 1.000000e+001 -1.000000e+001
    endloop
  endfacet
  facet normal 0.000000e+000 1.000000e+000 0.000000e+000
    outer loop
      vertex 8.000000e+000 1.000000e+001 -5.000000e+000
      vertex 8.000000e+000 1.000000e+001 0.000000e+000
      vertex 1.200000e+001 1.000000e+001 0.000000e+000
    endloop
  endfacet
  facet normal 0.000000e+000 0.000000e+000 1.000000e+000
    outer loop
      vertex 2.000000e+000 8.000000e+000 -5.000000e+000
      vertex 8.000000e+000 1.000000e+001 -5.000000e+000
      vertex 0.000000e+000 1.000000e+001 -5.000000e+000
    endloop
  endfacet
  facet normal 0.000000e+000 0.000000e+000 1.000000e+000
    outer loop
      vertex 7.000000e+000 8.000000e+000 -5.000000e+000
      vertex 8.000000e+000 1.000000e+001 -5.000000e+000
      vertex 2.000000e+000 8.000000e+000 -5.000000e+000
    endloop
  endfacet
  facet normal 0.000000e+000 0.000000e+000 1.000000e+000
    outer loop
      vertex 7.000000e+000 8.000000e+000 -5.000000e+000
      vertex 7.000000e+000 3.000000e+000 -5.000000e+000
      vertex 8.000000e+000 1.000000e+001 -5.000000e+000
    endloop
  endfacet
  facet normal 1.000000e+000 0.000000e+000 0.000000e+000
    outer loop
      vertex 2.000000e+000 3.000000e+000 -1.000000e+001
      vertex 2.000000e+000 8.000000e+000 -5.000000e+000
      vertex 2.000000e+000 3.000000e+000 -5.000000e+000
    endloop
  endfacet
  facet normal 0.000000e+000 -1.000000e+000 0.000000e+000
    outer loop
      vertex 2.000000e+000 8.000000e+000 -1.000000e+001
      vertex 7.000000e+000 8.000000e+000 -5.000000e+000
      vertex 2.000000e+000 8.000000e+000 -5.000000e+000
    endloop
  endfacet
  facet normal 1.000000e+000 0.000000e+000 0.000000e+000
    outer loop
      vertex 2.000000e+000 3.000000e+000 -1.000000e+001
      vertex 2.000000e+000 8.000000e+000 -1.000000e+001
      vertex 2.000000e+000 8.000000e+000 -5.000000e+000
    endloop
  endfacet
  facet normal 0.000000e+000 1.000000e+000 0.000000e+000
    outer loop
      vertex 7.000000e+000 3.000000e+000 -1.000000e+001
      vertex 2.000000e+000 3.000000e+000 -5.000000e+000
      vertex 7.000000e+000 3.000000e+000 -5.000000e+000
    endloop
  endfacet
  facet normal 0.000000e+000 1.000000e+000 0.000000e+000
    outer loop
      vertex 2.000000e+000 3.000000e+000 -1.000000e+001
      vertex 2.000000e+000 3.000000e+000 -5.000000e+000
      vertex 7.000000e+000 3.000000e+000 -1.000000e+001
    endloop
  endfacet
  facet normal -1.000000e+000 0.000000e+000 0.000000e+000
    outer loop
      vertex 7.000000e+000 8.000000e+000 -1.000000e+001
      vertex 7.000000e+000 3.000000e+000 -5.000000e+000
      vertex 7.000000e+000 8.000000e+000 -5.000000e+000
    endloop
  endfacet
  facet normal -1.000000e+000 0.000000e+000 0.000000e+000
    outer loop
      vertex 7.000000e+000 3.000000e+000 -1.000000e+001
      vertex 7.000000e+000 3.000000e+000 -5.000000e+000
      vertex 7.000000e+000 8.000000e+000 -1.000000e+001
    endloop
  endfacet
  facet normal 0.000000e+000 -1.000000e+000 0.000000e+000
    outer loop
      vertex 7.000000e+000 8.000000e+000 -1.000000e+001
      vertex 7.000000e+000 8.000000e+000 -5.000000e+000
      vertex 2.000000e+000 8.000000e+000 -1.000000e+001
    endloop
  endfacet
endsolid CAD2
