solid CAD5
  facet normal 0.000000e+000 0.000000e+000 1.000000e+000
    outer loop
      vertex -3.944256e+000 -1.343290e+001 0.000000e+000
      vertex -3.882926e+000 -1.448867e+001 0.000000e+000
      vertex 1.836910e-015 -1.500000e+001 0.000000e+000
    endloop
  endfacet
  facet normal -1.305598e-001 -9.914404e-001 5.149675e-033
    outer loop
      vertex 1.836910e-015 -1.500000e+001 -1.000000e+001
      vertex 1.836910e-015 -1.500000e+001 0.000000e+000
      vertex -3.882926e+000 -1.448867e+001 0.000000e+000
    endloop
  endfacet
  facet normal 0.000000e+000 0.000000e+000 1.000000e+000
    outer loop
      vertex 1.714449e-015 -1.400000e+001 0.000000e+000
      vertex 1.836910e-015 -1.500000e+001 0.000000e+000
      vertex 3.882926e+000 -1.448867e+001 0.000000e+000
    endloop
  endfacet
  facet normal 1.305598e-001 -9.914404e-001 0.000000e+000
    outer loop
      vertex 3.882926e+000 -1.448867e+001 -1.000000e+001
      vertex 3.882926e+000 -1.448867e+001 0.000000e+000
      vertex 1.836910e-015 -1.500000e+001 0.000000e+000
    endloop
  endfacet
  facet normal 0.000000e+000 0.000000e+000 1.000000e+000
    outer loop
      vertex -3.944256e+000 -1.343290e+001 0.000000e+000
      vertex 1.836910e-015 -1.500000e+001 0.000000e+000
      vertex 1.714449e-015 -1.400000e+001 0.000000e+000
    endloop
  endfacet
  facet normal 1.305598e-001 -9.914404e-001 0.000000e+000
    outer loop
      vertex 3.882926e+000 -1.448867e+001 -1.000000e+001
      vertex 1.836910e-015 -1.500000e+001 0.000000e+000
      vertex 1.836910e-015 -1.500000e+001 -1.000000e+001
    endloop
  endfacet
  facet normal 0.000000e+000 0.000000e+000 1.000000e+000
    outer loop
      vertex -3.944256e+000 -1.343290e+001 0.000000e+000
      vertex -7.500410e+000 -1.299001e+001 0.000000e+000
      vertex -3.882926e+000 -1.448867e+001 0.000000e+000
    endloop
  endfacet
  facet normal -3.827373e-001 -9.238572e-001 0.000000e+000
    outer loop
      vertex -3.882926e+000 -1.448867e+001 -1.000000e+001
      vertex -3.882926e+000 -1.448867e+001 0.000000e+000
      vertex -7.500410e+000 -1.299001e+001 0.000000e+000
    endloop
  endfacet
  facet normal -1.305598e-001 -9.914404e-001 0.000000e+000
    outer loop
      vertex -3.882926e+000 -1.448867e+001 -1.000000e+001
      vertex 1.836910e-015 -1.500000e+001 -1.000000e+001
      vertex -3.882926e+000 -1.448867e+001 0.000000e+000
    endloop
  endfacet
  facet normal 0.000000e+000 0.000000e+000 1.000000e+000
    outer loop
      vertex -1.058049e+001 -9.168050e+000 0.000000e+000
      vertex -1.060650e+001 -1.060650e+001 0.000000e+000
      vertex -7.500410e+000 -1.299001e+001 0.000000e+000
    endloop
  endfacet
  facet normal -6.087819e-001 -7.933377e-001 0.000000e+000
    outer loop
      vertex -7.500410e+000 -1.299001e+001 -1.000000e+001
      vertex -7.500410e+000 -1.299001e+001 0.000000e+000
      vertex -1.060650e+001 -1.060650e+001 0.000000e+000
    endloop
  endfacet
  facet normal 0.000000e+000 0.000000e+000 1.000000e+000
    outer loop
      vertex -7.568971e+000 -1.177755e+001 0.000000e+000
      vertex -1.058049e+001 -9.168050e+000 0.000000e+000
      vertex -7.500410e+000 -1.299001e+001 0.000000e+000
    endloop
  endfacet
  facet normal 0.000000e+000 0.000000e+000 1.000000e+000
    outer loop
      vertex -3.944256e+000 -1.343290e+001 0.000000e+000
      vertex -7.568971e+000 -1.177755e+001 0.000000e+000
      vertex -7.500410e+000 -1.299001e+001 0.000000e+000
    endloop
  endfacet
  facet normal -3.827373e-001 -9.238572e-001 0.000000e+000
    outer loop
      vertex -3.882926e+000 -1.448867e+001 -1.000000e+001
      vertex -7.500410e+000 -1.299001e+001 0.000000e+000
      vertex -7.500410e+000 -1.299001e+001 -1.000000e+001
    endloop
  endfacet
  facet normal 0.000000e+000 0.000000e+000 1.000000e+000
    outer loop
      vertex -1.273485e+001 -5.815810e+000 0.000000e+000
      vertex -1.299001e+001 -7.500410e+000 0.000000e+000
      vertex -1.060650e+001 -1.060650e+001 0.000000e+000
    endloop
  endfacet
  facet normal -7.933377e-001 -6.087819e-001 0.000000e+000
    outer loop
      vertex -1.060650e+001 -1.060650e+001 -1.000000e+001
      vertex -1.060650e+001 -1.060650e+001 0.000000e+000
      vertex -1.299001e+001 -7.500410e+000 0.000000e+000
    endloop
  endfacet
  facet normal 0.000000e+000 0.000000e+000 1.000000e+000
    outer loop
      vertex -1.058049e+001 -9.168050e+000 0.000000e+000
      vertex -1.273485e+001 -5.815810e+000 0.000000e+000
      vertex -1.060650e+001 -1.060650e+001 0.000000e+000
    endloop
  endfacet
  facet normal -6.087819e-001 -7.933377e-001 0.000000e+000
    outer loop
      vertex -7.500410e+000 -1.299001e+001 -1.000000e+001
      vertex -1.060650e+001 -1.060650e+001 0.000000e+000
      vertex -1.060650e+001 -1.060650e+001 -1.000000e+001
    endloop
  endfacet
  facet normal 0.000000e+000 0.000000e+000 1.000000e+000
    outer loop
      vertex -1.385750e+001 -1.992408e+000 0.000000e+000
      vertex -1.448867e+001 -3.882926e+000 0.000000e+000
      vertex -1.299001e+001 -7.500410e+000 0.000000e+000
    endloop
  endfacet
  facet normal -9.238572e-001 -3.827373e-001 0.000000e+000
    outer loop
      vertex -1.299001e+001 -7.500410e+000 -1.000000e+001
      vertex -1.299001e+001 -7.500410e+000 0.000000e+000
      vertex -1.448867e+001 -3.882926e+000 0.000000e+000
    endloop
  endfacet
  facet normal 0.000000e+000 0.000000e+000 1.000000e+000
    outer loop
      vertex -1.273485e+001 -5.815810e+000 0.000000e+000
      vertex -1.385750e+001 -1.992408e+000 0.000000e+000
      vertex -1.299001e+001 -7.500410e+000 0.000000e+000
    endloop
  endfacet
  facet normal -7.933377e-001 -6.087819e-001 0.000000e+000
    outer loop
      vertex -1.060650e+001 -1.060650e+001 -1.000000e+001
      vertex -1.299001e+001 -7.500410e+000 0.000000e+000
      vertex -1.299001e+001 -7.500410e+000 -1.000000e+001
    endloop
  endfacet
  facet normal 0.000000e+000 0.000000e+000 1.000000e+000
    outer loop
      vertex -1.448867e+001 3.882926e+000 0.000000e+000
      vertex -1.500000e+001 -9.184548e-016 0.000000e+000
      vertex -1.448867e+001 -3.882926e+000 0.000000e+000
    endloop
  endfacet
  facet normal -9.914404e-001 -1.305598e-001 0.000000e+000
    outer loop
      vertex -1.448867e+001 -3.882926e+000 -1.000000e+001
      vertex -1.448867e+001 -3.882926e+000 0.000000e+000
      vertex -1.500000e+001 -9.184548e-016 0.000000e+000
    endloop
  endfacet
  facet normal 0.000000e+000 0.000000e+000 1.000000e+000
    outer loop
      vertex -1.385750e+001 -1.992408e+000 0.000000e+000
      vertex -1.448867e+001 3.882926e+000 0.000000e+000
      vertex -1.448867e+001 -3.882926e+000 0.000000e+000
    endloop
  endfacet
  facet normal -9.238572e-001 -3.827373e-001 0.000000e+000
    outer loop
      vertex -1.299001e+001 -7.500410e+000 -1.000000e+001
      vertex -1.448867e+001 -3.882926e+000 0.000000e+000
      vertex -1.448867e+001 -3.882926e+000 -1.000000e+001
    endloop
  endfacet
  facet normal -9.914404e-001 1.305598e-001 0.000000e+000
    outer loop
      vertex -1.500000e+001 -9.184548e-016 -1.000000e+001
      vertex -1.500000e+001 -9.184548e-016 0.000000e+000
      vertex -1.448867e+001 3.882926e+000 0.000000e+000
    endloop
  endfacet
  facet normal -9.914404e-001 -1.305598e-001 0.000000e+000
    outer loop
      vertex -1.448867e+001 -3.882926e+000 -1.000000e+001
      vertex -1.500000e+001 -9.184548e-016 0.000000e+000
      vertex -1.500000e+001 -9.184548e-016 -1.000000e+001
    endloop
  endfacet
  facet normal 0.000000e+000 0.000000e+000 1.000000e+000
    outer loop
      vertex -1.385750e+001 1.992408e+000 0.000000e+000
      vertex -1.299001e+001 7.500410e+000 0.000000e+000
      vertex -1.448867e+001 3.882926e+000 0.000000e+000
    endloop
  endfacet
  facet normal -9.238572e-001 3.827373e-001 0.000000e+000
    outer loop
      vertex -1.448867e+001 3.882926e+000 -1.000000e+001
      vertex -1.448867e+001 3.882926e+000 0.000000e+000
      vertex -1.299001e+001 7.500410e+000 0.000000e+000
    endloop
  endfacet
  facet normal 0.000000e+000 0.000000e+000 1.000000e+000
    outer loop
      vertex -1.385750e+001 -1.992408e+000 0.000000e+000
      vertex -1.385750e+001 1.992408e+000 0.000000e+000
      vertex -1.448867e+001 3.882926e+000 0.000000e+000
    endloop
  endfacet
  facet normal -9.914404e-001 1.305598e-001 0.000000e+000
    outer loop
      vertex -1.500000e+001 -9.184548e-016 -1.000000e+001
      vertex -1.448867e+001 3.882926e+000 0.000000e+000
      vertex -1.448867e+001 3.882926e+000 -1.000000e+001
    endloop
  endfacet
  facet normal 0.000000e+000 0.000000e+000 1.000000e+000
    outer loop
      vertex -1.273485e+001 5.815810e+000 0.000000e+000
      vertex -1.060650e+001 1.060650e+001 0.000000e+000
      vertex -1.299001e+001 7.500410e+000 0.000000e+000
    endloop
  endfacet
  facet normal -7.933377e-001 6.087819e-001 0.000000e+000
    outer loop
      vertex -1.299001e+001 7.500410e+000 -1.000000e+001
      vertex -1.299001e+001 7.500410e+000 0.000000e+000
      vertex -1.060650e+001 1.060650e+001 0.000000e+000
    endloop
  endfacet
  facet normal 0.000000e+000 0.000000e+000 1.000000e+000
    outer loop
      vertex -1.385750e+001 1.992408e+000 0.000000e+000
      vertex -1.273485e+001 5.815810e+000 0.000000e+000
      vertex -1.299001e+001 7.500410e+000 0.000000e+000
    endloop
  endfacet
  facet normal -9.238572e-001 3.827373e-001 0.000000e+000
    outer loop
      vertex -1.448867e+001 3.882926e+000 -1.000000e+001
      vertex -1.299001e+001 7.500410e+000 0.000000e+000
      vertex -1.299001e+001 7.500410e+000 -1.000000e+001
    endloop
  endfacet
  facet normal 0.000000e+000 0.000000e+000 1.000000e+000
    outer loop
      vertex -7.568971e+000 1.177755e+001 0.000000e+000
      vertex -7.500410e+000 1.299001e+001 0.000000e+000
      vertex -1.060650e+001 1.060650e+001 0.000000e+000
    endloop
  endfacet
  facet normal -6.087819e-001 7.933377e-001 0.000000e+000
    outer loop
      vertex -1.060650e+001 1.060650e+001 -1.000000e+001
      vertex -1.060650e+001 1.060650e+001 0.000000e+000
      vertex -7.500410e+000 1.299001e+001 0.000000e+000
    endloop
  endfacet
  facet normal 0.000000e+000 0.000000e+000 1.000000e+000
    outer loop
      vertex -1.058049e+001 9.168050e+000 0.000000e+000
      vertex -7.568971e+000 1.177755e+001 0.000000e+000
      vertex -1.060650e+001 1.060650e+001 0.000000e+000
    endloop
  endfacet
  facet normal 0.000000e+000 0.000000e+000 1.000000e+000
    outer loop
      vertex -1.273485e+001 5.815810e+000 0.000000e+000
      vertex -1.058049e+001 9.168050e+000 0.000000e+000
      vertex -1.060650e+001 1.060650e+001 0.000000e+000
    endloop
  endfacet
  facet normal -7.933377e-001 6.087819e-001 0.000000e+000
    outer loop
      vertex -1.299001e+001 7.500410e+000 -1.000000e+001
      vertex -1.060650e+001 1.060650e+001 0.000000e+000
      vertex -1.060650e+001 1.060650e+001 -1.000000e+001
    endloop
  endfacet
  facet normal 0.000000e+000 0.000000e+000 1.000000e+000
    outer loop
      vertex -3.944256e+000 1.343290e+001 0.000000e+000
      vertex -3.882926e+000 1.448867e+001 0.000000e+000
      vertex -7.500410e+000 1.299001e+001 0.000000e+000
    endloop
  endfacet
  facet normal -3.827373e-001 9.238572e-001 0.000000e+000
    outer loop
      vertex -7.500410e+000 1.299001e+001 -1.000000e+001
      vertex -7.500410e+000 1.299001e+001 0.000000e+000
      vertex -3.882926e+000 1.448867e+001 0.000000e+000
    endloop
  endfacet
  facet normal 0.000000e+000 0.000000e+000 1.000000e+000
    outer loop
      vertex -7.568971e+000 1.177755e+001 0.000000e+000
      vertex -3.944256e+000 1.343290e+001 0.000000e+000
      vertex -7.500410e+000 1.299001e+001 0.000000e+000
    endloop
  endfacet
  facet normal -6.087819e-001 7.933377e-001 0.000000e+000
    outer loop
      vertex -1.060650e+001 1.060650e+001 -1.000000e+001
      vertex -7.500410e+000 1.299001e+001 0.000000e+000
      vertex -7.500410e+000 1.299001e+001 -1.000000e+001
    endloop
  endfacet
  facet normal 0.000000e+000 0.000000e+000 1.000000e+000
    outer loop
      vertex -1.714449e-015 1.400000e+001 0.000000e+000
      vertex -1.836910e-015 1.500000e+001 0.000000e+000
      vertex -3.882926e+000 1.448867e+001 0.000000e+000
    endloop
  endfacet
  facet normal -1.305598e-001 9.914404e-001 0.000000e+000
    outer loop
      vertex -3.882926e+000 1.448867e+001 -1.000000e+001
      vertex -3.882926e+000 1.448867e+001 0.000000e+000
      vertex -1.836910e-015 1.500000e+001 0.000000e+000
    endloop
  endfacet
  facet normal 0.000000e+000 0.000000e+000 1.000000e+000
    outer loop
      vertex -3.944256e+000 1.343290e+001 0.000000e+000
      vertex -1.714449e-015 1.400000e+001 0.000000e+000
      vertex -3.882926e+000 1.448867e+001 0.000000e+000
    endloop
  endfacet
  facet normal -3.827373e-001 9.238572e-001 0.000000e+000
    outer loop
      vertex -7.500410e+000 1.299001e+001 -1.000000e+001
      vertex -3.882926e+000 1.448867e+001 0.000000e+000
      vertex -3.882926e+000 1.448867e+001 -1.000000e+001
    endloop
  endfacet
  facet normal 0.000000e+000 0.000000e+000 1.000000e+000
    outer loop
      vertex 3.944256e+000 1.343290e+001 0.000000e+000
      vertex 3.882926e+000 1.448867e+001 0.000000e+000
      vertex -1.836910e-015 1.500000e+001 0.000000e+000
    endloop
  endfacet
  facet normal 1.305598e-001 9.914404e-001 0.000000e+000
    outer loop
      vertex -1.836910e-015 1.500000e+001 -1.000000e+001
      vertex -1.836910e-015 1.500000e+001 0.000000e+000
      vertex 3.882926e+000 1.448867e+001 0.000000e+000
    endloop
  endfacet
  facet normal 0.000000e+000 0.000000e+000 1.000000e+000
    outer loop
      vertex -1.714449e-015 1.400000e+001 0.000000e+000
      vertex 3.944256e+000 1.343290e+001 0.000000e+000
      vertex -1.836910e-015 1.500000e+001 0.000000e+000
    endloop
  endfacet
  facet normal -1.305598e-001 9.914404e-001 0.000000e+000
    outer loop
      vertex -3.882926e+000 1.448867e+001 -1.000000e+001
      vertex -1.836910e-015 1.500000e+001 0.000000e+000
      vertex -1.836910e-015 1.500000e+001 -1.000000e+001
    endloop
  endfacet
  facet normal 0.000000e+000 0.000000e+000 1.000000e+000
    outer loop
      vertex 3.944256e+000 1.343290e+001 0.000000e+000
      vertex 7.500410e+000 1.299001e+001 0.000000e+000
      vertex 3.882926e+000 1.448867e+001 0.000000e+000
    endloop
  endfacet
  facet normal 3.827373e-001 9.238572e-001 0.000000e+000
    outer loop
      vertex 3.882926e+000 1.448867e+001 -1.000000e+001
      vertex 3.882926e+000 1.448867e+001 0.000000e+000
      vertex 7.500410e+000 1.299001e+001 0.000000e+000
    endloop
  endfacet
  facet normal 1.305598e-001 9.914404e-001 0.000000e+000
    outer loop
      vertex -1.836910e-015 1.500000e+001 -1.000000e+001
      vertex 3.882926e+000 1.448867e+001 0.000000e+000
      vertex 3.882926e+000 1.448867e+001 -1.000000e+001
    endloop
  endfacet
  facet normal 0.000000e+000 0.000000e+000 1.000000e+000
    outer loop
      vertex 1.058049e+001 9.168050e+000 0.000000e+000
      vertex 1.060650e+001 1.060650e+001 0.000000e+000
      vertex 7.500410e+000 1.299001e+001 0.000000e+000
    endloop
  endfacet
  facet normal 6.087819e-001 7.933377e-001 0.000000e+000
    outer loop
      vertex 7.500410e+000 1.299001e+001 -1.000000e+001
      vertex 7.500410e+000 1.299001e+001 0.000000e+000
      vertex 1.060650e+001 1.060650e+001 0.000000e+000
    endloop
  endfacet
  facet normal 0.000000e+000 0.000000e+000 1.000000e+000
    outer loop
      vertex 7.568971e+000 1.177755e+001 0.000000e+000
      vertex 1.058049e+001 9.168050e+000 0.000000e+000
      vertex 7.500410e+000 1.299001e+001 0.000000e+000
    endloop
  endfacet
  facet normal 0.000000e+000 0.000000e+000 1.000000e+000
    outer loop
      vertex 3.944256e+000 1.343290e+001 0.000000e+000
      vertex 7.568971e+000 1.177755e+001 0.000000e+000
      vertex 7.500410e+000 1.299001e+001 0.000000e+000
    endloop
  endfacet
  facet normal 3.827373e-001 9.238572e-001 0.000000e+000
    outer loop
      vertex 3.882926e+000 1.448867e+001 -1.000000e+001
      vertex 7.500410e+000 1.299001e+001 0.000000e+000
      vertex 7.500410e+000 1.299001e+001 -1.000000e+001
    endloop
  endfacet
  facet normal 0.000000e+000 0.000000e+000 1.000000e+000
    outer loop
      vertex 1.273485e+001 5.815810e+000 0.000000e+000
      vertex 1.299001e+001 7.500410e+000 0.000000e+000
      vertex 1.060650e+001 1.060650e+001 0.000000e+000
    endloop
  endfacet
  facet normal 7.933377e-001 6.087819e-001 0.000000e+000
    outer loop
      vertex 1.060650e+001 1.060650e+001 -1.000000e+001
      vertex 1.060650e+001 1.060650e+001 0.000000e+000
      vertex 1.299001e+001 7.500410e+000 0.000000e+000
    endloop
  endfacet
  facet normal 0.000000e+000 0.000000e+000 1.000000e+000
    outer loop
      vertex 1.058049e+001 9.168050e+000 0.000000e+000
      vertex 1.273485e+001 5.815810e+000 0.000000e+000
      vertex 1.060650e+001 1.060650e+001 0.000000e+000
    endloop
  endfacet
  facet normal 6.087819e-001 7.933377e-001 0.000000e+000
    outer loop
      vertex 7.500410e+000 1.299001e+001 -1.000000e+001
      vertex 1.060650e+001 1.060650e+001 0.000000e+000
      vertex 1.060650e+001 1.060650e+001 -1.000000e+001
    endloop
  endfacet
  facet normal 0.000000e+000 0.000000e+000 1.000000e+000
    outer loop
      vertex 1.385750e+001 1.992408e+000 0.000000e+000
      vertex 1.448867e+001 3.882926e+000 0.000000e+000
      vertex 1.299001e+001 7.500410e+000 0.000000e+000
    endloop
  endfacet
  facet normal 9.238572e-001 3.827373e-001 0.000000e+000
    outer loop
      vertex 1.299001e+001 7.500410e+000 -1.000000e+001
      vertex 1.299001e+001 7.500410e+000 0.000000e+000
      vertex 1.448867e+001 3.882926e+000 0.000000e+000
    endloop
  endfacet
  facet normal 0.000000e+000 0.000000e+000 1.000000e+000
    outer loop
      vertex 1.273485e+001 5.815810e+000 0.000000e+000
      vertex 1.385750e+001 1.992408e+000 0.000000e+000
      vertex 1.299001e+001 7.500410e+000 0.000000e+000
    endloop
  endfacet
  facet normal 7.933377e-001 6.087819e-001 0.000000e+000
    outer loop
      vertex 1.060650e+001 1.060650e+001 -1.000000e+001
      vertex 1.299001e+001 7.500410e+000 0.000000e+000
      vertex 1.299001e+001 7.500410e+000 -1.000000e+001
    endloop
  endfacet
  facet normal 0.000000e+000 0.000000e+000 1.000000e+000
    outer loop
      vertex 1.448867e+001 -3.882926e+000 0.000000e+000
      vertex 1.500000e+001 2.755364e-015 0.000000e+000
      vertex 1.448867e+001 3.882926e+000 0.000000e+000
    endloop
  endfacet
  facet normal 9.914404e-001 1.305598e-001 0.000000e+000
    outer loop
      vertex 1.448867e+001 3.882926e+000 -1.000000e+001
      vertex 1.448867e+001 3.882926e+000 0.000000e+000
      vertex 1.500000e+001 2.755364e-015 0.000000e+000
    endloop
  endfacet
  facet normal 0.000000e+000 0.000000e+000 1.000000e+000
    outer loop
      vertex 1.385750e+001 1.992408e+000 0.000000e+000
      vertex 1.448867e+001 -3.882926e+000 0.000000e+000
      vertex 1.448867e+001 3.882926e+000 0.000000e+000
    endloop
  endfacet
  facet normal 9.238572e-001 3.827373e-001 0.000000e+000
    outer loop
      vertex 1.299001e+001 7.500410e+000 -1.000000e+001
      vertex 1.448867e+001 3.882926e+000 0.000000e+000
      vertex 1.448867e+001 3.882926e+000 -1.000000e+001
    endloop
  endfacet
  facet normal 9.914404e-001 -1.305598e-001 0.000000e+000
    outer loop
      vertex 1.500000e+001 2.755364e-015 -1.000000e+001
      vertex 1.500000e+001 2.755364e-015 0.000000e+000
      vertex 1.448867e+001 -3.882926e+000 0.000000e+000
    endloop
  endfacet
  facet normal 9.914404e-001 1.305598e-001 0.000000e+000
    outer loop
      vertex 1.448867e+001 3.882926e+000 -1.000000e+001
      vertex 1.500000e+001 2.755364e-015 0.000000e+000
      vertex 1.500000e+001 2.755364e-015 -1.000000e+001
    endloop
  endfacet
  facet normal 0.000000e+000 0.000000e+000 1.000000e+000
    outer loop
      vertex 1.385750e+001 -1.992408e+000 0.000000e+000
      vertex 1.299001e+001 -7.500410e+000 0.000000e+000
      vertex 1.448867e+001 -3.882926e+000 0.000000e+000
    endloop
  endfacet
  facet normal 9.238572e-001 -3.827373e-001 0.000000e+000
    outer loop
      vertex 1.448867e+001 -3.882926e+000 -1.000000e+001
      vertex 1.448867e+001 -3.882926e+000 0.000000e+000
      vertex 1.299001e+001 -7.500410e+000 0.000000e+000
    endloop
  endfacet
  facet normal 0.000000e+000 0.000000e+000 1.000000e+000
    outer loop
      vertex 1.385750e+001 1.992408e+000 0.000000e+000
      vertex 1.385750e+001 -1.992408e+000 0.000000e+000
      vertex 1.448867e+001 -3.882926e+000 0.000000e+000
    endloop
  endfacet
  facet normal 9.914404e-001 -1.305598e-001 0.000000e+000
    outer loop
      vertex 1.500000e+001 2.755364e-015 -1.000000e+001
      vertex 1.448867e+001 -3.882926e+000 0.000000e+000
      vertex 1.448867e+001 -3.882926e+000 -1.000000e+001
    endloop
  endfacet
  facet normal 0.000000e+000 0.000000e+000 1.000000e+000
    outer loop
      vertex 1.273485e+001 -5.815810e+000 0.000000e+000
      vertex 1.060650e+001 -1.060650e+001 0.000000e+000
      vertex 1.299001e+001 -7.500410e+000 0.000000e+000
    endloop
  endfacet
  facet normal 7.933377e-001 -6.087819e-001 0.000000e+000
    outer loop
      vertex 1.299001e+001 -7.500410e+000 -1.000000e+001
      vertex 1.299001e+001 -7.500410e+000 0.000000e+000
      vertex 1.060650e+001 -1.060650e+001 0.000000e+000
    endloop
  endfacet
  facet normal 0.000000e+000 0.000000e+000 1.000000e+000
    outer loop
      vertex 1.385750e+001 -1.992408e+000 0.000000e+000
      vertex 1.273485e+001 -5.815810e+000 0.000000e+000
      vertex 1.299001e+001 -7.500410e+000 0.000000e+000
    endloop
  endfacet
  facet normal 9.238572e-001 -3.827373e-001 0.000000e+000
    outer loop
      vertex 1.448867e+001 -3.882926e+000 -1.000000e+001
      vertex 1.299001e+001 -7.500410e+000 0.000000e+000
      vertex 1.299001e+001 -7.500410e+000 -1.000000e+001
    endloop
  endfacet
  facet normal 0.000000e+000 0.000000e+000 1.000000e+000
    outer loop
      vertex 7.568971e+000 -1.177755e+001 0.000000e+000
      vertex 7.500410e+000 -1.299001e+001 0.000000e+000
      vertex 1.060650e+001 -1.060650e+001 0.000000e+000
    endloop
  endfacet
  facet normal 6.087819e-001 -7.933377e-001 0.000000e+000
    outer loop
      vertex 1.060650e+001 -1.060650e+001 -1.000000e+001
      vertex 1.060650e+001 -1.060650e+001 0.000000e+000
      vertex 7.500410e+000 -1.299001e+001 0.000000e+000
    endloop
  endfacet
  facet normal 0.000000e+000 0.000000e+000 1.000000e+000
    outer loop
      vertex 1.058049e+001 -9.168050e+000 0.000000e+000
      vertex 7.568971e+000 -1.177755e+001 0.000000e+000
      vertex 1.060650e+001 -1.060650e+001 0.000000e+000
    endloop
  endfacet
  facet normal 0.000000e+000 0.000000e+000 1.000000e+000
    outer loop
      vertex 1.273485e+001 -5.815810e+000 0.000000e+000
      vertex 1.058049e+001 -9.168050e+000 0.000000e+000
      vertex 1.060650e+001 -1.060650e+001 0.000000e+000
    endloop
  endfacet
  facet normal 7.933377e-001 -6.087819e-001 0.000000e+000
    outer loop
      vertex 1.299001e+001 -7.500410e+000 -1.000000e+001
      vertex 1.060650e+001 -1.060650e+001 0.000000e+000
      vertex 1.060650e+001 -1.060650e+001 -1.000000e+001
    endloop
  endfacet
  facet normal 0.000000e+000 0.000000e+000 1.000000e+000
    outer loop
      vertex 3.944256e+000 -1.343290e+001 0.000000e+000
      vertex 3.882926e+000 -1.448867e+001 0.000000e+000
      vertex 7.500410e+000 -1.299001e+001 0.000000e+000
    endloop
  endfacet
  facet normal 3.827373e-001 -9.238572e-001 0.000000e+000
    outer loop
      vertex 7.500410e+000 -1.299001e+001 -1.000000e+001
      vertex 7.500410e+000 -1.299001e+001 0.000000e+000
      vertex 3.882926e+000 -1.448867e+001 0.000000e+000
    endloop
  endfacet
  facet normal 0.000000e+000 0.000000e+000 1.000000e+000
    outer loop
      vertex 7.568971e+000 -1.177755e+001 0.000000e+000
      vertex 3.944256e+000 -1.343290e+001 0.000000e+000
      vertex 7.500410e+000 -1.299001e+001 0.000000e+000
    endloop
  endfacet
  facet normal 6.087819e-001 -7.933377e-001 0.000000e+000
    outer loop
      vertex 1.060650e+001 -1.060650e+001 -1.000000e+001
      vertex 7.500410e+000 -1.299001e+001 0.000000e+000
      vertex 7.500410e+000 -1.299001e+001 -1.000000e+001
    endloop
  endfacet
  facet normal 0.000000e+000 0.000000e+000 1.000000e+000
    outer loop
      vertex 3.944256e+000 -1.343290e+001 0.000000e+000
      vertex 1.714449e-015 -1.400000e+001 0.000000e+000
      vertex 3.882926e+000 -1.448867e+001 0.000000e+000
    endloop
  endfacet
  facet normal 3.827373e-001 -9.238572e-001 0.000000e+000
    outer loop
      vertex 7.500410e+000 -1.299001e+001 -1.000000e+001
      vertex 3.882926e+000 -1.448867e+001 0.000000e+000
      vertex 3.882926e+000 -1.448867e+001 -1.000000e+001
    endloop
  endfacet
  facet normal -1.423148e-001 9.898214e-001 8.419996e-033
    outer loop
      vertex 1.714449e-015 -1.400000e+001 -1.000000e+001
      vertex 1.714449e-015 -1.400000e+001 0.000000e+000
      vertex 3.944256e+000 -1.343290e+001 0.000000e+000
    endloop
  endfacet
  facet normal 1.423148e-001 9.898214e-001 0.000000e+000
    outer loop
      vertex -3.944256e+000 -1.343290e+001 -1.000000e+001
      vertex -3.944256e+000 -1.343290e+001 0.000000e+000
      vertex 1.714449e-015 -1.400000e+001 0.000000e+000
    endloop
  endfacet
  facet normal 1.423148e-001 9.898214e-001 0.000000e+000
    outer loop
      vertex -3.944256e+000 -1.343290e+001 -1.000000e+001
      vertex 1.714449e-015 -1.400000e+001 0.000000e+000
      vertex 1.714449e-015 -1.400000e+001 -1.000000e+001
    endloop
  endfacet
  facet normal -4.154150e-001 9.096320e-001 0.000000e+000
    outer loop
      vertex 3.944256e+000 -1.343290e+001 -1.000000e+001
      vertex 3.944256e+000 -1.343290e+001 0.000000e+000
      vertex 7.568971e+000 -1.177755e+001 0.000000e+000
    endloop
  endfacet
  facet normal -1.423148e-001 9.898214e-001 0.000000e+000
    outer loop
      vertex 3.944256e+000 -1.343290e+001 -1.000000e+001
      vertex 1.714449e-015 -1.400000e+001 -1.000000e+001
      vertex 3.944256e+000 -1.343290e+001 0.000000e+000
    endloop
  endfacet
  facet normal -6.548607e-001 7.557496e-001 0.000000e+000
    outer loop
      vertex 7.568971e+000 -1.177755e+001 -1.000000e+001
      vertex 7.568971e+000 -1.177755e+001 0.000000e+000
      vertex 1.058049e+001 -9.168050e+000 0.000000e+000
    endloop
  endfacet
  facet normal -4.154150e-001 9.096320e-001 0.000000e+000
    outer loop
      vertex 3.944256e+000 -1.343290e+001 -1.000000e+001
      vertex 7.568971e+000 -1.177755e+001 0.000000e+000
      vertex 7.568971e+000 -1.177755e+001 -1.000000e+001
    endloop
  endfacet
  facet normal -8.412535e-001 5.406408e-001 0.000000e+000
    outer loop
      vertex 1.058049e+001 -9.168050e+000 -1.000000e+001
      vertex 1.058049e+001 -9.168050e+000 0.000000e+000
      vertex 1.273485e+001 -5.815810e+000 0.000000e+000
    endloop
  endfacet
  facet normal -6.548607e-001 7.557496e-001 0.000000e+000
    outer loop
      vertex 7.568971e+000 -1.177755e+001 -1.000000e+001
      vertex 1.058049e+001 -9.168050e+000 0.000000e+000
      vertex 1.058049e+001 -9.168050e+000 -1.000000e+001
    endloop
  endfacet
  facet normal -9.594930e-001 2.817326e-001 0.000000e+000
    outer loop
      vertex 1.273485e+001 -5.815810e+000 -1.000000e+001
      vertex 1.273485e+001 -5.815810e+000 0.000000e+000
      vertex 1.385750e+001 -1.992408e+000 0.000000e+000
    endloop
  endfacet
  facet normal -8.412535e-001 5.406408e-001 0.000000e+000
    outer loop
      vertex 1.058049e+001 -9.168050e+000 -1.000000e+001
      vertex 1.273485e+001 -5.815810e+000 0.000000e+000
      vertex 1.273485e+001 -5.815810e+000 -1.000000e+001
    endloop
  endfacet
  facet normal -1.000000e+000 -4.457815e-016 0.000000e+000
    outer loop
      vertex 1.385750e+001 -1.992408e+000 -1.000000e+001
      vertex 1.385750e+001 -1.992408e+000 0.000000e+000
      vertex 1.385750e+001 1.992408e+000 0.000000e+000
    endloop
  endfacet
  facet normal -9.594930e-001 2.817326e-001 0.000000e+000
    outer loop
      vertex 1.273485e+001 -5.815810e+000 -1.000000e+001
      vertex 1.385750e+001 -1.992408e+000 0.000000e+000
      vertex 1.385750e+001 -1.992408e+000 -1.000000e+001
    endloop
  endfacet
  facet normal -9.594930e-001 -2.817326e-001 0.000000e+000
    outer loop
      vertex 1.385750e+001 1.992408e+000 -1.000000e+001
      vertex 1.385750e+001 1.992408e+000 0.000000e+000
      vertex 1.273485e+001 5.815810e+000 0.000000e+000
    endloop
  endfacet
  facet normal -1.000000e+000 -4.457815e-016 0.000000e+000
    outer loop
      vertex 1.385750e+001 -1.992408e+000 -1.000000e+001
      vertex 1.385750e+001 1.992408e+000 0.000000e+000
      vertex 1.385750e+001 1.992408e+000 -1.000000e+001
    endloop
  endfacet
  facet normal -8.412535e-001 -5.406408e-001 0.000000e+000
    outer loop
      vertex 1.273485e+001 5.815810e+000 -1.000000e+001
      vertex 1.273485e+001 5.815810e+000 0.000000e+000
      vertex 1.058049e+001 9.168050e+000 0.000000e+000
    endloop
  endfacet
  facet normal -9.594930e-001 -2.817326e-001 0.000000e+000
    outer loop
      vertex 1.385750e+001 1.992408e+000 -1.000000e+001
      vertex 1.273485e+001 5.815810e+000 0.000000e+000
      vertex 1.273485e+001 5.815810e+000 -1.000000e+001
    endloop
  endfacet
  facet normal -6.548607e-001 -7.557496e-001 0.000000e+000
    outer loop
      vertex 1.058049e+001 9.168050e+000 -1.000000e+001
      vertex 1.058049e+001 9.168050e+000 0.000000e+000
      vertex 7.568971e+000 1.177755e+001 0.000000e+000
    endloop
  endfacet
  facet normal -8.412535e-001 -5.406408e-001 0.000000e+000
    outer loop
      vertex 1.273485e+001 5.815810e+000 -1.000000e+001
      vertex 1.058049e+001 9.168050e+000 0.000000e+000
      vertex 1.058049e+001 9.168050e+000 -1.000000e+001
    endloop
  endfacet
  facet normal -4.154150e-001 -9.096320e-001 0.000000e+000
    outer loop
      vertex 7.568971e+000 1.177755e+001 -1.000000e+001
      vertex 7.568971e+000 1.177755e+001 0.000000e+000
      vertex 3.944256e+000 1.343290e+001 0.000000e+000
    endloop
  endfacet
  facet normal -6.548607e-001 -7.557496e-001 0.000000e+000
    outer loop
      vertex 1.058049e+001 9.168050e+000 -1.000000e+001
      vertex 7.568971e+000 1.177755e+001 0.000000e+000
      vertex 7.568971e+000 1.177755e+001 -1.000000e+001
    endloop
  endfacet
  facet normal -1.423148e-001 -9.898214e-001 0.000000e+000
    outer loop
      vertex 3.944256e+000 1.343290e+001 -1.000000e+001
      vertex 3.944256e+000 1.343290e+001 0.000000e+000
      vertex -1.714449e-015 1.400000e+001 0.000000e+000
    endloop
  endfacet
  facet normal -4.154150e-001 -9.096320e-001 0.000000e+000
    outer loop
      vertex 7.568971e+000 1.177755e+001 -1.000000e+001
      vertex 3.944256e+000 1.343290e+001 0.000000e+000
      vertex 3.944256e+000 1.343290e+001 -1.000000e+001
    endloop
  endfacet
  facet normal 1.423148e-001 -9.898214e-001 0.000000e+000
    outer loop
      vertex -1.714449e-015 1.400000e+001 -1.000000e+001
      vertex -1.714449e-015 1.400000e+001 0.000000e+000
      vertex -3.944256e+000 1.343290e+001 0.000000e+000
    endloop
  endfacet
  facet normal -1.423148e-001 -9.898214e-001 0.000000e+000
    outer loop
      vertex 3.944256e+000 1.343290e+001 -1.000000e+001
      vertex -1.714449e-015 1.400000e+001 0.000000e+000
      vertex -1.714449e-015 1.400000e+001 -1.000000e+001
    endloop
  endfacet
  facet normal 4.154150e-001 -9.096320e-001 0.000000e+000
    outer loop
      vertex -3.944256e+000 1.343290e+001 -1.000000e+001
      vertex -3.944256e+000 1.343290e+001 0.000000e+000
      vertex -7.568971e+000 1.177755e+001 0.000000e+000
    endloop
  endfacet
  facet normal 1.423148e-001 -9.898214e-001 0.000000e+000
    outer loop
      vertex -1.714449e-015 1.400000e+001 -1.000000e+001
      vertex -3.944256e+000 1.343290e+001 0.000000e+000
      vertex -3.944256e+000 1.343290e+001 -1.000000e+001
    endloop
  endfacet
  facet normal 6.548607e-001 -7.557496e-001 0.000000e+000
    outer loop
      vertex -7.568971e+000 1.177755e+001 -1.000000e+001
      vertex -7.568971e+000 1.177755e+001 0.000000e+000
      vertex -1.058049e+001 9.168050e+000 0.000000e+000
    endloop
  endfacet
  facet normal 4.154150e-001 -9.096320e-001 0.000000e+000
    outer loop
      vertex -3.944256e+000 1.343290e+001 -1.000000e+001
      vertex -7.568971e+000 1.177755e+001 0.000000e+000
      vertex -7.568971e+000 1.177755e+001 -1.000000e+001
    endloop
  endfacet
  facet normal 8.412535e-001 -5.406408e-001 0.000000e+000
    outer loop
      vertex -1.058049e+001 9.168050e+000 -1.000000e+001
      vertex -1.058049e+001 9.168050e+000 0.000000e+000
      vertex -1.273485e+001 5.815810e+000 0.000000e+000
    endloop
  endfacet
  facet normal 6.548607e-001 -7.557496e-001 0.000000e+000
    outer loop
      vertex -7.568971e+000 1.177755e+001 -1.000000e+001
      vertex -1.058049e+001 9.168050e+000 0.000000e+000
      vertex -1.058049e+001 9.168050e+000 -1.000000e+001
    endloop
  endfacet
  facet normal 9.594930e-001 -2.817326e-001 0.000000e+000
    outer loop
      vertex -1.273485e+001 5.815810e+000 -1.000000e+001
      vertex -1.273485e+001 5.815810e+000 0.000000e+000
      vertex -1.385750e+001 1.992408e+000 0.000000e+000
    endloop
  endfacet
  facet normal 8.412535e-001 -5.406408e-001 0.000000e+000
    outer loop
      vertex -1.058049e+001 9.168050e+000 -1.000000e+001
      vertex -1.273485e+001 5.815810e+000 0.000000e+000
      vertex -1.273485e+001 5.815810e+000 -1.000000e+001
    endloop
  endfacet
  facet normal 1.000000e+000 4.457815e-016 0.000000e+000
    outer loop
      vertex -1.385750e+001 1.992408e+000 -1.000000e+001
      vertex -1.385750e+001 1.992408e+000 0.000000e+000
      vertex -1.385750e+001 -1.992408e+000 0.000000e+000
    endloop
  endfacet
  facet normal 9.594930e-001 -2.817326e-001 0.000000e+000
    outer loop
      vertex -1.273485e+001 5.815810e+000 -1.000000e+001
      vertex -1.385750e+001 1.992408e+000 0.000000e+000
      vertex -1.385750e+001 1.992408e+000 -1.000000e+001
    endloop
  endfacet
  facet normal 9.594930e-001 2.817326e-001 0.000000e+000
    outer loop
      vertex -1.385750e+001 -1.992408e+000 -1.000000e+001
      vertex -1.385750e+001 -1.992408e+000 0.000000e+000
      vertex -1.273485e+001 -5.815810e+000 0.000000e+000
    endloop
  endfacet
  facet normal 1.000000e+000 4.457815e-016 0.000000e+000
    outer loop
      vertex -1.385750e+001 1.992408e+000 -1.000000e+001
      vertex -1.385750e+001 -1.992408e+000 0.000000e+000
      vertex -1.385750e+001 -1.992408e+000 -1.000000e+001
    endloop
  endfacet
  facet normal 8.412535e-001 5.406408e-001 0.000000e+000
    outer loop
      vertex -1.273485e+001 -5.815810e+000 -1.000000e+001
      vertex -1.273485e+001 -5.815810e+000 0.000000e+000
      vertex -1.058049e+001 -9.168050e+000 0.000000e+000
    endloop
  endfacet
  facet normal 9.594930e-001 2.817326e-001 0.000000e+000
    outer loop
      vertex -1.385750e+001 -1.992408e+000 -1.000000e+001
      vertex -1.273485e+001 -5.815810e+000 0.000000e+000
      vertex -1.273485e+001 -5.815810e+000 -1.000000e+001
    endloop
  endfacet
  facet normal 6.548607e-001 7.557496e-001 0.000000e+000
    outer loop
      vertex -1.058049e+001 -9.168050e+000 -1.000000e+001
      vertex -1.058049e+001 -9.168050e+000 0.000000e+000
      vertex -7.568971e+000 -1.177755e+001 0.000000e+000
    endloop
  endfacet
  facet normal 8.412535e-001 5.406408e-001 0.000000e+000
    outer loop
      vertex -1.273485e+001 -5.815810e+000 -1.000000e+001
      vertex -1.058049e+001 -9.168050e+000 0.000000e+000
      vertex -1.058049e+001 -9.168050e+000 -1.000000e+001
    endloop
  endfacet
  facet normal 4.154150e-001 9.096320e-001 0.000000e+000
    outer loop
      vertex -7.568971e+000 -1.177755e+001 -1.000000e+001
      vertex -7.568971e+000 -1.177755e+001 0.000000e+000
      vertex -3.944256e+000 -1.343290e+001 0.000000e+000
    endloop
  endfacet
  facet normal 6.548607e-001 7.557496e-001 0.000000e+000
    outer loop
      vertex -1.058049e+001 -9.168050e+000 -1.000000e+001
      vertex -7.568971e+000 -1.177755e+001 0.000000e+000
      vertex -7.568971e+000 -1.177755e+001 -1.000000e+001
    endloop
  endfacet
  facet normal 4.154150e-001 9.096320e-001 0.000000e+000
    outer loop
      vertex -7.568971e+000 -1.177755e+001 -1.000000e+001
      vertex -3.944256e+000 -1.343290e+001 0.000000e+000
      vertex -3.944256e+000 -1.343290e+001 -1.000000e+001
    endloop
  endfacet
  facet normal 0.000000e+000 0.000000e+000 1.000000e+000
    outer loop
      vertex 6.468120e+000 2.653294e+000 0.000000e+000
      vertex 6.468120e+000 -2.653294e+000 0.000000e+000
      vertex 8.000000e+000 -3.063897e+000 0.000000e+000
    endloop
  endfacet
  facet normal -2.589000e-001 -9.659041e-001 0.000000e+000
    outer loop
      vertex 8.000000e+000 -3.063897e+000 -1.000000e+001
      vertex 8.000000e+000 -3.063897e+000 0.000000e+000
      vertex 6.468120e+000 -2.653294e+000 0.000000e+000
    endloop
  endfacet
  facet normal 0.000000e+000 0.000000e+000 1.000000e+000
    outer loop
      vertex 8.000000e+000 3.063897e+000 0.000000e+000
      vertex 6.468120e+000 2.653294e+000 0.000000e+000
      vertex 8.000000e+000 -3.063897e+000 0.000000e+000
    endloop
  endfacet
  facet normal 0.000000e+000 0.000000e+000 1.000000e+000
    outer loop
      vertex 9.531880e+000 -2.653294e+000 0.000000e+000
      vertex 8.000000e+000 3.063897e+000 0.000000e+000
      vertex 8.000000e+000 -3.063897e+000 0.000000e+000
    endloop
  endfacet
  facet normal 2.589000e-001 -9.659041e-001 0.000000e+000
    outer loop
      vertex 9.531880e+000 -2.653294e+000 -1.000000e+001
      vertex 9.531880e+000 -2.653294e+000 0.000000e+000
      vertex 8.000000e+000 -3.063897e+000 0.000000e+000
    endloop
  endfacet
  facet normal 2.589000e-001 -9.659041e-001 0.000000e+000
    outer loop
      vertex 9.531880e+000 -2.653294e+000 -1.000000e+001
      vertex 8.000000e+000 -3.063897e+000 0.000000e+000
      vertex 8.000000e+000 -3.063897e+000 -1.000000e+001
    endloop
  endfacet
  facet normal 0.000000e+000 0.000000e+000 1.000000e+000
    outer loop
      vertex 5.346587e+000 1.531949e+000 0.000000e+000
      vertex 5.346587e+000 -1.531949e+000 0.000000e+000
      vertex 6.468120e+000 -2.653294e+000 0.000000e+000
    endloop
  endfacet
  facet normal -7.070475e-001 -7.071661e-001 0.000000e+000
    outer loop
      vertex 6.468120e+000 -2.653294e+000 -1.000000e+001
      vertex 6.468120e+000 -2.653294e+000 0.000000e+000
      vertex 5.346587e+000 -1.531949e+000 0.000000e+000
    endloop
  endfacet
  facet normal 0.000000e+000 0.000000e+000 1.000000e+000
    outer loop
      vertex 6.468120e+000 2.653294e+000 0.000000e+000
      vertex 5.346587e+000 1.531949e+000 0.000000e+000
      vertex 6.468120e+000 -2.653294e+000 0.000000e+000
    endloop
  endfacet
  facet normal -2.589000e-001 -9.659041e-001 0.000000e+000
    outer loop
      vertex 6.468120e+000 -2.653294e+000 -1.000000e+001
      vertex 8.000000e+000 -3.063897e+000 -1.000000e+001
      vertex 6.468120e+000 -2.653294e+000 0.000000e+000
    endloop
  endfacet
  facet normal 0.000000e+000 0.000000e+000 1.000000e+000
    outer loop
      vertex 5.346587e+000 1.531949e+000 0.000000e+000
      vertex 4.936240e+000 -1.942890e-016 0.000000e+000
      vertex 5.346587e+000 -1.531949e+000 0.000000e+000
    endloop
  endfacet
  facet normal -9.659475e-001 -2.587381e-001 0.000000e+000
    outer loop
      vertex 5.346587e+000 -1.531949e+000 -1.000000e+001
      vertex 5.346587e+000 -1.531949e+000 0.000000e+000
      vertex 4.936240e+000 -1.942890e-016 0.000000e+000
    endloop
  endfacet
  facet normal -7.070475e-001 -7.071661e-001 0.000000e+000
    outer loop
      vertex 6.468120e+000 -2.653294e+000 -1.000000e+001
      vertex 5.346587e+000 -1.531949e+000 0.000000e+000
      vertex 5.346587e+000 -1.531949e+000 -1.000000e+001
    endloop
  endfacet
  facet normal -9.659475e-001 2.587381e-001 0.000000e+000
    outer loop
      vertex 4.936240e+000 -1.942890e-016 -1.000000e+001
      vertex 4.936240e+000 -1.942890e-016 0.000000e+000
      vertex 5.346587e+000 1.531949e+000 0.000000e+000
    endloop
  endfacet
  facet normal -9.659475e-001 -2.587381e-001 0.000000e+000
    outer loop
      vertex 5.346587e+000 -1.531949e+000 -1.000000e+001
      vertex 4.936240e+000 -1.942890e-016 0.000000e+000
      vertex 4.936240e+000 -1.942890e-016 -1.000000e+001
    endloop
  endfacet
  facet normal -7.070475e-001 7.071661e-001 0.000000e+000
    outer loop
      vertex 5.346587e+000 1.531949e+000 -1.000000e+001
      vertex 5.346587e+000 1.531949e+000 0.000000e+000
      vertex 6.468120e+000 2.653294e+000 0.000000e+000
    endloop
  endfacet
  facet normal -9.659475e-001 2.587381e-001 0.000000e+000
    outer loop
      vertex 4.936240e+000 -1.942890e-016 -1.000000e+001
      vertex 5.346587e+000 1.531949e+000 0.000000e+000
      vertex 5.346587e+000 1.531949e+000 -1.000000e+001
    endloop
  endfacet
  facet normal -2.589000e-001 9.659041e-001 0.000000e+000
    outer loop
      vertex 6.468120e+000 2.653294e+000 -1.000000e+001
      vertex 6.468120e+000 2.653294e+000 0.000000e+000
      vertex 8.000000e+000 3.063897e+000 0.000000e+000
    endloop
  endfacet
  facet normal -7.070475e-001 7.071661e-001 0.000000e+000
    outer loop
      vertex 5.346587e+000 1.531949e+000 -1.000000e+001
      vertex 6.468120e+000 2.653294e+000 0.000000e+000
      vertex 6.468120e+000 2.653294e+000 -1.000000e+001
    endloop
  endfacet
  facet normal 0.000000e+000 0.000000e+000 1.000000e+000
    outer loop
      vertex 9.531880e+000 -2.653294e+000 0.000000e+000
      vertex 9.531880e+000 2.653294e+000 0.000000e+000
      vertex 8.000000e+000 3.063897e+000 0.000000e+000
    endloop
  endfacet
  facet normal 2.589000e-001 9.659041e-001 0.000000e+000
    outer loop
      vertex 8.000000e+000 3.063897e+000 -1.000000e+001
      vertex 8.000000e+000 3.063897e+000 0.000000e+000
      vertex 9.531880e+000 2.653294e+000 0.000000e+000
    endloop
  endfacet
  facet normal -2.589000e-001 9.659041e-001 0.000000e+000
    outer loop
      vertex 6.468120e+000 2.653294e+000 -1.000000e+001
      vertex 8.000000e+000 3.063897e+000 0.000000e+000
      vertex 8.000000e+000 3.063897e+000 -1.000000e+001
    endloop
  endfacet
  facet normal 0.000000e+000 0.000000e+000 1.000000e+000
    outer loop
      vertex 1.065341e+001 -1.531949e+000 0.000000e+000
      vertex 1.065341e+001 1.531949e+000 0.000000e+000
      vertex 9.531880e+000 2.653294e+000 0.000000e+000
    endloop
  endfacet
  facet normal 7.070475e-001 7.071661e-001 0.000000e+000
    outer loop
      vertex 9.531880e+000 2.653294e+000 -1.000000e+001
      vertex 9.531880e+000 2.653294e+000 0.000000e+000
      vertex 1.065341e+001 1.531949e+000 0.000000e+000
    endloop
  endfacet
  facet normal 0.000000e+000 0.000000e+000 1.000000e+000
    outer loop
      vertex 9.531880e+000 -2.653294e+000 0.000000e+000
      vertex 1.065341e+001 -1.531949e+000 0.000000e+000
      vertex 9.531880e+000 2.653294e+000 0.000000e+000
    endloop
  endfacet
  facet normal 2.589000e-001 9.659041e-001 0.000000e+000
    outer loop
      vertex 8.000000e+000 3.063897e+000 -1.000000e+001
      vertex 9.531880e+000 2.653294e+000 0.000000e+000
      vertex 9.531880e+000 2.653294e+000 -1.000000e+001
    endloop
  endfacet
  facet normal 0.000000e+000 0.000000e+000 1.000000e+000
    outer loop
      vertex 1.065341e+001 -1.531949e+000 0.000000e+000
      vertex 1.106376e+001 5.551115e-016 0.000000e+000
      vertex 1.065341e+001 1.531949e+000 0.000000e+000
    endloop
  endfacet
  facet normal 9.659475e-001 2.587381e-001 0.000000e+000
    outer loop
      vertex 1.065341e+001 1.531949e+000 -1.000000e+001
      vertex 1.065341e+001 1.531949e+000 0.000000e+000
      vertex 1.106376e+001 5.551115e-016 0.000000e+000
    endloop
  endfacet
  facet normal 7.070475e-001 7.071661e-001 0.000000e+000
    outer loop
      vertex 9.531880e+000 2.653294e+000 -1.000000e+001
      vertex 1.065341e+001 1.531949e+000 0.000000e+000
      vertex 1.065341e+001 1.531949e+000 -1.000000e+001
    endloop
  endfacet
  facet normal 9.659475e-001 -2.587381e-001 0.000000e+000
    outer loop
      vertex 1.106376e+001 5.551115e-016 -1.000000e+001
      vertex 1.106376e+001 5.551115e-016 0.000000e+000
      vertex 1.065341e+001 -1.531949e+000 0.000000e+000
    endloop
  endfacet
  facet normal 9.659475e-001 2.587381e-001 0.000000e+000
    outer loop
      vertex 1.065341e+001 1.531949e+000 -1.000000e+001
      vertex 1.106376e+001 5.551115e-016 0.000000e+000
      vertex 1.106376e+001 5.551115e-016 -1.000000e+001
    endloop
  endfacet
  facet normal 7.070475e-001 -7.071661e-001 0.000000e+000
    outer loop
      vertex 1.065341e+001 -1.531949e+000 -1.000000e+001
      vertex 1.065341e+001 -1.531949e+000 0.000000e+000
      vertex 9.531880e+000 -2.653294e+000 0.000000e+000
    endloop
  endfacet
  facet normal 9.659475e-001 -2.587381e-001 0.000000e+000
    outer loop
      vertex 1.106376e+001 5.551115e-016 -1.000000e+001
      vertex 1.065341e+001 -1.531949e+000 0.000000e+000
      vertex 1.065341e+001 -1.531949e+000 -1.000000e+001
    endloop
  endfacet
  facet normal 7.070475e-001 -7.071661e-001 0.000000e+000
    outer loop
      vertex 1.065341e+001 -1.531949e+000 -1.000000e+001
      vertex 9.531880e+000 -2.653294e+000 0.000000e+000
      vertex 9.531880e+000 -2.653294e+000 -1.000000e+001
    endloop
  endfacet
  facet normal 0.000000e+000 0.000000e+000 -1.000000e+000
    outer loop
      vertex 3.944256e+000 -1.343290e+001 -1.000000e+001
      vertex 3.882926e+000 -1.448867e+001 -1.000000e+001
      vertex 1.836910e-015 -1.500000e+001 -1.000000e+001
    endloop
  endfacet
  facet normal 0.000000e+000 0.000000e+000 -1.000000e+000
    outer loop
      vertex 1.714449e-015 -1.400000e+001 -1.000000e+001
      vertex 1.836910e-015 -1.500000e+001 -1.000000e+001
      vertex -3.882926e+000 -1.448867e+001 -1.000000e+001
    endloop
  endfacet
  facet normal 0.000000e+000 0.000000e+000 -1.000000e+000
    outer loop
      vertex 3.944256e+000 -1.343290e+001 -1.000000e+001
      vertex 1.836910e-015 -1.500000e+001 -1.000000e+001
      vertex 1.714449e-015 -1.400000e+001 -1.000000e+001
    endloop
  endfacet
  facet normal 0.000000e+000 0.000000e+000 -1.000000e+000
    outer loop
      vertex 3.944256e+000 -1.343290e+001 -1.000000e+001
      vertex 7.500410e+000 -1.299001e+001 -1.000000e+001
      vertex 3.882926e+000 -1.448867e+001 -1.000000e+001
    endloop
  endfacet
  facet normal 0.000000e+000 0.000000e+000 -1.000000e+000
    outer loop
      vertex 1.058049e+001 -9.168050e+000 -1.000000e+001
      vertex 1.060650e+001 -1.060650e+001 -1.000000e+001
      vertex 7.500410e+000 -1.299001e+001 -1.000000e+001
    endloop
  endfacet
  facet normal 0.000000e+000 0.000000e+000 -1.000000e+000
    outer loop
      vertex 7.568971e+000 -1.177755e+001 -1.000000e+001
      vertex 1.058049e+001 -9.168050e+000 -1.000000e+001
      vertex 7.500410e+000 -1.299001e+001 -1.000000e+001
    endloop
  endfacet
  facet normal 0.000000e+000 0.000000e+000 -1.000000e+000
    outer loop
      vertex 3.944256e+000 -1.343290e+001 -1.000000e+001
      vertex 7.568971e+000 -1.177755e+001 -1.000000e+001
      vertex 7.500410e+000 -1.299001e+001 -1.000000e+001
    endloop
  endfacet
  facet normal 0.000000e+000 0.000000e+000 -1.000000e+000
    outer loop
      vertex 1.273485e+001 -5.815810e+000 -1.000000e+001
      vertex 1.299001e+001 -7.500410e+000 -1.000000e+001
      vertex 1.060650e+001 -1.060650e+001 -1.000000e+001
    endloop
  endfacet
  facet normal 0.000000e+000 0.000000e+000 -1.000000e+000
    outer loop
      vertex 1.058049e+001 -9.168050e+000 -1.000000e+001
      vertex 1.273485e+001 -5.815810e+000 -1.000000e+001
      vertex 1.060650e+001 -1.060650e+001 -1.000000e+001
    endloop
  endfacet
  facet normal 0.000000e+000 0.000000e+000 -1.000000e+000
    outer loop
      vertex 1.385750e+001 -1.992408e+000 -1.000000e+001
      vertex 1.448867e+001 -3.882926e+000 -1.000000e+001
      vertex 1.299001e+001 -7.500410e+000 -1.000000e+001
    endloop
  endfacet
  facet normal 0.000000e+000 0.000000e+000 -1.000000e+000
    outer loop
      vertex 1.273485e+001 -5.815810e+000 -1.000000e+001
      vertex 1.385750e+001 -1.992408e+000 -1.000000e+001
      vertex 1.299001e+001 -7.500410e+000 -1.000000e+001
    endloop
  endfacet
  facet normal 0.000000e+000 0.000000e+000 -1.000000e+000
    outer loop
      vertex 1.448867e+001 3.882926e+000 -1.000000e+001
      vertex 1.500000e+001 2.755364e-015 -1.000000e+001
      vertex 1.448867e+001 -3.882926e+000 -1.000000e+001
    endloop
  endfacet
  facet normal 0.000000e+000 0.000000e+000 -1.000000e+000
    outer loop
      vertex 1.385750e+001 -1.992408e+000 -1.000000e+001
      vertex 1.448867e+001 3.882926e+000 -1.000000e+001
      vertex 1.448867e+001 -3.882926e+000 -1.000000e+001
    endloop
  endfacet
  facet normal 0.000000e+000 0.000000e+000 -1.000000e+000
    outer loop
      vertex 1.385750e+001 1.992408e+000 -1.000000e+001
      vertex 1.299001e+001 7.500410e+000 -1.000000e+001
      vertex 1.448867e+001 3.882926e+000 -1.000000e+001
    endloop
  endfacet
  facet normal 0.000000e+000 0.000000e+000 -1.000000e+000
    outer loop
      vertex 1.385750e+001 -1.992408e+000 -1.000000e+001
      vertex 1.385750e+001 1.992408e+000 -1.000000e+001
      vertex 1.448867e+001 3.882926e+000 -1.000000e+001
    endloop
  endfacet
  facet normal 0.000000e+000 0.000000e+000 -1.000000e+000
    outer loop
      vertex 1.273485e+001 5.815810e+000 -1.000000e+001
      vertex 1.060650e+001 1.060650e+001 -1.000000e+001
      vertex 1.299001e+001 7.500410e+000 -1.000000e+001
    endloop
  endfacet
  facet normal 0.000000e+000 0.000000e+000 -1.000000e+000
    outer loop
      vertex 1.385750e+001 1.992408e+000 -1.000000e+001
      vertex 1.273485e+001 5.815810e+000 -1.000000e+001
      vertex 1.299001e+001 7.500410e+000 -1.000000e+001
    endloop
  endfacet
  facet normal 0.000000e+000 0.000000e+000 -1.000000e+000
    outer loop
      vertex 7.568971e+000 1.177755e+001 -1.000000e+001
      vertex 7.500410e+000 1.299001e+001 -1.000000e+001
      vertex 1.060650e+001 1.060650e+001 -1.000000e+001
    endloop
  endfacet
  facet normal 0.000000e+000 0.000000e+000 -1.000000e+000
    outer loop
      vertex 1.058049e+001 9.168050e+000 -1.000000e+001
      vertex 7.568971e+000 1.177755e+001 -1.000000e+001
      vertex 1.060650e+001 1.060650e+001 -1.000000e+001
    endloop
  endfacet
  facet normal 0.000000e+000 0.000000e+000 -1.000000e+000
    outer loop
      vertex 1.273485e+001 5.815810e+000 -1.000000e+001
      vertex 1.058049e+001 9.168050e+000 -1.000000e+001
      vertex 1.060650e+001 1.060650e+001 -1.000000e+001
    endloop
  endfacet
  facet normal 0.000000e+000 0.000000e+000 -1.000000e+000
    outer loop
      vertex 3.944256e+000 1.343290e+001 -1.000000e+001
      vertex 3.882926e+000 1.448867e+001 -1.000000e+001
      vertex 7.500410e+000 1.299001e+001 -1.000000e+001
    endloop
  endfacet
  facet normal 0.000000e+000 0.000000e+000 -1.000000e+000
    outer loop
      vertex 7.568971e+000 1.177755e+001 -1.000000e+001
      vertex 3.944256e+000 1.343290e+001 -1.000000e+001
      vertex 7.500410e+000 1.299001e+001 -1.000000e+001
    endloop
  endfacet
  facet normal 0.000000e+000 0.000000e+000 -1.000000e+000
    outer loop
      vertex -1.714449e-015 1.400000e+001 -1.000000e+001
      vertex -1.836910e-015 1.500000e+001 -1.000000e+001
      vertex 3.882926e+000 1.448867e+001 -1.000000e+001
    endloop
  endfacet
  facet normal 0.000000e+000 0.000000e+000 -1.000000e+000
    outer loop
      vertex 3.944256e+000 1.343290e+001 -1.000000e+001
      vertex -1.714449e-015 1.400000e+001 -1.000000e+001
      vertex 3.882926e+000 1.448867e+001 -1.000000e+001
    endloop
  endfacet
  facet normal 0.000000e+000 0.000000e+000 -1.000000e+000
    outer loop
      vertex -3.944256e+000 1.343290e+001 -1.000000e+001
      vertex -3.882926e+000 1.448867e+001 -1.000000e+001
      vertex -1.836910e-015 1.500000e+001 -1.000000e+001
    endloop
  endfacet
  facet normal 0.000000e+000 0.000000e+000 -1.000000e+000
    outer loop
      vertex -1.714449e-015 1.400000e+001 -1.000000e+001
      vertex -3.944256e+000 1.343290e+001 -1.000000e+001
      vertex -1.836910e-015 1.500000e+001 -1.000000e+001
    endloop
  endfacet
  facet normal 0.000000e+000 0.000000e+000 -1.000000e+000
    outer loop
      vertex -3.944256e+000 1.343290e+001 -1.000000e+001
      vertex -7.500410e+000 1.299001e+001 -1.000000e+001
      vertex -3.882926e+000 1.448867e+001 -1.000000e+001
    endloop
  endfacet
  facet normal 0.000000e+000 0.000000e+000 -1.000000e+000
    outer loop
      vertex -1.058049e+001 9.168050e+000 -1.000000e+001
      vertex -1.060650e+001 1.060650e+001 -1.000000e+001
      vertex -7.500410e+000 1.299001e+001 -1.000000e+001
    endloop
  endfacet
  facet normal 0.000000e+000 0.000000e+000 -1.000000e+000
    outer loop
      vertex -7.568971e+000 1.177755e+001 -1.000000e+001
      vertex -1.058049e+001 9.168050e+000 -1.000000e+001
      vertex -7.500410e+000 1.299001e+001 -1.000000e+001
    endloop
  endfacet
  facet normal 0.000000e+000 0.000000e+000 -1.000000e+000
    outer loop
      vertex -3.944256e+000 1.343290e+001 -1.000000e+001
      vertex -7.568971e+000 1.177755e+001 -1.000000e+001
      vertex -7.500410e+000 1.299001e+001 -1.000000e+001
    endloop
  endfacet
  facet normal 0.000000e+000 0.000000e+000 -1.000000e+000
    outer loop
      vertex -1.273485e+001 5.815810e+000 -1.000000e+001
      vertex -1.299001e+001 7.500410e+000 -1.000000e+001
      vertex -1.060650e+001 1.060650e+001 -1.000000e+001
    endloop
  endfacet
  facet normal 0.000000e+000 0.000000e+000 -1.000000e+000
    outer loop
      vertex -1.058049e+001 9.168050e+000 -1.000000e+001
      vertex -1.273485e+001 5.815810e+000 -1.000000e+001
      vertex -1.060650e+001 1.060650e+001 -1.000000e+001
    endloop
  endfacet
  facet normal 0.000000e+000 0.000000e+000 -1.000000e+000
    outer loop
      vertex -1.385750e+001 1.992408e+000 -1.000000e+001
      vertex -1.448867e+001 3.882926e+000 -1.000000e+001
      vertex -1.299001e+001 7.500410e+000 -1.000000e+001
    endloop
  endfacet
  facet normal 0.000000e+000 0.000000e+000 -1.000000e+000
    outer loop
      vertex -1.273485e+001 5.815810e+000 -1.000000e+001
      vertex -1.385750e+001 1.992408e+000 -1.000000e+001
      vertex -1.299001e+001 7.500410e+000 -1.000000e+001
    endloop
  endfacet
  facet normal 0.000000e+000 0.000000e+000 -1.000000e+000
    outer loop
      vertex -1.448867e+001 -3.882926e+000 -1.000000e+001
      vertex -1.500000e+001 -9.184548e-016 -1.000000e+001
      vertex -1.448867e+001 3.882926e+000 -1.000000e+001
    endloop
  endfacet
  facet normal 0.000000e+000 0.000000e+000 -1.000000e+000
    outer loop
      vertex -1.385750e+001 1.992408e+000 -1.000000e+001
      vertex -1.448867e+001 -3.882926e+000 -1.000000e+001
      vertex -1.448867e+001 3.882926e+000 -1.000000e+001
    endloop
  endfacet
  facet normal 0.000000e+000 0.000000e+000 -1.000000e+000
    outer loop
      vertex -1.385750e+001 -1.992408e+000 -1.000000e+001
      vertex -1.299001e+001 -7.500410e+000 -1.000000e+001
      vertex -1.448867e+001 -3.882926e+000 -1.000000e+001
    endloop
  endfacet
  facet normal 0.000000e+000 0.000000e+000 -1.000000e+000
    outer loop
      vertex -1.385750e+001 1.992408e+000 -1.000000e+001
      vertex -1.385750e+001 -1.992408e+000 -1.000000e+001
      vertex -1.448867e+001 -3.882926e+000 -1.000000e+001
    endloop
  endfacet
  facet normal 0.000000e+000 0.000000e+000 -1.000000e+000
    outer loop
      vertex -1.273485e+001 -5.815810e+000 -1.000000e+001
      vertex -1.060650e+001 -1.060650e+001 -1.000000e+001
      vertex -1.299001e+001 -7.500410e+000 -1.000000e+001
    endloop
  endfacet
  facet normal 0.000000e+000 0.000000e+000 -1.000000e+000
    outer loop
      vertex -1.385750e+001 -1.992408e+000 -1.000000e+001
      vertex -1.273485e+001 -5.815810e+000 -1.000000e+001
      vertex -1.299001e+001 -7.500410e+000 -1.000000e+001
    endloop
  endfacet
  facet normal 0.000000e+000 0.000000e+000 -1.000000e+000
    outer loop
      vertex -7.568971e+000 -1.177755e+001 -1.000000e+001
      vertex -7.500410e+000 -1.299001e+001 -1.000000e+001
      vertex -1.060650e+001 -1.060650e+001 -1.000000e+001
    endloop
  endfacet
  facet normal 0.000000e+000 0.000000e+000 -1.000000e+000
    outer loop
      vertex -1.058049e+001 -9.168050e+000 -1.000000e+001
      vertex -7.568971e+000 -1.177755e+001 -1.000000e+001
      vertex -1.060650e+001 -1.060650e+001 -1.000000e+001
    endloop
  endfacet
  facet normal 0.000000e+000 0.000000e+000 -1.000000e+000
    outer loop
      vertex -1.273485e+001 -5.815810e+000 -1.000000e+001
      vertex -1.058049e+001 -9.168050e+000 -1.000000e+001
      vertex -1.060650e+001 -1.060650e+001 -1.000000e+001
    endloop
  endfacet
  facet normal 0.000000e+000 0.000000e+000 -1.000000e+000
    outer loop
      vertex -3.944256e+000 -1.343290e+001 -1.000000e+001
      vertex -3.882926e+000 -1.448867e+001 -1.000000e+001
      vertex -7.500410e+000 -1.299001e+001 -1.000000e+001
    endloop
  endfacet
  facet normal 0.000000e+000 0.000000e+000 -1.000000e+000
    outer loop
      vertex -7.568971e+000 -1.177755e+001 -1.000000e+001
      vertex -3.944256e+000 -1.343290e+001 -1.000000e+001
      vertex -7.500410e+000 -1.299001e+001 -1.000000e+001
    endloop
  endfacet
  facet normal 0.000000e+000 0.000000e+000 -1.000000e+000
    outer loop
      vertex -3.944256e+000 -1.343290e+001 -1.000000e+001
      vertex 1.714449e-015 -1.400000e+001 -1.000000e+001
      vertex -3.882926e+000 -1.448867e+001 -1.000000e+001
    endloop
  endfacet
  facet normal 0.000000e+000 0.000000e+000 -1.000000e+000
    outer loop
      vertex 9.531880e+000 2.653294e+000 -1.000000e+001
      vertex 9.531880e+000 -2.653294e+000 -1.000000e+001
      vertex 8.000000e+000 -3.063897e+000 -1.000000e+001
    endloop
  endfacet
  facet normal 0.000000e+000 0.000000e+000 -1.000000e+000
    outer loop
      vertex 8.000000e+000 3.063897e+000 -1.000000e+001
      vertex 9.531880e+000 2.653294e+000 -1.000000e+001
      vertex 8.000000e+000 -3.063897e+000 -1.000000e+001
    endloop
  endfacet
  facet normal 0.000000e+000 0.000000e+000 -1.000000e+000
    outer loop
      vertex 6.468120e+000 -2.653294e+000 -1.000000e+001
      vertex 8.000000e+000 3.063897e+000 -1.000000e+001
      vertex 8.000000e+000 -3.063897e+000 -1.000000e+001
    endloop
  endfacet
  facet normal 0.000000e+000 0.000000e+000 -1.000000e+000
    outer loop
      vertex 1.065341e+001 1.531949e+000 -1.000000e+001
      vertex 1.065341e+001 -1.531949e+000 -1.000000e+001
      vertex 9.531880e+000 -2.653294e+000 -1.000000e+001
    endloop
  endfacet
  facet normal 0.000000e+000 0.000000e+000 -1.000000e+000
    outer loop
      vertex 9.531880e+000 2.653294e+000 -1.000000e+001
      vertex 1.065341e+001 1.531949e+000 -1.000000e+001
      vertex 9.531880e+000 -2.653294e+000 -1.000000e+001
    endloop
  endfacet
  facet normal 0.000000e+000 0.000000e+000 -1.000000e+000
    outer loop
      vertex 1.065341e+001 1.531949e+000 -1.000000e+001
      vertex 1.106376e+001 5.551115e-016 -1.000000e+001
      vertex 1.065341e+001 -1.531949e+000 -1.000000e+001
    endloop
  endfacet
  facet normal 0.000000e+000 0.000000e+000 -1.000000e+000
    outer loop
      vertex 6.468120e+000 -2.653294e+000 -1.000000e+001
      vertex 6.468120e+000 2.653294e+000 -1.000000e+001
      vertex 8.000000e+000 3.063897e+000 -1.000000e+001
    endloop
  endfacet
  facet normal 0.000000e+000 0.000000e+000 -1.000000e+000
    outer loop
      vertex 5.346587e+000 -1.531949e+000 -1.000000e+001
      vertex 5.346587e+000 1.531949e+000 -1.000000e+001
      vertex 6.468120e+000 2.653294e+000 -1.000000e+001
    endloop
  endfacet
  facet normal 0.000000e+000 0.000000e+000 -1.000000e+000
    outer loop
      vertex 6.468120e+000 -2.653294e+000 -1.000000e+001
      vertex 5.346587e+000 -1.531949e+000 -1.000000e+001
      vertex 6.468120e+000 2.653294e+000 -1.000000e+001
    endloop
  endfacet
  facet normal 0.000000e+000 0.000000e+000 -1.000000e+000
    outer loop
      vertex 5.346587e+000 -1.531949e+000 -1.000000e+001
      vertex 4.936240e+000 -1.942890e-016 -1.000000e+001
      vertex 5.346587e+000 1.531949e+000 -1.000000e+001
    endloop
  endfacet
  facet normal 0.000000e+000 0.000000e+000 1.000000e+000
    outer loop
      vertex -7.109393e+000 -1.537166e+000 0.000000e+000
      vertex -7.713490e+000 6.653858e+000 0.000000e+000
      vertex -8.390365e+000 4.269906e+000 0.000000e+000
    endloop
  endfacet
  facet normal -9.619760e-001 2.731339e-001 0.000000e+000
    outer loop
      vertex -8.390365e+000 4.269906e+000 -1.000000e+001
      vertex -8.390365e+000 4.269906e+000 0.000000e+000
      vertex -7.713490e+000 6.653858e+000 0.000000e+000
    endloop
  endfacet
  facet normal 0.000000e+000 0.000000e+000 1.000000e+000
    outer loop
      vertex -1.035452e+001 3.330527e+000 0.000000e+000
      vertex -7.109393e+000 -1.537166e+000 0.000000e+000
      vertex -8.390365e+000 4.269906e+000 0.000000e+000
    endloop
  endfacet
  facet normal -4.314555e-001 9.021342e-001 0.000000e+000
    outer loop
      vertex -8.390365e+000 4.269906e+000 -1.000000e+001
      vertex -1.035452e+001 3.330527e+000 0.000000e+000
      vertex -8.390365e+000 4.269906e+000 0.000000e+000
    endloop
  endfacet
  facet normal 0.000000e+000 0.000000e+000 1.000000e+000
    outer loop
      vertex -7.109393e+000 -1.537166e+000 0.000000e+000
      vertex -6.240712e+000 8.646925e+000 0.000000e+000
      vertex -7.713490e+000 6.653858e+000 0.000000e+000
    endloop
  endfacet
  facet normal -8.042454e-001 5.942973e-001 0.000000e+000
    outer loop
      vertex -7.713490e+000 6.653858e+000 -1.000000e+001
      vertex -7.713490e+000 6.653858e+000 0.000000e+000
      vertex -6.240712e+000 8.646925e+000 0.000000e+000
    endloop
  endfacet
  facet normal -9.619760e-001 2.731339e-001 0.000000e+000
    outer loop
      vertex -7.713490e+000 6.653858e+000 -1.000000e+001
      vertex -8.390365e+000 4.269906e+000 -1.000000e+001
      vertex -7.713490e+000 6.653858e+000 0.000000e+000
    endloop
  endfacet
  facet normal 0.000000e+000 0.000000e+000 1.000000e+000
    outer loop
      vertex 0.000000e+000 1.024777e+000 0.000000e+000
      vertex -4.160586e+000 9.993945e+000 0.000000e+000
      vertex -6.240712e+000 8.646925e+000 0.000000e+000
    endloop
  endfacet
  facet normal -5.435514e-001 8.393759e-001 0.000000e+000
    outer loop
      vertex -6.240712e+000 8.646925e+000 -1.000000e+001
      vertex -6.240712e+000 8.646925e+000 0.000000e+000
      vertex -4.160586e+000 9.993945e+000 0.000000e+000
    endloop
  endfacet
  facet normal 0.000000e+000 0.000000e+000 1.000000e+000
    outer loop
      vertex -7.109393e+000 -1.537166e+000 0.000000e+000
      vertex 0.000000e+000 1.024777e+000 0.000000e+000
      vertex -6.240712e+000 8.646925e+000 0.000000e+000
    endloop
  endfacet
  facet normal -8.042454e-001 5.942973e-001 0.000000e+000
    outer loop
      vertex -7.713490e+000 6.653858e+000 -1.000000e+001
      vertex -6.240712e+000 8.646925e+000 0.000000e+000
      vertex -6.240712e+000 8.646925e+000 -1.000000e+001
    endloop
  endfacet
  facet normal 0.000000e+000 0.000000e+000 1.000000e+000
    outer loop
      vertex 0.000000e+000 1.024777e+000 0.000000e+000
      vertex -1.739417e+000 1.052247e+001 0.000000e+000
      vertex -4.160586e+000 9.993945e+000 0.000000e+000
    endloop
  endfacet
  facet normal -2.132692e-001 9.769935e-001 0.000000e+000
    outer loop
      vertex -4.160586e+000 9.993945e+000 -1.000000e+001
      vertex -4.160586e+000 9.993945e+000 0.000000e+000
      vertex -1.739417e+000 1.052247e+001 0.000000e+000
    endloop
  endfacet
  facet normal -5.435514e-001 8.393759e-001 0.000000e+000
    outer loop
      vertex -6.240712e+000 8.646925e+000 -1.000000e+001
      vertex -4.160586e+000 9.993945e+000 0.000000e+000
      vertex -4.160586e+000 9.993945e+000 -1.000000e+001
    endloop
  endfacet
  facet normal 0.000000e+000 0.000000e+000 1.000000e+000
    outer loop
      vertex 0.000000e+000 1.024777e+000 0.000000e+000
      vertex 7.128228e-001 1.016482e+001 0.000000e+000
      vertex -1.739417e+000 1.052247e+001 0.000000e+000
    endloop
  endfacet
  facet normal 1.443167e-001 9.895315e-001 0.000000e+000
    outer loop
      vertex -1.739417e+000 1.052247e+001 -1.000000e+001
      vertex -1.739417e+000 1.052247e+001 0.000000e+000
      vertex 7.128228e-001 1.016482e+001 0.000000e+000
    endloop
  endfacet
  facet normal -2.132692e-001 9.769935e-001 0.000000e+000
    outer loop
      vertex -4.160586e+000 9.993945e+000 -1.000000e+001
      vertex -1.739417e+000 1.052247e+001 0.000000e+000
      vertex -1.739417e+000 1.052247e+001 -1.000000e+001
    endloop
  endfacet
  facet normal 0.000000e+000 0.000000e+000 1.000000e+000
    outer loop
      vertex 5.102538e+000 7.685831e+000 0.000000e+000
      vertex 2.882187e+000 8.966803e+000 0.000000e+000
      vertex 7.128228e-001 1.016482e+001 0.000000e+000
    endloop
  endfacet
  facet normal 4.834265e-001 8.753849e-001 0.000000e+000
    outer loop
      vertex 7.128228e-001 1.016482e+001 -1.000000e+001
      vertex 7.128228e-001 1.016482e+001 0.000000e+000
      vertex 2.882187e+000 8.966803e+000 0.000000e+000
    endloop
  endfacet
  facet normal 0.000000e+000 0.000000e+000 1.000000e+000
    outer loop
      vertex 0.000000e+000 1.024777e+000 0.000000e+000
      vertex 5.102538e+000 7.685831e+000 0.000000e+000
      vertex 7.128228e-001 1.016482e+001 0.000000e+000
    endloop
  endfacet
  facet normal 1.443167e-001 9.895315e-001 0.000000e+000
    outer loop
      vertex -1.739417e+000 1.052247e+001 -1.000000e+001
      vertex 7.128228e-001 1.016482e+001 0.000000e+000
      vertex 7.128228e-001 1.016482e+001 -1.000000e+001
    endloop
  endfacet
  facet normal 4.997225e-001 8.661856e-001 0.000000e+000
    outer loop
      vertex 5.102538e+000 7.685831e+000 -1.000000e+001
      vertex 2.882187e+000 8.966803e+000 0.000000e+000
      vertex 5.102538e+000 7.685831e+000 0.000000e+000
    endloop
  endfacet
  facet normal 4.997225e-001 8.661856e-001 0.000000e+000
    outer loop
      vertex 2.882187e+000 8.966803e+000 -1.000000e+001
      vertex 2.882187e+000 8.966803e+000 0.000000e+000
      vertex 5.102538e+000 7.685831e+000 -1.000000e+001
    endloop
  endfacet
  facet normal 4.834265e-001 8.753849e-001 0.000000e+000
    outer loop
      vertex 7.128228e-001 1.016482e+001 -1.000000e+001
      vertex 2.882187e+000 8.966803e+000 0.000000e+000
      vertex 2.882187e+000 8.966803e+000 -1.000000e+001
    endloop
  endfacet
  facet normal 7.938520e-001 -6.081110e-001 0.000000e+000
    outer loop
      vertex 0.000000e+000 1.024777e+000 -1.000000e+001
      vertex 5.102538e+000 7.685831e+000 0.000000e+000
      vertex 0.000000e+000 1.024777e+000 0.000000e+000
    endloop
  endfacet
  facet normal 7.938520e-001 -6.081110e-001 0.000000e+000
    outer loop
      vertex 5.102538e+000 7.685831e+000 -1.000000e+001
      vertex 5.102538e+000 7.685831e+000 0.000000e+000
      vertex 0.000000e+000 1.024777e+000 -1.000000e+001
    endloop
  endfacet
  facet normal 3.390196e-001 -9.407793e-001 0.000000e+000
    outer loop
      vertex -7.109393e+000 -1.537166e+000 -1.000000e+001
      vertex 0.000000e+000 1.024777e+000 0.000000e+000
      vertex -7.109393e+000 -1.537166e+000 0.000000e+000
    endloop
  endfacet
  facet normal 3.390196e-001 -9.407793e-001 0.000000e+000
    outer loop
      vertex 0.000000e+000 1.024777e+000 -1.000000e+001
      vertex 0.000000e+000 1.024777e+000 0.000000e+000
      vertex -7.109393e+000 -1.537166e+000 -1.000000e+001
    endloop
  endfacet
  facet normal -8.320503e-001 -5.547002e-001 0.000000e+000
    outer loop
      vertex -1.035452e+001 3.330527e+000 -1.000000e+001
      vertex -7.109393e+000 -1.537166e+000 0.000000e+000
      vertex -1.035452e+001 3.330527e+000 0.000000e+000
    endloop
  endfacet
  facet normal -8.320503e-001 -5.547002e-001 0.000000e+000
    outer loop
      vertex -7.109393e+000 -1.537166e+000 -1.000000e+001
      vertex -7.109393e+000 -1.537166e+000 0.000000e+000
      vertex -1.035452e+001 3.330527e+000 -1.000000e+001
    endloop
  endfacet
  facet normal -4.314555e-001 9.021342e-001 0.000000e+000
    outer loop
      vertex -1.035452e+001 3.330527e+000 -1.000000e+001
      vertex -1.035452e+001 3.330527e+000 0.000000e+000
      vertex -8.390365e+000 4.269906e+000 -1.000000e+001
    endloop
  endfacet
  facet normal 0.000000e+000 0.000000e+000 -1.000000e+000
    outer loop
      vertex -7.109393e+000 -1.537166e+000 -1.000000e+001
      vertex -1.035452e+001 3.330527e+000 -1.000000e+001
      vertex -8.390365e+000 4.269906e+000 -1.000000e+001
    endloop
  endfacet
  facet normal 0.000000e+000 0.000000e+000 -1.000000e+000
    outer loop
      vertex -7.713490e+000 6.653858e+000 -1.000000e+001
      vertex -7.109393e+000 -1.537166e+000 -1.000000e+001
      vertex -8.390365e+000 4.269906e+000 -1.000000e+001
    endloop
  endfacet
  facet normal 0.000000e+000 0.000000e+000 -1.000000e+000
    outer loop
      vertex -1.739417e+000 1.052247e+001 -1.000000e+001
      vertex 0.000000e+000 1.024777e+000 -1.000000e+001
      vertex -7.109393e+000 -1.537166e+000 -1.000000e+001
    endloop
  endfacet
  facet normal 0.000000e+000 0.000000e+000 -1.000000e+000
    outer loop
      vertex -4.160586e+000 9.993945e+000 -1.000000e+001
      vertex -1.739417e+000 1.052247e+001 -1.000000e+001
      vertex -7.109393e+000 -1.537166e+000 -1.000000e+001
    endloop
  endfacet
  facet normal 0.000000e+000 0.000000e+000 -1.000000e+000
    outer loop
      vertex -6.240712e+000 8.646925e+000 -1.000000e+001
      vertex -4.160586e+000 9.993945e+000 -1.000000e+001
      vertex -7.109393e+000 -1.537166e+000 -1.000000e+001
    endloop
  endfacet
  facet normal 0.000000e+000 0.000000e+000 -1.000000e+000
    outer loop
      vertex -7.713490e+000 6.653858e+000 -1.000000e+001
      vertex -6.240712e+000 8.646925e+000 -1.000000e+001
      vertex -7.109393e+000 -1.537166e+000 -1.000000e+001
    endloop
  endfacet
  facet normal 0.000000e+000 0.000000e+000 -1.000000e+000
    outer loop
      vertex 2.882187e+000 8.966803e+000 -1.000000e+001
      vertex 5.102538e+000 7.685831e+000 -1.000000e+001
      vertex 0.000000e+000 1.024777e+000 -1.000000e+001
    endloop
  endfacet
  facet normal 0.000000e+000 0.000000e+000 -1.000000e+000
    outer loop
      vertex 7.128228e-001 1.016482e+001 -1.000000e+001
      vertex 2.882187e+000 8.966803e+000 -1.000000e+001
      vertex 0.000000e+000 1.024777e+000 -1.000000e+001
    endloop
  endfacet
  facet normal 0.000000e+000 0.000000e+000 -1.000000e+000
    outer loop
      vertex -1.739417e+000 1.052247e+001 -1.000000e+001
      vertex 7.128228e-001 1.016482e+001 -1.000000e+001
      vertex 0.000000e+000 1.024777e+000 -1.000000e+001
    endloop
  endfacet
endsolid CAD5
