solid CAD4
  facet normal 0.000000e+000 0.000000e+000 1.000000e+000
    outer loop
      vertex -2.851020e+000 -1.433482e+001 0.000000e+000
      vertex -3.882926e+000 -1.448867e+001 0.000000e+000
      vertex 1.836910e-015 -1.500000e+001 0.000000e+000
    endloop
  endfacet
  facet normal -1.305598e-001 -9.914404e-001 0.000000e+000
    outer loop
      vertex 1.836910e-015 -1.500000e+001 -1.000000e+001
      vertex 1.836910e-015 -1.500000e+001 0.000000e+000
      vertex -3.882926e+000 -1.448867e+001 0.000000e+000
    endloop
  endfacet
  facet normal 0.000000e+000 0.000000e+000 1.000000e+000
    outer loop
      vertex -1.987597e-015 -1.490197e+001 0.000000e+000
      vertex 1.836910e-015 -1.500000e+001 0.000000e+000
      vertex 3.882926e+000 -1.448867e+001 0.000000e+000
    endloop
  endfacet
  facet normal 1.305598e-001 -9.914404e-001 0.000000e+000
    outer loop
      vertex 3.882926e+000 -1.448867e+001 -1.000000e+001
      vertex 3.882926e+000 -1.448867e+001 0.000000e+000
      vertex 1.836910e-015 -1.500000e+001 0.000000e+000
    endloop
  endfacet
  facet normal 0.000000e+000 0.000000e+000 1.000000e+000
    outer loop
      vertex -2.851020e+000 -1.433482e+001 0.000000e+000
      vertex 1.836910e-015 -1.500000e+001 0.000000e+000
      vertex -1.987597e-015 -1.490197e+001 0.000000e+000
    endloop
  endfacet
  facet normal 1.305598e-001 -9.914404e-001 0.000000e+000
    outer loop
      vertex 3.882926e+000 -1.448867e+001 -1.000000e+001
      vertex 1.836910e-015 -1.500000e+001 0.000000e+000
      vertex 1.836910e-015 -1.500000e+001 -1.000000e+001
    endloop
  endfacet
  facet normal 0.000000e+000 0.000000e+000 1.000000e+000
    outer loop
      vertex -5.268964e+000 -1.271920e+001 0.000000e+000
      vertex -7.500410e+000 -1.299001e+001 0.000000e+000
      vertex -3.882926e+000 -1.448867e+001 0.000000e+000
    endloop
  endfacet
  facet normal -3.827373e-001 -9.238572e-001 0.000000e+000
    outer loop
      vertex -3.882926e+000 -1.448867e+001 -1.000000e+001
      vertex -3.882926e+000 -1.448867e+001 0.000000e+000
      vertex -7.500410e+000 -1.299001e+001 0.000000e+000
    endloop
  endfacet
  facet normal 0.000000e+000 0.000000e+000 1.000000e+000
    outer loop
      vertex -2.851020e+000 -1.433482e+001 0.000000e+000
      vertex -5.268964e+000 -1.271920e+001 0.000000e+000
      vertex -3.882926e+000 -1.448867e+001 0.000000e+000
    endloop
  endfacet
  facet normal -1.305598e-001 -9.914404e-001 0.000000e+000
    outer loop
      vertex -3.882926e+000 -1.448867e+001 -1.000000e+001
      vertex 1.836910e-015 -1.500000e+001 -1.000000e+001
      vertex -3.882926e+000 -1.448867e+001 0.000000e+000
    endloop
  endfacet
  facet normal 0.000000e+000 0.000000e+000 1.000000e+000
    outer loop
      vertex -1.060650e+001 1.060650e+001 0.000000e+000
      vertex -1.060650e+001 -1.060650e+001 0.000000e+000
      vertex -7.500410e+000 -1.299001e+001 0.000000e+000
    endloop
  endfacet
  facet normal -6.087819e-001 -7.933377e-001 0.000000e+000
    outer loop
      vertex -7.500410e+000 -1.299001e+001 -1.000000e+001
      vertex -7.500410e+000 -1.299001e+001 0.000000e+000
      vertex -1.060650e+001 -1.060650e+001 0.000000e+000
    endloop
  endfacet
  facet normal 0.000000e+000 0.000000e+000 1.000000e+000
    outer loop
      vertex -7.500410e+000 1.299001e+001 0.000000e+000
      vertex -1.060650e+001 1.060650e+001 0.000000e+000
      vertex -7.500410e+000 -1.299001e+001 0.000000e+000
    endloop
  endfacet
  facet normal 0.000000e+000 0.000000e+000 1.000000e+000
    outer loop
      vertex -7.450856e+000 -7.450986e+000 0.000000e+000
      vertex -7.500410e+000 1.299001e+001 0.000000e+000
      vertex -7.500410e+000 -1.299001e+001 0.000000e+000
    endloop
  endfacet
  facet normal 0.000000e+000 0.000000e+000 1.000000e+000
    outer loop
      vertex -6.883614e+000 -1.030277e+001 0.000000e+000
      vertex -7.450856e+000 -7.450986e+000 0.000000e+000
      vertex -7.500410e+000 -1.299001e+001 0.000000e+000
    endloop
  endfacet
  facet normal 0.000000e+000 0.000000e+000 1.000000e+000
    outer loop
      vertex -5.268964e+000 -1.271920e+001 0.000000e+000
      vertex -6.883614e+000 -1.030277e+001 0.000000e+000
      vertex -7.500410e+000 -1.299001e+001 0.000000e+000
    endloop
  endfacet
  facet normal -3.827373e-001 -9.238572e-001 0.000000e+000
    outer loop
      vertex -3.882926e+000 -1.448867e+001 -1.000000e+001
      vertex -7.500410e+000 -1.299001e+001 0.000000e+000
      vertex -7.500410e+000 -1.299001e+001 -1.000000e+001
    endloop
  endfacet
  facet normal 0.000000e+000 0.000000e+000 1.000000e+000
    outer loop
      vertex -1.299001e+001 7.500410e+000 0.000000e+000
      vertex -1.299001e+001 -7.500410e+000 0.000000e+000
      vertex -1.060650e+001 -1.060650e+001 0.000000e+000
    endloop
  endfacet
  facet normal -7.933377e-001 -6.087819e-001 0.000000e+000
    outer loop
      vertex -1.060650e+001 -1.060650e+001 -1.000000e+001
      vertex -1.060650e+001 -1.060650e+001 0.000000e+000
      vertex -1.299001e+001 -7.500410e+000 0.000000e+000
    endloop
  endfacet
  facet normal 0.000000e+000 0.000000e+000 1.000000e+000
    outer loop
      vertex -1.060650e+001 1.060650e+001 0.000000e+000
      vertex -1.299001e+001 7.500410e+000 0.000000e+000
      vertex -1.060650e+001 -1.060650e+001 0.000000e+000
    endloop
  endfacet
  facet normal -6.087819e-001 -7.933377e-001 0.000000e+000
    outer loop
      vertex -7.500410e+000 -1.299001e+001 -1.000000e+001
      vertex -1.060650e+001 -1.060650e+001 0.000000e+000
      vertex -1.060650e+001 -1.060650e+001 -1.000000e+001
    endloop
  endfacet
  facet normal 0.000000e+000 0.000000e+000 1.000000e+000
    outer loop
      vertex -1.448867e+001 3.882926e+000 0.000000e+000
      vertex -1.448867e+001 -3.882926e+000 0.000000e+000
      vertex -1.299001e+001 -7.500410e+000 0.000000e+000
    endloop
  endfacet
  facet normal -9.238572e-001 -3.827373e-001 0.000000e+000
    outer loop
      vertex -1.299001e+001 -7.500410e+000 -1.000000e+001
      vertex -1.299001e+001 -7.500410e+000 0.000000e+000
      vertex -1.448867e+001 -3.882926e+000 0.000000e+000
    endloop
  endfacet
  facet normal 0.000000e+000 0.000000e+000 1.000000e+000
    outer loop
      vertex -1.299001e+001 7.500410e+000 0.000000e+000
      vertex -1.448867e+001 3.882926e+000 0.000000e+000
      vertex -1.299001e+001 -7.500410e+000 0.000000e+000
    endloop
  endfacet
  facet normal -7.933377e-001 -6.087819e-001 0.000000e+000
    outer loop
      vertex -1.060650e+001 -1.060650e+001 -1.000000e+001
      vertex -1.299001e+001 -7.500410e+000 0.000000e+000
      vertex -1.299001e+001 -7.500410e+000 -1.000000e+001
    endloop
  endfacet
  facet normal 0.000000e+000 0.000000e+000 1.000000e+000
    outer loop
      vertex -1.448867e+001 3.882926e+000 0.000000e+000
      vertex -1.500000e+001 -9.184548e-016 0.000000e+000
      vertex -1.448867e+001 -3.882926e+000 0.000000e+000
    endloop
  endfacet
  facet normal -9.914404e-001 -1.305598e-001 0.000000e+000
    outer loop
      vertex -1.448867e+001 -3.882926e+000 -1.000000e+001
      vertex -1.448867e+001 -3.882926e+000 0.000000e+000
      vertex -1.500000e+001 -9.184548e-016 0.000000e+000
    endloop
  endfacet
  facet normal -9.238572e-001 -3.827373e-001 0.000000e+000
    outer loop
      vertex -1.299001e+001 -7.500410e+000 -1.000000e+001
      vertex -1.448867e+001 -3.882926e+000 0.000000e+000
      vertex -1.448867e+001 -3.882926e+000 -1.000000e+001
    endloop
  endfacet
  facet normal -9.914404e-001 1.305598e-001 0.000000e+000
    outer loop
      vertex -1.500000e+001 -9.184548e-016 -1.000000e+001
      vertex -1.500000e+001 -9.184548e-016 0.000000e+000
      vertex -1.448867e+001 3.882926e+000 0.000000e+000
    endloop
  endfacet
  facet normal -9.914404e-001 -1.305598e-001 0.000000e+000
    outer loop
      vertex -1.448867e+001 -3.882926e+000 -1.000000e+001
      vertex -1.500000e+001 -9.184548e-016 0.000000e+000
      vertex -1.500000e+001 -9.184548e-016 -1.000000e+001
    endloop
  endfacet
  facet normal -9.238572e-001 3.827373e-001 0.000000e+000
    outer loop
      vertex -1.448867e+001 3.882926e+000 -1.000000e+001
      vertex -1.448867e+001 3.882926e+000 0.000000e+000
      vertex -1.299001e+001 7.500410e+000 0.000000e+000
    endloop
  endfacet
  facet normal -9.914404e-001 1.305598e-001 0.000000e+000
    outer loop
      vertex -1.500000e+001 -9.184548e-016 -1.000000e+001
      vertex -1.448867e+001 3.882926e+000 0.000000e+000
      vertex -1.448867e+001 3.882926e+000 -1.000000e+001
    endloop
  endfacet
  facet normal -7.933377e-001 6.087819e-001 0.000000e+000
    outer loop
      vertex -1.299001e+001 7.500410e+000 -1.000000e+001
      vertex -1.299001e+001 7.500410e+000 0.000000e+000
      vertex -1.060650e+001 1.060650e+001 0.000000e+000
    endloop
  endfacet
  facet normal -9.238572e-001 3.827373e-001 0.000000e+000
    outer loop
      vertex -1.448867e+001 3.882926e+000 -1.000000e+001
      vertex -1.299001e+001 7.500410e+000 0.000000e+000
      vertex -1.299001e+001 7.500410e+000 -1.000000e+001
    endloop
  endfacet
  facet normal -6.087819e-001 7.933377e-001 0.000000e+000
    outer loop
      vertex -1.060650e+001 1.060650e+001 -1.000000e+001
      vertex -1.060650e+001 1.060650e+001 0.000000e+000
      vertex -7.500410e+000 1.299001e+001 0.000000e+000
    endloop
  endfacet
  facet normal -7.933377e-001 6.087819e-001 0.000000e+000
    outer loop
      vertex -1.299001e+001 7.500410e+000 -1.000000e+001
      vertex -1.060650e+001 1.060650e+001 0.000000e+000
      vertex -1.060650e+001 1.060650e+001 -1.000000e+001
    endloop
  endfacet
  facet normal 0.000000e+000 0.000000e+000 1.000000e+000
    outer loop
      vertex -5.268964e+000 -2.182768e+000 0.000000e+000
      vertex -3.882926e+000 1.448867e+001 0.000000e+000
      vertex -7.500410e+000 1.299001e+001 0.000000e+000
    endloop
  endfacet
  facet normal -3.827373e-001 9.238572e-001 0.000000e+000
    outer loop
      vertex -7.500410e+000 1.299001e+001 -1.000000e+001
      vertex -7.500410e+000 1.299001e+001 0.000000e+000
      vertex -3.882926e+000 1.448867e+001 0.000000e+000
    endloop
  endfacet
  facet normal 0.000000e+000 0.000000e+000 1.000000e+000
    outer loop
      vertex -6.883614e+000 -4.599201e+000 0.000000e+000
      vertex -5.268964e+000 -2.182768e+000 0.000000e+000
      vertex -7.500410e+000 1.299001e+001 0.000000e+000
    endloop
  endfacet
  facet normal 0.000000e+000 0.000000e+000 1.000000e+000
    outer loop
      vertex -7.450856e+000 -7.450986e+000 0.000000e+000
      vertex -6.883614e+000 -4.599201e+000 0.000000e+000
      vertex -7.500410e+000 1.299001e+001 0.000000e+000
    endloop
  endfacet
  facet normal -6.087819e-001 7.933377e-001 0.000000e+000
    outer loop
      vertex -1.060650e+001 1.060650e+001 -1.000000e+001
      vertex -7.500410e+000 1.299001e+001 0.000000e+000
      vertex -7.500410e+000 1.299001e+001 -1.000000e+001
    endloop
  endfacet
  facet normal 0.000000e+000 0.000000e+000 1.000000e+000
    outer loop
      vertex -8.509213e-015 1.490197e+001 0.000000e+000
      vertex -1.836910e-015 1.500000e+001 0.000000e+000
      vertex -3.882926e+000 1.448867e+001 0.000000e+000
    endloop
  endfacet
  facet normal -1.305598e-001 9.914404e-001 0.000000e+000
    outer loop
      vertex -3.882926e+000 1.448867e+001 -1.000000e+001
      vertex -3.882926e+000 1.448867e+001 0.000000e+000
      vertex -1.836910e-015 1.500000e+001 0.000000e+000
    endloop
  endfacet
  facet normal 0.000000e+000 0.000000e+000 1.000000e+000
    outer loop
      vertex 1.997981e-016 1.114103e+001 0.000000e+000
      vertex -8.509213e-015 1.490197e+001 0.000000e+000
      vertex -3.882926e+000 1.448867e+001 0.000000e+000
    endloop
  endfacet
  facet normal 0.000000e+000 0.000000e+000 1.000000e+000
    outer loop
      vertex -5.268964e+000 -2.182768e+000 0.000000e+000
      vertex -2.851020e+000 -5.671521e-001 0.000000e+000
      vertex -3.882926e+000 1.448867e+001 0.000000e+000
    endloop
  endfacet
  facet normal 0.000000e+000 0.000000e+000 1.000000e+000
    outer loop
      vertex -3.263058e+000 7.877977e+000 0.000000e+000
      vertex -3.882926e+000 1.448867e+001 0.000000e+000
      vertex -2.851020e+000 -5.671521e-001 0.000000e+000
    endloop
  endfacet
  facet normal 0.000000e+000 0.000000e+000 1.000000e+000
    outer loop
      vertex -1.631749e+000 1.070364e+001 0.000000e+000
      vertex 1.997981e-016 1.114103e+001 0.000000e+000
      vertex -3.882926e+000 1.448867e+001 0.000000e+000
    endloop
  endfacet
  facet normal 0.000000e+000 0.000000e+000 1.000000e+000
    outer loop
      vertex -2.825660e+000 9.509726e+000 0.000000e+000
      vertex -1.631749e+000 1.070364e+001 0.000000e+000
      vertex -3.882926e+000 1.448867e+001 0.000000e+000
    endloop
  endfacet
  facet normal 0.000000e+000 0.000000e+000 1.000000e+000
    outer loop
      vertex -3.263058e+000 7.877977e+000 0.000000e+000
      vertex -2.825660e+000 9.509726e+000 0.000000e+000
      vertex -3.882926e+000 1.448867e+001 0.000000e+000
    endloop
  endfacet
  facet normal -3.827373e-001 9.238572e-001 0.000000e+000
    outer loop
      vertex -7.500410e+000 1.299001e+001 -1.000000e+001
      vertex -3.882926e+000 1.448867e+001 0.000000e+000
      vertex -3.882926e+000 1.448867e+001 -1.000000e+001
    endloop
  endfacet
  facet normal 0.000000e+000 0.000000e+000 1.000000e+000
    outer loop
      vertex 3.857300e+000 1.439408e+001 0.000000e+000
      vertex 3.882926e+000 1.448867e+001 0.000000e+000
      vertex -1.836910e-015 1.500000e+001 0.000000e+000
    endloop
  endfacet
  facet normal 1.305598e-001 9.914404e-001 0.000000e+000
    outer loop
      vertex -1.836910e-015 1.500000e+001 -1.000000e+001
      vertex -1.836910e-015 1.500000e+001 0.000000e+000
      vertex 3.882926e+000 1.448867e+001 0.000000e+000
    endloop
  endfacet
  facet normal 0.000000e+000 0.000000e+000 1.000000e+000
    outer loop
      vertex -8.509213e-015 1.490197e+001 0.000000e+000
      vertex 3.857300e+000 1.439408e+001 0.000000e+000
      vertex -1.836910e-015 1.500000e+001 0.000000e+000
    endloop
  endfacet
  facet normal -1.305598e-001 9.914404e-001 0.000000e+000
    outer loop
      vertex -3.882926e+000 1.448867e+001 -1.000000e+001
      vertex -1.836910e-015 1.500000e+001 0.000000e+000
      vertex -1.836910e-015 1.500000e+001 -1.000000e+001
    endloop
  endfacet
  facet normal 0.000000e+000 0.000000e+000 1.000000e+000
    outer loop
      vertex 7.451475e+000 1.290516e+001 0.000000e+000
      vertex 7.500410e+000 1.299001e+001 0.000000e+000
      vertex 3.882926e+000 1.448867e+001 0.000000e+000
    endloop
  endfacet
  facet normal 3.827373e-001 9.238572e-001 0.000000e+000
    outer loop
      vertex 3.882926e+000 1.448867e+001 -1.000000e+001
      vertex 3.882926e+000 1.448867e+001 0.000000e+000
      vertex 7.500410e+000 1.299001e+001 0.000000e+000
    endloop
  endfacet
  facet normal 0.000000e+000 0.000000e+000 1.000000e+000
    outer loop
      vertex 3.857300e+000 1.439408e+001 0.000000e+000
      vertex 7.451475e+000 1.290516e+001 0.000000e+000
      vertex 3.882926e+000 1.448867e+001 0.000000e+000
    endloop
  endfacet
  facet normal 1.305598e-001 9.914404e-001 0.000000e+000
    outer loop
      vertex -1.836910e-015 1.500000e+001 -1.000000e+001
      vertex 3.882926e+000 1.448867e+001 0.000000e+000
      vertex 3.882926e+000 1.448867e+001 -1.000000e+001
    endloop
  endfacet
  facet normal 0.000000e+000 0.000000e+000 1.000000e+000
    outer loop
      vertex 1.053766e+001 1.053682e+001 0.000000e+000
      vertex 1.060650e+001 1.060650e+001 0.000000e+000
      vertex 7.500410e+000 1.299001e+001 0.000000e+000
    endloop
  endfacet
  facet normal 6.087819e-001 7.933377e-001 0.000000e+000
    outer loop
      vertex 7.500410e+000 1.299001e+001 -1.000000e+001
      vertex 7.500410e+000 1.299001e+001 0.000000e+000
      vertex 1.060650e+001 1.060650e+001 0.000000e+000
    endloop
  endfacet
  facet normal 0.000000e+000 0.000000e+000 1.000000e+000
    outer loop
      vertex 7.451475e+000 1.290516e+001 0.000000e+000
      vertex 1.053766e+001 1.053682e+001 0.000000e+000
      vertex 7.500410e+000 1.299001e+001 0.000000e+000
    endloop
  endfacet
  facet normal 3.827373e-001 9.238572e-001 0.000000e+000
    outer loop
      vertex 3.882926e+000 1.448867e+001 -1.000000e+001
      vertex 7.500410e+000 1.299001e+001 0.000000e+000
      vertex 7.500410e+000 1.299001e+001 -1.000000e+001
    endloop
  endfacet
  facet normal 0.000000e+000 0.000000e+000 1.000000e+000
    outer loop
      vertex 1.290564e+001 7.450531e+000 0.000000e+000
      vertex 1.299001e+001 7.500410e+000 0.000000e+000
      vertex 1.060650e+001 1.060650e+001 0.000000e+000
    endloop
  endfacet
  facet normal 7.933377e-001 6.087819e-001 0.000000e+000
    outer loop
      vertex 1.060650e+001 1.060650e+001 -1.000000e+001
      vertex 1.060650e+001 1.060650e+001 0.000000e+000
      vertex 1.299001e+001 7.500410e+000 0.000000e+000
    endloop
  endfacet
  facet normal 0.000000e+000 0.000000e+000 1.000000e+000
    outer loop
      vertex 1.053766e+001 1.053682e+001 0.000000e+000
      vertex 1.290564e+001 7.450531e+000 0.000000e+000
      vertex 1.060650e+001 1.060650e+001 0.000000e+000
    endloop
  endfacet
  facet normal 6.087819e-001 7.933377e-001 0.000000e+000
    outer loop
      vertex 7.500410e+000 1.299001e+001 -1.000000e+001
      vertex 1.060650e+001 1.060650e+001 0.000000e+000
      vertex 1.060650e+001 1.060650e+001 -1.000000e+001
    endloop
  endfacet
  facet normal 0.000000e+000 0.000000e+000 1.000000e+000
    outer loop
      vertex 1.439416e+001 3.856636e+000 0.000000e+000
      vertex 1.448867e+001 3.882926e+000 0.000000e+000
      vertex 1.299001e+001 7.500410e+000 0.000000e+000
    endloop
  endfacet
  facet normal 9.238572e-001 3.827373e-001 0.000000e+000
    outer loop
      vertex 1.299001e+001 7.500410e+000 -1.000000e+001
      vertex 1.299001e+001 7.500410e+000 0.000000e+000
      vertex 1.448867e+001 3.882926e+000 0.000000e+000
    endloop
  endfacet
  facet normal 0.000000e+000 0.000000e+000 1.000000e+000
    outer loop
      vertex 1.290564e+001 7.450531e+000 0.000000e+000
      vertex 1.439416e+001 3.856636e+000 0.000000e+000
      vertex 1.299001e+001 7.500410e+000 0.000000e+000
    endloop
  endfacet
  facet normal 7.933377e-001 6.087819e-001 0.000000e+000
    outer loop
      vertex 1.060650e+001 1.060650e+001 -1.000000e+001
      vertex 1.299001e+001 7.500410e+000 0.000000e+000
      vertex 1.299001e+001 7.500410e+000 -1.000000e+001
    endloop
  endfacet
  facet normal 0.000000e+000 0.000000e+000 1.000000e+000
    outer loop
      vertex 1.490185e+001 -2.775558e-015 0.000000e+000
      vertex 1.500000e+001 2.755364e-015 0.000000e+000
      vertex 1.448867e+001 3.882926e+000 0.000000e+000
    endloop
  endfacet
  facet normal 9.914404e-001 1.305598e-001 0.000000e+000
    outer loop
      vertex 1.448867e+001 3.882926e+000 -1.000000e+001
      vertex 1.448867e+001 3.882926e+000 0.000000e+000
      vertex 1.500000e+001 2.755364e-015 0.000000e+000
    endloop
  endfacet
  facet normal 0.000000e+000 0.000000e+000 1.000000e+000
    outer loop
      vertex 1.439416e+001 3.856636e+000 0.000000e+000
      vertex 1.490185e+001 -2.775558e-015 0.000000e+000
      vertex 1.448867e+001 3.882926e+000 0.000000e+000
    endloop
  endfacet
  facet normal 9.238572e-001 3.827373e-001 0.000000e+000
    outer loop
      vertex 1.299001e+001 7.500410e+000 -1.000000e+001
      vertex 1.448867e+001 3.882926e+000 0.000000e+000
      vertex 1.448867e+001 3.882926e+000 -1.000000e+001
    endloop
  endfacet
  facet normal 0.000000e+000 0.000000e+000 1.000000e+000
    outer loop
      vertex 1.490185e+001 -2.775558e-015 0.000000e+000
      vertex 1.448867e+001 -3.882926e+000 0.000000e+000
      vertex 1.500000e+001 2.755364e-015 0.000000e+000
    endloop
  endfacet
  facet normal 9.914404e-001 -1.305598e-001 0.000000e+000
    outer loop
      vertex 1.500000e+001 2.755364e-015 -1.000000e+001
      vertex 1.500000e+001 2.755364e-015 0.000000e+000
      vertex 1.448867e+001 -3.882926e+000 0.000000e+000
    endloop
  endfacet
  facet normal 9.914404e-001 1.305598e-001 0.000000e+000
    outer loop
      vertex 1.448867e+001 3.882926e+000 -1.000000e+001
      vertex 1.500000e+001 2.755364e-015 0.000000e+000
      vertex 1.500000e+001 2.755364e-015 -1.000000e+001
    endloop
  endfacet
  facet normal 0.000000e+000 0.000000e+000 1.000000e+000
    outer loop
      vertex 1.439416e+001 -3.856636e+000 0.000000e+000
      vertex 1.299001e+001 -7.500410e+000 0.000000e+000
      vertex 1.448867e+001 -3.882926e+000 0.000000e+000
    endloop
  endfacet
  facet normal 9.238572e-001 -3.827373e-001 0.000000e+000
    outer loop
      vertex 1.448867e+001 -3.882926e+000 -1.000000e+001
      vertex 1.448867e+001 -3.882926e+000 0.000000e+000
      vertex 1.299001e+001 -7.500410e+000 0.000000e+000
    endloop
  endfacet
  facet normal 0.000000e+000 0.000000e+000 1.000000e+000
    outer loop
      vertex 1.490185e+001 -2.775558e-015 0.000000e+000
      vertex 1.439416e+001 -3.856636e+000 0.000000e+000
      vertex 1.448867e+001 -3.882926e+000 0.000000e+000
    endloop
  endfacet
  facet normal 9.914404e-001 -1.305598e-001 0.000000e+000
    outer loop
      vertex 1.500000e+001 2.755364e-015 -1.000000e+001
      vertex 1.448867e+001 -3.882926e+000 0.000000e+000
      vertex 1.448867e+001 -3.882926e+000 -1.000000e+001
    endloop
  endfacet
  facet normal 0.000000e+000 0.000000e+000 1.000000e+000
    outer loop
      vertex 1.290564e+001 -7.450531e+000 0.000000e+000
      vertex 1.060650e+001 -1.060650e+001 0.000000e+000
      vertex 1.299001e+001 -7.500410e+000 0.000000e+000
    endloop
  endfacet
  facet normal 7.933377e-001 -6.087819e-001 0.000000e+000
    outer loop
      vertex 1.299001e+001 -7.500410e+000 -1.000000e+001
      vertex 1.299001e+001 -7.500410e+000 0.000000e+000
      vertex 1.060650e+001 -1.060650e+001 0.000000e+000
    endloop
  endfacet
  facet normal 0.000000e+000 0.000000e+000 1.000000e+000
    outer loop
      vertex 1.439416e+001 -3.856636e+000 0.000000e+000
      vertex 1.290564e+001 -7.450531e+000 0.000000e+000
      vertex 1.299001e+001 -7.500410e+000 0.000000e+000
    endloop
  endfacet
  facet normal 9.238572e-001 -3.827373e-001 0.000000e+000
    outer loop
      vertex 1.448867e+001 -3.882926e+000 -1.000000e+001
      vertex 1.299001e+001 -7.500410e+000 0.000000e+000
      vertex 1.299001e+001 -7.500410e+000 -1.000000e+001
    endloop
  endfacet
  facet normal 0.000000e+000 0.000000e+000 1.000000e+000
    outer loop
      vertex 1.053766e+001 -1.053682e+001 0.000000e+000
      vertex 7.500410e+000 -1.299001e+001 0.000000e+000
      vertex 1.060650e+001 -1.060650e+001 0.000000e+000
    endloop
  endfacet
  facet normal 6.087819e-001 -7.933377e-001 0.000000e+000
    outer loop
      vertex 1.060650e+001 -1.060650e+001 -1.000000e+001
      vertex 1.060650e+001 -1.060650e+001 0.000000e+000
      vertex 7.500410e+000 -1.299001e+001 0.000000e+000
    endloop
  endfacet
  facet normal 0.000000e+000 0.000000e+000 1.000000e+000
    outer loop
      vertex 1.290564e+001 -7.450531e+000 0.000000e+000
      vertex 1.053766e+001 -1.053682e+001 0.000000e+000
      vertex 1.060650e+001 -1.060650e+001 0.000000e+000
    endloop
  endfacet
  facet normal 7.933377e-001 -6.087819e-001 0.000000e+000
    outer loop
      vertex 1.299001e+001 -7.500410e+000 -1.000000e+001
      vertex 1.060650e+001 -1.060650e+001 0.000000e+000
      vertex 1.060650e+001 -1.060650e+001 -1.000000e+001
    endloop
  endfacet
  facet normal 0.000000e+000 0.000000e+000 1.000000e+000
    outer loop
      vertex 7.451475e+000 -1.290516e+001 0.000000e+000
      vertex 3.882926e+000 -1.448867e+001 0.000000e+000
      vertex 7.500410e+000 -1.299001e+001 0.000000e+000
    endloop
  endfacet
  facet normal 3.827373e-001 -9.238572e-001 0.000000e+000
    outer loop
      vertex 7.500410e+000 -1.299001e+001 -1.000000e+001
      vertex 7.500410e+000 -1.299001e+001 0.000000e+000
      vertex 3.882926e+000 -1.448867e+001 0.000000e+000
    endloop
  endfacet
  facet normal 0.000000e+000 0.000000e+000 1.000000e+000
    outer loop
      vertex 1.053766e+001 -1.053682e+001 0.000000e+000
      vertex 7.451475e+000 -1.290516e+001 0.000000e+000
      vertex 7.500410e+000 -1.299001e+001 0.000000e+000
    endloop
  endfacet
  facet normal 6.087819e-001 -7.933377e-001 0.000000e+000
    outer loop
      vertex 1.060650e+001 -1.060650e+001 -1.000000e+001
      vertex 7.500410e+000 -1.299001e+001 0.000000e+000
      vertex 7.500410e+000 -1.299001e+001 -1.000000e+001
    endloop
  endfacet
  facet normal 0.000000e+000 0.000000e+000 1.000000e+000
    outer loop
      vertex 3.857300e+000 -1.439408e+001 0.000000e+000
      vertex -1.987597e-015 -1.490197e+001 0.000000e+000
      vertex 3.882926e+000 -1.448867e+001 0.000000e+000
    endloop
  endfacet
  facet normal 0.000000e+000 0.000000e+000 1.000000e+000
    outer loop
      vertex 7.451475e+000 -1.290516e+001 0.000000e+000
      vertex 3.857300e+000 -1.439408e+001 0.000000e+000
      vertex 3.882926e+000 -1.448867e+001 0.000000e+000
    endloop
  endfacet
  facet normal 3.827373e-001 -9.238572e-001 0.000000e+000
    outer loop
      vertex 7.500410e+000 -1.299001e+001 -1.000000e+001
      vertex 3.882926e+000 -1.448867e+001 0.000000e+000
      vertex 3.882926e+000 -1.448867e+001 -1.000000e+001
    endloop
  endfacet
  facet normal -1.305425e-001 9.914427e-001 0.000000e+000
    outer loop
      vertex -1.987597e-015 -1.490197e+001 -1.000000e+001
      vertex -1.987597e-015 -1.490197e+001 0.000000e+000
      vertex 3.857300e+000 -1.439408e+001 0.000000e+000
    endloop
  endfacet
  facet normal 1.951065e-001 9.807821e-001 0.000000e+000
    outer loop
      vertex -2.851020e+000 -1.433482e+001 -1.000000e+001
      vertex -2.851020e+000 -1.433482e+001 0.000000e+000
      vertex -1.987597e-015 -1.490197e+001 0.000000e+000
    endloop
  endfacet
  facet normal 1.951065e-001 9.807821e-001 0.000000e+000
    outer loop
      vertex -2.851020e+000 -1.433482e+001 -1.000000e+001
      vertex -1.987597e-015 -1.490197e+001 0.000000e+000
      vertex -1.987597e-015 -1.490197e+001 -1.000000e+001
    endloop
  endfacet
  facet normal -3.827202e-001 9.238643e-001 0.000000e+000
    outer loop
      vertex 3.857300e+000 -1.439408e+001 -1.000000e+001
      vertex 3.857300e+000 -1.439408e+001 0.000000e+000
      vertex 7.451475e+000 -1.290516e+001 0.000000e+000
    endloop
  endfacet
  facet normal -1.305425e-001 9.914427e-001 0.000000e+000
    outer loop
      vertex 3.857300e+000 -1.439408e+001 -1.000000e+001
      vertex -1.987597e-015 -1.490197e+001 -1.000000e+001
      vertex 3.857300e+000 -1.439408e+001 0.000000e+000
    endloop
  endfacet
  facet normal -6.087991e-001 7.933244e-001 0.000000e+000
    outer loop
      vertex 7.451475e+000 -1.290516e+001 -1.000000e+001
      vertex 7.451475e+000 -1.290516e+001 0.000000e+000
      vertex 1.053766e+001 -1.053682e+001 0.000000e+000
    endloop
  endfacet
  facet normal -3.827202e-001 9.238643e-001 0.000000e+000
    outer loop
      vertex 3.857300e+000 -1.439408e+001 -1.000000e+001
      vertex 7.451475e+000 -1.290516e+001 0.000000e+000
      vertex 7.451475e+000 -1.290516e+001 -1.000000e+001
    endloop
  endfacet
  facet normal -7.933794e-001 6.087275e-001 0.000000e+000
    outer loop
      vertex 1.053766e+001 -1.053682e+001 -1.000000e+001
      vertex 1.053766e+001 -1.053682e+001 0.000000e+000
      vertex 1.290564e+001 -7.450531e+000 0.000000e+000
    endloop
  endfacet
  facet normal -6.087991e-001 7.933244e-001 0.000000e+000
    outer loop
      vertex 7.451475e+000 -1.290516e+001 -1.000000e+001
      vertex 1.053766e+001 -1.053682e+001 0.000000e+000
      vertex 1.053766e+001 -1.053682e+001 -1.000000e+001
    endloop
  endfacet
  facet normal -9.238907e-001 3.826565e-001 0.000000e+000
    outer loop
      vertex 1.290564e+001 -7.450531e+000 -1.000000e+001
      vertex 1.290564e+001 -7.450531e+000 0.000000e+000
      vertex 1.439416e+001 -3.856636e+000 0.000000e+000
    endloop
  endfacet
  facet normal -7.933794e-001 6.087275e-001 0.000000e+000
    outer loop
      vertex 1.053766e+001 -1.053682e+001 -1.000000e+001
      vertex 1.290564e+001 -7.450531e+000 0.000000e+000
      vertex 1.290564e+001 -7.450531e+000 -1.000000e+001
    endloop
  endfacet
  facet normal -9.914462e-001 1.305160e-001 0.000000e+000
    outer loop
      vertex 1.439416e+001 -3.856636e+000 -1.000000e+001
      vertex 1.439416e+001 -3.856636e+000 0.000000e+000
      vertex 1.490185e+001 -2.775558e-015 0.000000e+000
    endloop
  endfacet
  facet normal -9.238907e-001 3.826565e-001 0.000000e+000
    outer loop
      vertex 1.290564e+001 -7.450531e+000 -1.000000e+001
      vertex 1.439416e+001 -3.856636e+000 0.000000e+000
      vertex 1.439416e+001 -3.856636e+000 -1.000000e+001
    endloop
  endfacet
  facet normal -9.914462e-001 -1.305160e-001 0.000000e+000
    outer loop
      vertex 1.490185e+001 -2.775558e-015 -1.000000e+001
      vertex 1.490185e+001 -2.775558e-015 0.000000e+000
      vertex 1.439416e+001 3.856636e+000 0.000000e+000
    endloop
  endfacet
  facet normal -9.914462e-001 1.305160e-001 0.000000e+000
    outer loop
      vertex 1.439416e+001 -3.856636e+000 -1.000000e+001
      vertex 1.490185e+001 -2.775558e-015 0.000000e+000
      vertex 1.490185e+001 -2.775558e-015 -1.000000e+001
    endloop
  endfacet
  facet normal -9.238907e-001 -3.826565e-001 0.000000e+000
    outer loop
      vertex 1.439416e+001 3.856636e+000 -1.000000e+001
      vertex 1.439416e+001 3.856636e+000 0.000000e+000
      vertex 1.290564e+001 7.450531e+000 0.000000e+000
    endloop
  endfacet
  facet normal -9.914462e-001 -1.305160e-001 0.000000e+000
    outer loop
      vertex 1.490185e+001 -2.775558e-015 -1.000000e+001
      vertex 1.439416e+001 3.856636e+000 0.000000e+000
      vertex 1.439416e+001 3.856636e+000 -1.000000e+001
    endloop
  endfacet
  facet normal -7.933794e-001 -6.087275e-001 0.000000e+000
    outer loop
      vertex 1.290564e+001 7.450531e+000 -1.000000e+001
      vertex 1.290564e+001 7.450531e+000 0.000000e+000
      vertex 1.053766e+001 1.053682e+001 0.000000e+000
    endloop
  endfacet
  facet normal -9.238907e-001 -3.826565e-001 0.000000e+000
    outer loop
      vertex 1.439416e+001 3.856636e+000 -1.000000e+001
      vertex 1.290564e+001 7.450531e+000 0.000000e+000
      vertex 1.290564e+001 7.450531e+000 -1.000000e+001
    endloop
  endfacet
  facet normal -6.087991e-001 -7.933244e-001 0.000000e+000
    outer loop
      vertex 1.053766e+001 1.053682e+001 -1.000000e+001
      vertex 1.053766e+001 1.053682e+001 0.000000e+000
      vertex 7.451475e+000 1.290516e+001 0.000000e+000
    endloop
  endfacet
  facet normal -7.933794e-001 -6.087275e-001 0.000000e+000
    outer loop
      vertex 1.290564e+001 7.450531e+000 -1.000000e+001
      vertex 1.053766e+001 1.053682e+001 0.000000e+000
      vertex 1.053766e+001 1.053682e+001 -1.000000e+001
    endloop
  endfacet
  facet normal -3.827202e-001 -9.238643e-001 0.000000e+000
    outer loop
      vertex 7.451475e+000 1.290516e+001 -1.000000e+001
      vertex 7.451475e+000 1.290516e+001 0.000000e+000
      vertex 3.857300e+000 1.439408e+001 0.000000e+000
    endloop
  endfacet
  facet normal -6.087991e-001 -7.933244e-001 0.000000e+000
    outer loop
      vertex 1.053766e+001 1.053682e+001 -1.000000e+001
      vertex 7.451475e+000 1.290516e+001 0.000000e+000
      vertex 7.451475e+000 1.290516e+001 -1.000000e+001
    endloop
  endfacet
  facet normal -1.305425e-001 -9.914427e-001 0.000000e+000
    outer loop
      vertex 3.857300e+000 1.439408e+001 -1.000000e+001
      vertex 3.857300e+000 1.439408e+001 0.000000e+000
      vertex -8.509213e-015 1.490197e+001 0.000000e+000
    endloop
  endfacet
  facet normal -3.827202e-001 -9.238643e-001 0.000000e+000
    outer loop
      vertex 7.451475e+000 1.290516e+001 -1.000000e+001
      vertex 3.857300e+000 1.439408e+001 0.000000e+000
      vertex 3.857300e+000 1.439408e+001 -1.000000e+001
    endloop
  endfacet
  facet normal 0.000000e+000 0.000000e+000 1.000000e+000
    outer loop
      vertex 2.825660e+000 9.509726e+000 0.000000e+000
      vertex 2.851020e+000 1.433482e+001 0.000000e+000
      vertex -8.509213e-015 1.490197e+001 0.000000e+000
    endloop
  endfacet
  facet normal 1.951065e-001 9.807821e-001 3.078238e-032
    outer loop
      vertex -8.509213e-015 1.490197e+001 -1.000000e+001
      vertex -8.509213e-015 1.490197e+001 0.000000e+000
      vertex 2.851020e+000 1.433482e+001 0.000000e+000
    endloop
  endfacet
  facet normal 0.000000e+000 0.000000e+000 1.000000e+000
    outer loop
      vertex 1.631749e+000 1.070364e+001 0.000000e+000
      vertex 2.825660e+000 9.509726e+000 0.000000e+000
      vertex -8.509213e-015 1.490197e+001 0.000000e+000
    endloop
  endfacet
  facet normal 0.000000e+000 0.000000e+000 1.000000e+000
    outer loop
      vertex 1.997981e-016 1.114103e+001 0.000000e+000
      vertex 1.631749e+000 1.070364e+001 0.000000e+000
      vertex -8.509213e-015 1.490197e+001 0.000000e+000
    endloop
  endfacet
  facet normal -1.305425e-001 -9.914427e-001 0.000000e+000
    outer loop
      vertex 3.857300e+000 1.439408e+001 -1.000000e+001
      vertex -8.509213e-015 1.490197e+001 0.000000e+000
      vertex -8.509213e-015 1.490197e+001 -1.000000e+001
    endloop
  endfacet
  facet normal 0.000000e+000 0.000000e+000 1.000000e+000
    outer loop
      vertex 5.268964e+000 2.182768e+000 0.000000e+000
      vertex 5.268964e+000 1.271920e+001 0.000000e+000
      vertex 2.851020e+000 1.433482e+001 0.000000e+000
    endloop
  endfacet
  facet normal 5.555697e-001 8.314700e-001 0.000000e+000
    outer loop
      vertex 2.851020e+000 1.433482e+001 -1.000000e+001
      vertex 2.851020e+000 1.433482e+001 0.000000e+000
      vertex 5.268964e+000 1.271920e+001 0.000000e+000
    endloop
  endfacet
  facet normal 0.000000e+000 0.000000e+000 1.000000e+000
    outer loop
      vertex 3.263058e+000 7.877977e+000 0.000000e+000
      vertex 5.268964e+000 2.182768e+000 0.000000e+000
      vertex 2.851020e+000 1.433482e+001 0.000000e+000
    endloop
  endfacet
  facet normal 0.000000e+000 0.000000e+000 1.000000e+000
    outer loop
      vertex 2.825660e+000 9.509726e+000 0.000000e+000
      vertex 3.263058e+000 7.877977e+000 0.000000e+000
      vertex 2.851020e+000 1.433482e+001 0.000000e+000
    endloop
  endfacet
  facet normal 1.951065e-001 9.807821e-001 0.000000e+000
    outer loop
      vertex -8.509213e-015 1.490197e+001 -1.000000e+001
      vertex 2.851020e+000 1.433482e+001 0.000000e+000
      vertex 2.851020e+000 1.433482e+001 -1.000000e+001
    endloop
  endfacet
  facet normal 0.000000e+000 0.000000e+000 1.000000e+000
    outer loop
      vertex 6.883614e+000 4.599201e+000 0.000000e+000
      vertex 6.883614e+000 1.030277e+001 0.000000e+000
      vertex 5.268964e+000 1.271920e+001 0.000000e+000
    endloop
  endfacet
  facet normal 8.314630e-001 5.555801e-001 0.000000e+000
    outer loop
      vertex 5.268964e+000 1.271920e+001 -1.000000e+001
      vertex 5.268964e+000 1.271920e+001 0.000000e+000
      vertex 6.883614e+000 1.030277e+001 0.000000e+000
    endloop
  endfacet
  facet normal 0.000000e+000 0.000000e+000 1.000000e+000
    outer loop
      vertex 5.268964e+000 2.182768e+000 0.000000e+000
      vertex 6.883614e+000 4.599201e+000 0.000000e+000
      vertex 5.268964e+000 1.271920e+001 0.000000e+000
    endloop
  endfacet
  facet normal 5.555697e-001 8.314700e-001 0.000000e+000
    outer loop
      vertex 2.851020e+000 1.433482e+001 -1.000000e+001
      vertex 5.268964e+000 1.271920e+001 0.000000e+000
      vertex 5.268964e+000 1.271920e+001 -1.000000e+001
    endloop
  endfacet
  facet normal 0.000000e+000 0.000000e+000 1.000000e+000
    outer loop
      vertex 6.883614e+000 4.599201e+000 0.000000e+000
      vertex 7.450856e+000 7.450986e+000 0.000000e+000
      vertex 6.883614e+000 1.030277e+001 0.000000e+000
    endloop
  endfacet
  facet normal 9.807862e-001 1.950858e-001 0.000000e+000
    outer loop
      vertex 6.883614e+000 1.030277e+001 -1.000000e+001
      vertex 6.883614e+000 1.030277e+001 0.000000e+000
      vertex 7.450856e+000 7.450986e+000 0.000000e+000
    endloop
  endfacet
  facet normal 8.314630e-001 5.555801e-001 0.000000e+000
    outer loop
      vertex 5.268964e+000 1.271920e+001 -1.000000e+001
      vertex 6.883614e+000 1.030277e+001 0.000000e+000
      vertex 6.883614e+000 1.030277e+001 -1.000000e+001
    endloop
  endfacet
  facet normal 9.807862e-001 -1.950858e-001 0.000000e+000
    outer loop
      vertex 7.450856e+000 7.450986e+000 -1.000000e+001
      vertex 7.450856e+000 7.450986e+000 0.000000e+000
      vertex 6.883614e+000 4.599201e+000 0.000000e+000
    endloop
  endfacet
  facet normal 9.807862e-001 1.950858e-001 0.000000e+000
    outer loop
      vertex 6.883614e+000 1.030277e+001 -1.000000e+001
      vertex 7.450856e+000 7.450986e+000 0.000000e+000
      vertex 7.450856e+000 7.450986e+000 -1.000000e+001
    endloop
  endfacet
  facet normal 8.314630e-001 -5.555801e-001 0.000000e+000
    outer loop
      vertex 6.883614e+000 4.599201e+000 -1.000000e+001
      vertex 6.883614e+000 4.599201e+000 0.000000e+000
      vertex 5.268964e+000 2.182768e+000 0.000000e+000
    endloop
  endfacet
  facet normal 9.807862e-001 -1.950858e-001 0.000000e+000
    outer loop
      vertex 7.450856e+000 7.450986e+000 -1.000000e+001
      vertex 6.883614e+000 4.599201e+000 0.000000e+000
      vertex 6.883614e+000 4.599201e+000 -1.000000e+001
    endloop
  endfacet
  facet normal 0.000000e+000 0.000000e+000 1.000000e+000
    outer loop
      vertex 3.263058e+000 7.877977e+000 0.000000e+000
      vertex 2.851020e+000 5.671521e-001 0.000000e+000
      vertex 5.268964e+000 2.182768e+000 0.000000e+000
    endloop
  endfacet
  facet normal 5.555697e-001 -8.314700e-001 0.000000e+000
    outer loop
      vertex 5.268964e+000 2.182768e+000 -1.000000e+001
      vertex 5.268964e+000 2.182768e+000 0.000000e+000
      vertex 2.851020e+000 5.671521e-001 0.000000e+000
    endloop
  endfacet
  facet normal 8.314630e-001 -5.555801e-001 0.000000e+000
    outer loop
      vertex 6.883614e+000 4.599201e+000 -1.000000e+001
      vertex 5.268964e+000 2.182768e+000 0.000000e+000
      vertex 5.268964e+000 2.182768e+000 -1.000000e+001
    endloop
  endfacet
  facet normal 0.000000e+000 0.000000e+000 1.000000e+000
    outer loop
      vertex -5.993942e-016 4.614919e+000 0.000000e+000
      vertex -4.562262e-016 0.000000e+000 0.000000e+000
      vertex 2.851020e+000 5.671521e-001 0.000000e+000
    endloop
  endfacet
  facet normal 1.951065e-001 -9.807821e-001 0.000000e+000
    outer loop
      vertex 2.851020e+000 5.671521e-001 -1.000000e+001
      vertex 2.851020e+000 5.671521e-001 0.000000e+000
      vertex -4.562262e-016 0.000000e+000 0.000000e+000
    endloop
  endfacet
  facet normal 0.000000e+000 0.000000e+000 1.000000e+000
    outer loop
      vertex 2.825660e+000 6.246228e+000 0.000000e+000
      vertex 2.851020e+000 5.671521e-001 0.000000e+000
      vertex 3.263058e+000 7.877977e+000 0.000000e+000
    endloop
  endfacet
  facet normal 0.000000e+000 0.000000e+000 1.000000e+000
    outer loop
      vertex 1.631749e+000 5.052316e+000 0.000000e+000
      vertex -5.993942e-016 4.614919e+000 0.000000e+000
      vertex 2.851020e+000 5.671521e-001 0.000000e+000
    endloop
  endfacet
  facet normal 0.000000e+000 0.000000e+000 1.000000e+000
    outer loop
      vertex 2.825660e+000 6.246228e+000 0.000000e+000
      vertex 1.631749e+000 5.052316e+000 0.000000e+000
      vertex 2.851020e+000 5.671521e-001 0.000000e+000
    endloop
  endfacet
  facet normal 5.555697e-001 -8.314700e-001 0.000000e+000
    outer loop
      vertex 5.268964e+000 2.182768e+000 -1.000000e+001
      vertex 2.851020e+000 5.671521e-001 0.000000e+000
      vertex 2.851020e+000 5.671521e-001 -1.000000e+001
    endloop
  endfacet
  facet normal 0.000000e+000 0.000000e+000 1.000000e+000
    outer loop
      vertex -2.825660e+000 6.246228e+000 0.000000e+000
      vertex -2.851020e+000 -5.671521e-001 0.000000e+000
      vertex -4.562262e-016 0.000000e+000 0.000000e+000
    endloop
  endfacet
  facet normal 1.951065e-001 -9.807821e-001 0.000000e+000
    outer loop
      vertex -4.562262e-016 0.000000e+000 -1.000000e+001
      vertex -4.562262e-016 0.000000e+000 0.000000e+000
      vertex -2.851020e+000 -5.671521e-001 0.000000e+000
    endloop
  endfacet
  facet normal 0.000000e+000 0.000000e+000 1.000000e+000
    outer loop
      vertex -1.631749e+000 5.052316e+000 0.000000e+000
      vertex -2.825660e+000 6.246228e+000 0.000000e+000
      vertex -4.562262e-016 0.000000e+000 0.000000e+000
    endloop
  endfacet
  facet normal 0.000000e+000 0.000000e+000 1.000000e+000
    outer loop
      vertex -5.993942e-016 4.614919e+000 0.000000e+000
      vertex -1.631749e+000 5.052316e+000 0.000000e+000
      vertex -4.562262e-016 0.000000e+000 0.000000e+000
    endloop
  endfacet
  facet normal 1.951065e-001 -9.807821e-001 0.000000e+000
    outer loop
      vertex 2.851020e+000 5.671521e-001 -1.000000e+001
      vertex -4.562262e-016 0.000000e+000 0.000000e+000
      vertex -4.562262e-016 0.000000e+000 -1.000000e+001
    endloop
  endfacet
  facet normal 5.555697e-001 -8.314700e-001 0.000000e+000
    outer loop
      vertex -2.851020e+000 -5.671521e-001 -1.000000e+001
      vertex -2.851020e+000 -5.671521e-001 0.000000e+000
      vertex -5.268964e+000 -2.182768e+000 0.000000e+000
    endloop
  endfacet
  facet normal 0.000000e+000 0.000000e+000 1.000000e+000
    outer loop
      vertex -2.825660e+000 6.246228e+000 0.000000e+000
      vertex -3.263058e+000 7.877977e+000 0.000000e+000
      vertex -2.851020e+000 -5.671521e-001 0.000000e+000
    endloop
  endfacet
  facet normal 1.951065e-001 -9.807821e-001 0.000000e+000
    outer loop
      vertex -4.562262e-016 0.000000e+000 -1.000000e+001
      vertex -2.851020e+000 -5.671521e-001 0.000000e+000
      vertex -2.851020e+000 -5.671521e-001 -1.000000e+001
    endloop
  endfacet
  facet normal 8.314630e-001 -5.555801e-001 0.000000e+000
    outer loop
      vertex -5.268964e+000 -2.182768e+000 -1.000000e+001
      vertex -5.268964e+000 -2.182768e+000 0.000000e+000
      vertex -6.883614e+000 -4.599201e+000 0.000000e+000
    endloop
  endfacet
  facet normal 5.555697e-001 -8.314700e-001 0.000000e+000
    outer loop
      vertex -2.851020e+000 -5.671521e-001 -1.000000e+001
      vertex -5.268964e+000 -2.182768e+000 0.000000e+000
      vertex -5.268964e+000 -2.182768e+000 -1.000000e+001
    endloop
  endfacet
  facet normal 9.807862e-001 -1.950858e-001 0.000000e+000
    outer loop
      vertex -6.883614e+000 -4.599201e+000 -1.000000e+001
      vertex -6.883614e+000 -4.599201e+000 0.000000e+000
      vertex -7.450856e+000 -7.450986e+000 0.000000e+000
    endloop
  endfacet
  facet normal 8.314630e-001 -5.555801e-001 0.000000e+000
    outer loop
      vertex -5.268964e+000 -2.182768e+000 -1.000000e+001
      vertex -6.883614e+000 -4.599201e+000 0.000000e+000
      vertex -6.883614e+000 -4.599201e+000 -1.000000e+001
    endloop
  endfacet
  facet normal 9.807862e-001 1.950858e-001 0.000000e+000
    outer loop
      vertex -7.450856e+000 -7.450986e+000 -1.000000e+001
      vertex -7.450856e+000 -7.450986e+000 0.000000e+000
      vertex -6.883614e+000 -1.030277e+001 0.000000e+000
    endloop
  endfacet
  facet normal 9.807862e-001 -1.950858e-001 0.000000e+000
    outer loop
      vertex -6.883614e+000 -4.599201e+000 -1.000000e+001
      vertex -7.450856e+000 -7.450986e+000 0.000000e+000
      vertex -7.450856e+000 -7.450986e+000 -1.000000e+001
    endloop
  endfacet
  facet normal 8.314630e-001 5.555801e-001 0.000000e+000
    outer loop
      vertex -6.883614e+000 -1.030277e+001 -1.000000e+001
      vertex -6.883614e+000 -1.030277e+001 0.000000e+000
      vertex -5.268964e+000 -1.271920e+001 0.000000e+000
    endloop
  endfacet
  facet normal 9.807862e-001 1.950858e-001 0.000000e+000
    outer loop
      vertex -7.450856e+000 -7.450986e+000 -1.000000e+001
      vertex -6.883614e+000 -1.030277e+001 0.000000e+000
      vertex -6.883614e+000 -1.030277e+001 -1.000000e+001
    endloop
  endfacet
  facet normal 5.555697e-001 8.314700e-001 0.000000e+000
    outer loop
      vertex -5.268964e+000 -1.271920e+001 -1.000000e+001
      vertex -5.268964e+000 -1.271920e+001 0.000000e+000
      vertex -2.851020e+000 -1.433482e+001 0.000000e+000
    endloop
  endfacet
  facet normal 8.314630e-001 5.555801e-001 0.000000e+000
    outer loop
      vertex -6.883614e+000 -1.030277e+001 -1.000000e+001
      vertex -5.268964e+000 -1.271920e+001 0.000000e+000
      vertex -5.268964e+000 -1.271920e+001 -1.000000e+001
    endloop
  endfacet
  facet normal 5.555697e-001 8.314700e-001 0.000000e+000
    outer loop
      vertex -5.268964e+000 -1.271920e+001 -1.000000e+001
      vertex -2.851020e+000 -1.433482e+001 0.000000e+000
      vertex -2.851020e+000 -1.433482e+001 -1.000000e+001
    endloop
  endfacet
  facet normal -9.659004e-001 -2.589138e-001 -4.599232e-017
    outer loop
      vertex 3.263058e+000 7.877977e+000 -1.000000e+001
      vertex 3.263058e+000 7.877977e+000 0.000000e+000
      vertex 2.825660e+000 9.509726e+000 0.000000e+000
    endloop
  endfacet
  facet normal -9.659004e-001 2.589138e-001 0.000000e+000
    outer loop
      vertex 2.825660e+000 6.246228e+000 -1.000000e+001
      vertex 2.825660e+000 6.246228e+000 0.000000e+000
      vertex 3.263058e+000 7.877977e+000 0.000000e+000
    endloop
  endfacet
  facet normal -9.659004e-001 2.589138e-001 4.600312e-017
    outer loop
      vertex 2.825660e+000 6.246228e+000 -1.000000e+001
      vertex 3.263058e+000 7.877977e+000 0.000000e+000
      vertex 3.263058e+000 7.877977e+000 -1.000000e+001
    endloop
  endfacet
  facet normal -7.071068e-001 -7.071068e-001 0.000000e+000
    outer loop
      vertex 2.825660e+000 9.509726e+000 -1.000000e+001
      vertex 2.825660e+000 9.509726e+000 0.000000e+000
      vertex 1.631749e+000 1.070364e+001 0.000000e+000
    endloop
  endfacet
  facet normal -9.659004e-001 -2.589138e-001 0.000000e+000
    outer loop
      vertex 2.825660e+000 9.509726e+000 -1.000000e+001
      vertex 3.263058e+000 7.877977e+000 -1.000000e+001
      vertex 2.825660e+000 9.509726e+000 0.000000e+000
    endloop
  endfacet
  facet normal -2.589138e-001 -9.659004e-001 0.000000e+000
    outer loop
      vertex 1.631749e+000 1.070364e+001 -1.000000e+001
      vertex 1.631749e+000 1.070364e+001 0.000000e+000
      vertex 1.997981e-016 1.114103e+001 0.000000e+000
    endloop
  endfacet
  facet normal -7.071068e-001 -7.071068e-001 0.000000e+000
    outer loop
      vertex 2.825660e+000 9.509726e+000 -1.000000e+001
      vertex 1.631749e+000 1.070364e+001 0.000000e+000
      vertex 1.631749e+000 1.070364e+001 -1.000000e+001
    endloop
  endfacet
  facet normal 2.589138e-001 -9.659004e-001 0.000000e+000
    outer loop
      vertex 1.997981e-016 1.114103e+001 -1.000000e+001
      vertex 1.997981e-016 1.114103e+001 0.000000e+000
      vertex -1.631749e+000 1.070364e+001 0.000000e+000
    endloop
  endfacet
  facet normal -2.589138e-001 -9.659004e-001 0.000000e+000
    outer loop
      vertex 1.631749e+000 1.070364e+001 -1.000000e+001
      vertex 1.997981e-016 1.114103e+001 0.000000e+000
      vertex 1.997981e-016 1.114103e+001 -1.000000e+001
    endloop
  endfacet
  facet normal 7.071068e-001 -7.071068e-001 0.000000e+000
    outer loop
      vertex -1.631749e+000 1.070364e+001 -1.000000e+001
      vertex -1.631749e+000 1.070364e+001 0.000000e+000
      vertex -2.825660e+000 9.509726e+000 0.000000e+000
    endloop
  endfacet
  facet normal 2.589138e-001 -9.659004e-001 0.000000e+000
    outer loop
      vertex 1.997981e-016 1.114103e+001 -1.000000e+001
      vertex -1.631749e+000 1.070364e+001 0.000000e+000
      vertex -1.631749e+000 1.070364e+001 -1.000000e+001
    endloop
  endfacet
  facet normal 9.659004e-001 -2.589138e-001 0.000000e+000
    outer loop
      vertex -2.825660e+000 9.509726e+000 -1.000000e+001
      vertex -2.825660e+000 9.509726e+000 0.000000e+000
      vertex -3.263058e+000 7.877977e+000 0.000000e+000
    endloop
  endfacet
  facet normal 7.071068e-001 -7.071068e-001 0.000000e+000
    outer loop
      vertex -1.631749e+000 1.070364e+001 -1.000000e+001
      vertex -2.825660e+000 9.509726e+000 0.000000e+000
      vertex -2.825660e+000 9.509726e+000 -1.000000e+001
    endloop
  endfacet
  facet normal 9.659004e-001 2.589138e-001 -2.299616e-017
    outer loop
      vertex -3.263058e+000 7.877977e+000 -1.000000e+001
      vertex -3.263058e+000 7.877977e+000 0.000000e+000
      vertex -2.825660e+000 6.246228e+000 0.000000e+000
    endloop
  endfacet
  facet normal 9.659004e-001 -2.589138e-001 1.971562e-017
    outer loop
      vertex -2.825660e+000 9.509726e+000 -1.000000e+001
      vertex -3.263058e+000 7.877977e+000 0.000000e+000
      vertex -3.263058e+000 7.877977e+000 -1.000000e+001
    endloop
  endfacet
  facet normal 7.071068e-001 7.071068e-001 -3.140185e-017
    outer loop
      vertex -2.825660e+000 6.246228e+000 -1.000000e+001
      vertex -2.825660e+000 6.246228e+000 0.000000e+000
      vertex -1.631749e+000 5.052316e+000 0.000000e+000
    endloop
  endfacet
  facet normal 9.659004e-001 2.589138e-001 1.971562e-017
    outer loop
      vertex -3.263058e+000 7.877977e+000 -1.000000e+001
      vertex -2.825660e+000 6.246228e+000 0.000000e+000
      vertex -2.825660e+000 6.246228e+000 -1.000000e+001
    endloop
  endfacet
  facet normal 2.589138e-001 9.659004e-001 1.149808e-017
    outer loop
      vertex -1.631749e+000 5.052316e+000 -1.000000e+001
      vertex -1.631749e+000 5.052316e+000 0.000000e+000
      vertex -5.993942e-016 4.614919e+000 0.000000e+000
    endloop
  endfacet
  facet normal 7.071068e-001 7.071068e-001 3.945249e-017
    outer loop
      vertex -2.825660e+000 6.246228e+000 -1.000000e+001
      vertex -1.631749e+000 5.052316e+000 0.000000e+000
      vertex -1.631749e+000 5.052316e+000 -1.000000e+001
    endloop
  endfacet
  facet normal -2.589138e-001 9.659004e-001 0.000000e+000
    outer loop
      vertex -5.993942e-016 4.614919e+000 -1.000000e+001
      vertex -5.993942e-016 4.614919e+000 0.000000e+000
      vertex 1.631749e+000 5.052316e+000 0.000000e+000
    endloop
  endfacet
  facet normal 2.589138e-001 9.659004e-001 0.000000e+000
    outer loop
      vertex -1.631749e+000 5.052316e+000 -1.000000e+001
      vertex -5.993942e-016 4.614919e+000 0.000000e+000
      vertex -5.993942e-016 4.614919e+000 -1.000000e+001
    endloop
  endfacet
  facet normal -7.071068e-001 7.071068e-001 0.000000e+000
    outer loop
      vertex 1.631749e+000 5.052316e+000 -1.000000e+001
      vertex 1.631749e+000 5.052316e+000 0.000000e+000
      vertex 2.825660e+000 6.246228e+000 0.000000e+000
    endloop
  endfacet
  facet normal -2.589138e-001 9.659004e-001 0.000000e+000
    outer loop
      vertex -5.993942e-016 4.614919e+000 -1.000000e+001
      vertex 1.631749e+000 5.052316e+000 0.000000e+000
      vertex 1.631749e+000 5.052316e+000 -1.000000e+001
    endloop
  endfacet
  facet normal -7.071068e-001 7.071068e-001 0.000000e+000
    outer loop
      vertex 1.631749e+000 5.052316e+000 -1.000000e+001
      vertex 2.825660e+000 6.246228e+000 0.000000e+000
      vertex 2.825660e+000 6.246228e+000 -1.000000e+001
    endloop
  endfacet
  facet normal 0.000000e+000 0.000000e+000 -1.000000e+000
    outer loop
      vertex 3.857300e+000 -1.439408e+001 -1.000000e+001
      vertex 3.882926e+000 -1.448867e+001 -1.000000e+001
      vertex 1.836910e-015 -1.500000e+001 -1.000000e+001
    endloop
  endfacet
  facet normal 0.000000e+000 0.000000e+000 -1.000000e+000
    outer loop
      vertex -1.987597e-015 -1.490197e+001 -1.000000e+001
      vertex 1.836910e-015 -1.500000e+001 -1.000000e+001
      vertex -3.882926e+000 -1.448867e+001 -1.000000e+001
    endloop
  endfacet
  facet normal 0.000000e+000 0.000000e+000 -1.000000e+000
    outer loop
      vertex 3.857300e+000 -1.439408e+001 -1.000000e+001
      vertex 1.836910e-015 -1.500000e+001 -1.000000e+001
      vertex -1.987597e-015 -1.490197e+001 -1.000000e+001
    endloop
  endfacet
  facet normal 0.000000e+000 0.000000e+000 -1.000000e+000
    outer loop
      vertex 7.451475e+000 -1.290516e+001 -1.000000e+001
      vertex 7.500410e+000 -1.299001e+001 -1.000000e+001
      vertex 3.882926e+000 -1.448867e+001 -1.000000e+001
    endloop
  endfacet
  facet normal 0.000000e+000 0.000000e+000 -1.000000e+000
    outer loop
      vertex 3.857300e+000 -1.439408e+001 -1.000000e+001
      vertex 7.451475e+000 -1.290516e+001 -1.000000e+001
      vertex 3.882926e+000 -1.448867e+001 -1.000000e+001
    endloop
  endfacet
  facet normal 0.000000e+000 0.000000e+000 -1.000000e+000
    outer loop
      vertex 1.053766e+001 -1.053682e+001 -1.000000e+001
      vertex 1.060650e+001 -1.060650e+001 -1.000000e+001
      vertex 7.500410e+000 -1.299001e+001 -1.000000e+001
    endloop
  endfacet
  facet normal 0.000000e+000 0.000000e+000 -1.000000e+000
    outer loop
      vertex 7.451475e+000 -1.290516e+001 -1.000000e+001
      vertex 1.053766e+001 -1.053682e+001 -1.000000e+001
      vertex 7.500410e+000 -1.299001e+001 -1.000000e+001
    endloop
  endfacet
  facet normal 0.000000e+000 0.000000e+000 -1.000000e+000
    outer loop
      vertex 1.290564e+001 -7.450531e+000 -1.000000e+001
      vertex 1.299001e+001 -7.500410e+000 -1.000000e+001
      vertex 1.060650e+001 -1.060650e+001 -1.000000e+001
    endloop
  endfacet
  facet normal 0.000000e+000 0.000000e+000 -1.000000e+000
    outer loop
      vertex 1.053766e+001 -1.053682e+001 -1.000000e+001
      vertex 1.290564e+001 -7.450531e+000 -1.000000e+001
      vertex 1.060650e+001 -1.060650e+001 -1.000000e+001
    endloop
  endfacet
  facet normal 0.000000e+000 0.000000e+000 -1.000000e+000
    outer loop
      vertex 1.439416e+001 -3.856636e+000 -1.000000e+001
      vertex 1.448867e+001 -3.882926e+000 -1.000000e+001
      vertex 1.299001e+001 -7.500410e+000 -1.000000e+001
    endloop
  endfacet
  facet normal 0.000000e+000 0.000000e+000 -1.000000e+000
    outer loop
      vertex 1.290564e+001 -7.450531e+000 -1.000000e+001
      vertex 1.439416e+001 -3.856636e+000 -1.000000e+001
      vertex 1.299001e+001 -7.500410e+000 -1.000000e+001
    endloop
  endfacet
  facet normal 0.000000e+000 0.000000e+000 -1.000000e+000
    outer loop
      vertex 1.490185e+001 -2.775558e-015 -1.000000e+001
      vertex 1.500000e+001 2.755364e-015 -1.000000e+001
      vertex 1.448867e+001 -3.882926e+000 -1.000000e+001
    endloop
  endfacet
  facet normal 0.000000e+000 0.000000e+000 -1.000000e+000
    outer loop
      vertex 1.439416e+001 -3.856636e+000 -1.000000e+001
      vertex 1.490185e+001 -2.775558e-015 -1.000000e+001
      vertex 1.448867e+001 -3.882926e+000 -1.000000e+001
    endloop
  endfacet
  facet normal 0.000000e+000 0.000000e+000 -1.000000e+000
    outer loop
      vertex 1.490185e+001 -2.775558e-015 -1.000000e+001
      vertex 1.448867e+001 3.882926e+000 -1.000000e+001
      vertex 1.500000e+001 2.755364e-015 -1.000000e+001
    endloop
  endfacet
  facet normal 0.000000e+000 0.000000e+000 -1.000000e+000
    outer loop
      vertex 1.439416e+001 3.856636e+000 -1.000000e+001
      vertex 1.299001e+001 7.500410e+000 -1.000000e+001
      vertex 1.448867e+001 3.882926e+000 -1.000000e+001
    endloop
  endfacet
  facet normal 0.000000e+000 0.000000e+000 -1.000000e+000
    outer loop
      vertex 1.490185e+001 -2.775558e-015 -1.000000e+001
      vertex 1.439416e+001 3.856636e+000 -1.000000e+001
      vertex 1.448867e+001 3.882926e+000 -1.000000e+001
    endloop
  endfacet
  facet normal 0.000000e+000 0.000000e+000 -1.000000e+000
    outer loop
      vertex 1.290564e+001 7.450531e+000 -1.000000e+001
      vertex 1.060650e+001 1.060650e+001 -1.000000e+001
      vertex 1.299001e+001 7.500410e+000 -1.000000e+001
    endloop
  endfacet
  facet normal 0.000000e+000 0.000000e+000 -1.000000e+000
    outer loop
      vertex 1.439416e+001 3.856636e+000 -1.000000e+001
      vertex 1.290564e+001 7.450531e+000 -1.000000e+001
      vertex 1.299001e+001 7.500410e+000 -1.000000e+001
    endloop
  endfacet
  facet normal 0.000000e+000 0.000000e+000 -1.000000e+000
    outer loop
      vertex 1.053766e+001 1.053682e+001 -1.000000e+001
      vertex 7.500410e+000 1.299001e+001 -1.000000e+001
      vertex 1.060650e+001 1.060650e+001 -1.000000e+001
    endloop
  endfacet
  facet normal 0.000000e+000 0.000000e+000 -1.000000e+000
    outer loop
      vertex 1.290564e+001 7.450531e+000 -1.000000e+001
      vertex 1.053766e+001 1.053682e+001 -1.000000e+001
      vertex 1.060650e+001 1.060650e+001 -1.000000e+001
    endloop
  endfacet
  facet normal 0.000000e+000 0.000000e+000 -1.000000e+000
    outer loop
      vertex 7.451475e+000 1.290516e+001 -1.000000e+001
      vertex 3.882926e+000 1.448867e+001 -1.000000e+001
      vertex 7.500410e+000 1.299001e+001 -1.000000e+001
    endloop
  endfacet
  facet normal 0.000000e+000 0.000000e+000 -1.000000e+000
    outer loop
      vertex 1.053766e+001 1.053682e+001 -1.000000e+001
      vertex 7.451475e+000 1.290516e+001 -1.000000e+001
      vertex 7.500410e+000 1.299001e+001 -1.000000e+001
    endloop
  endfacet
  facet normal 0.000000e+000 0.000000e+000 -1.000000e+000
    outer loop
      vertex -8.509213e-015 1.490197e+001 -1.000000e+001
      vertex -1.836910e-015 1.500000e+001 -1.000000e+001
      vertex 3.882926e+000 1.448867e+001 -1.000000e+001
    endloop
  endfacet
  facet normal 0.000000e+000 0.000000e+000 -1.000000e+000
    outer loop
      vertex 3.857300e+000 1.439408e+001 -1.000000e+001
      vertex -8.509213e-015 1.490197e+001 -1.000000e+001
      vertex 3.882926e+000 1.448867e+001 -1.000000e+001
    endloop
  endfacet
  facet normal 0.000000e+000 0.000000e+000 -1.000000e+000
    outer loop
      vertex 7.451475e+000 1.290516e+001 -1.000000e+001
      vertex 3.857300e+000 1.439408e+001 -1.000000e+001
      vertex 3.882926e+000 1.448867e+001 -1.000000e+001
    endloop
  endfacet
  facet normal 0.000000e+000 0.000000e+000 -1.000000e+000
    outer loop
      vertex -2.825660e+000 9.509726e+000 -1.000000e+001
      vertex -3.882926e+000 1.448867e+001 -1.000000e+001
      vertex -1.836910e-015 1.500000e+001 -1.000000e+001
    endloop
  endfacet
  facet normal 0.000000e+000 0.000000e+000 -1.000000e+000
    outer loop
      vertex -1.631749e+000 1.070364e+001 -1.000000e+001
      vertex -1.836910e-015 1.500000e+001 -1.000000e+001
      vertex -8.509213e-015 1.490197e+001 -1.000000e+001
    endloop
  endfacet
  facet normal 0.000000e+000 0.000000e+000 -1.000000e+000
    outer loop
      vertex -1.631749e+000 1.070364e+001 -1.000000e+001
      vertex -2.825660e+000 9.509726e+000 -1.000000e+001
      vertex -1.836910e-015 1.500000e+001 -1.000000e+001
    endloop
  endfacet
  facet normal 0.000000e+000 0.000000e+000 -1.000000e+000
    outer loop
      vertex -7.450856e+000 -7.450986e+000 -1.000000e+001
      vertex -7.500410e+000 1.299001e+001 -1.000000e+001
      vertex -3.882926e+000 1.448867e+001 -1.000000e+001
    endloop
  endfacet
  facet normal 0.000000e+000 0.000000e+000 -1.000000e+000
    outer loop
      vertex -6.883614e+000 -4.599201e+000 -1.000000e+001
      vertex -7.450856e+000 -7.450986e+000 -1.000000e+001
      vertex -3.882926e+000 1.448867e+001 -1.000000e+001
    endloop
  endfacet
  facet normal 0.000000e+000 0.000000e+000 -1.000000e+000
    outer loop
      vertex -5.268964e+000 -2.182768e+000 -1.000000e+001
      vertex -6.883614e+000 -4.599201e+000 -1.000000e+001
      vertex -3.882926e+000 1.448867e+001 -1.000000e+001
    endloop
  endfacet
  facet normal 0.000000e+000 0.000000e+000 -1.000000e+000
    outer loop
      vertex -3.263058e+000 7.877977e+000 -1.000000e+001
      vertex -5.268964e+000 -2.182768e+000 -1.000000e+001
      vertex -3.882926e+000 1.448867e+001 -1.000000e+001
    endloop
  endfacet
  facet normal 0.000000e+000 0.000000e+000 -1.000000e+000
    outer loop
      vertex -2.825660e+000 9.509726e+000 -1.000000e+001
      vertex -3.263058e+000 7.877977e+000 -1.000000e+001
      vertex -3.882926e+000 1.448867e+001 -1.000000e+001
    endloop
  endfacet
  facet normal 0.000000e+000 0.000000e+000 -1.000000e+000
    outer loop
      vertex -1.060650e+001 -1.060650e+001 -1.000000e+001
      vertex -1.060650e+001 1.060650e+001 -1.000000e+001
      vertex -7.500410e+000 1.299001e+001 -1.000000e+001
    endloop
  endfacet
  facet normal 0.000000e+000 0.000000e+000 -1.000000e+000
    outer loop
      vertex -7.500410e+000 -1.299001e+001 -1.000000e+001
      vertex -1.060650e+001 -1.060650e+001 -1.000000e+001
      vertex -7.500410e+000 1.299001e+001 -1.000000e+001
    endloop
  endfacet
  facet normal 0.000000e+000 0.000000e+000 -1.000000e+000
    outer loop
      vertex -7.450856e+000 -7.450986e+000 -1.000000e+001
      vertex -7.500410e+000 -1.299001e+001 -1.000000e+001
      vertex -7.500410e+000 1.299001e+001 -1.000000e+001
    endloop
  endfacet
  facet normal 0.000000e+000 0.000000e+000 -1.000000e+000
    outer loop
      vertex -1.299001e+001 -7.500410e+000 -1.000000e+001
      vertex -1.299001e+001 7.500410e+000 -1.000000e+001
      vertex -1.060650e+001 1.060650e+001 -1.000000e+001
    endloop
  endfacet
  facet normal 0.000000e+000 0.000000e+000 -1.000000e+000
    outer loop
      vertex -1.060650e+001 -1.060650e+001 -1.000000e+001
      vertex -1.299001e+001 -7.500410e+000 -1.000000e+001
      vertex -1.060650e+001 1.060650e+001 -1.000000e+001
    endloop
  endfacet
  facet normal 0.000000e+000 0.000000e+000 -1.000000e+000
    outer loop
      vertex -1.448867e+001 -3.882926e+000 -1.000000e+001
      vertex -1.448867e+001 3.882926e+000 -1.000000e+001
      vertex -1.299001e+001 7.500410e+000 -1.000000e+001
    endloop
  endfacet
  facet normal 0.000000e+000 0.000000e+000 -1.000000e+000
    outer loop
      vertex -1.299001e+001 -7.500410e+000 -1.000000e+001
      vertex -1.448867e+001 -3.882926e+000 -1.000000e+001
      vertex -1.299001e+001 7.500410e+000 -1.000000e+001
    endloop
  endfacet
  facet normal 0.000000e+000 0.000000e+000 -1.000000e+000
    outer loop
      vertex -1.448867e+001 -3.882926e+000 -1.000000e+001
      vertex -1.500000e+001 -9.184548e-016 -1.000000e+001
      vertex -1.448867e+001 3.882926e+000 -1.000000e+001
    endloop
  endfacet
  facet normal 0.000000e+000 0.000000e+000 -1.000000e+000
    outer loop
      vertex -5.268964e+000 -1.271920e+001 -1.000000e+001
      vertex -3.882926e+000 -1.448867e+001 -1.000000e+001
      vertex -7.500410e+000 -1.299001e+001 -1.000000e+001
    endloop
  endfacet
  facet normal 0.000000e+000 0.000000e+000 -1.000000e+000
    outer loop
      vertex -6.883614e+000 -1.030277e+001 -1.000000e+001
      vertex -5.268964e+000 -1.271920e+001 -1.000000e+001
      vertex -7.500410e+000 -1.299001e+001 -1.000000e+001
    endloop
  endfacet
  facet normal 0.000000e+000 0.000000e+000 -1.000000e+000
    outer loop
      vertex -7.450856e+000 -7.450986e+000 -1.000000e+001
      vertex -6.883614e+000 -1.030277e+001 -1.000000e+001
      vertex -7.500410e+000 -1.299001e+001 -1.000000e+001
    endloop
  endfacet
  facet normal 0.000000e+000 0.000000e+000 -1.000000e+000
    outer loop
      vertex -2.851020e+000 -1.433482e+001 -1.000000e+001
      vertex -1.987597e-015 -1.490197e+001 -1.000000e+001
      vertex -3.882926e+000 -1.448867e+001 -1.000000e+001
    endloop
  endfacet
  facet normal 0.000000e+000 0.000000e+000 -1.000000e+000
    outer loop
      vertex -5.268964e+000 -1.271920e+001 -1.000000e+001
      vertex -2.851020e+000 -1.433482e+001 -1.000000e+001
      vertex -3.882926e+000 -1.448867e+001 -1.000000e+001
    endloop
  endfacet
  facet normal 0.000000e+000 0.000000e+000 -1.000000e+000
    outer loop
      vertex -3.263058e+000 7.877977e+000 -1.000000e+001
      vertex -2.851020e+000 -5.671521e-001 -1.000000e+001
      vertex -5.268964e+000 -2.182768e+000 -1.000000e+001
    endloop
  endfacet
  facet normal 0.000000e+000 0.000000e+000 -1.000000e+000
    outer loop
      vertex -5.993942e-016 4.614919e+000 -1.000000e+001
      vertex -4.562262e-016 0.000000e+000 -1.000000e+001
      vertex -2.851020e+000 -5.671521e-001 -1.000000e+001
    endloop
  endfacet
  facet normal 0.000000e+000 0.000000e+000 -1.000000e+000
    outer loop
      vertex -1.631749e+000 5.052316e+000 -1.000000e+001
      vertex -5.993942e-016 4.614919e+000 -1.000000e+001
      vertex -2.851020e+000 -5.671521e-001 -1.000000e+001
    endloop
  endfacet
  facet normal 0.000000e+000 0.000000e+000 -1.000000e+000
    outer loop
      vertex -2.825660e+000 6.246228e+000 -1.000000e+001
      vertex -1.631749e+000 5.052316e+000 -1.000000e+001
      vertex -2.851020e+000 -5.671521e-001 -1.000000e+001
    endloop
  endfacet
  facet normal 0.000000e+000 0.000000e+000 -1.000000e+000
    outer loop
      vertex -3.263058e+000 7.877977e+000 -1.000000e+001
      vertex -2.825660e+000 6.246228e+000 -1.000000e+001
      vertex -2.851020e+000 -5.671521e-001 -1.000000e+001
    endloop
  endfacet
  facet normal 0.000000e+000 0.000000e+000 -1.000000e+000
    outer loop
      vertex 2.825660e+000 6.246228e+000 -1.000000e+001
      vertex 2.851020e+000 5.671521e-001 -1.000000e+001
      vertex -4.562262e-016 0.000000e+000 -1.000000e+001
    endloop
  endfacet
  facet normal 0.000000e+000 0.000000e+000 -1.000000e+000
    outer loop
      vertex 1.631749e+000 5.052316e+000 -1.000000e+001
      vertex 2.825660e+000 6.246228e+000 -1.000000e+001
      vertex -4.562262e-016 0.000000e+000 -1.000000e+001
    endloop
  endfacet
  facet normal 0.000000e+000 0.000000e+000 -1.000000e+000
    outer loop
      vertex -5.993942e-016 4.614919e+000 -1.000000e+001
      vertex 1.631749e+000 5.052316e+000 -1.000000e+001
      vertex -4.562262e-016 0.000000e+000 -1.000000e+001
    endloop
  endfacet
  facet normal 0.000000e+000 0.000000e+000 -1.000000e+000
    outer loop
      vertex 5.268964e+000 1.271920e+001 -1.000000e+001
      vertex 5.268964e+000 2.182768e+000 -1.000000e+001
      vertex 2.851020e+000 5.671521e-001 -1.000000e+001
    endloop
  endfacet
  facet normal 0.000000e+000 0.000000e+000 -1.000000e+000
    outer loop
      vertex 3.263058e+000 7.877977e+000 -1.000000e+001
      vertex 5.268964e+000 1.271920e+001 -1.000000e+001
      vertex 2.851020e+000 5.671521e-001 -1.000000e+001
    endloop
  endfacet
  facet normal 0.000000e+000 0.000000e+000 -1.000000e+000
    outer loop
      vertex 2.825660e+000 6.246228e+000 -1.000000e+001
      vertex 3.263058e+000 7.877977e+000 -1.000000e+001
      vertex 2.851020e+000 5.671521e-001 -1.000000e+001
    endloop
  endfacet
  facet normal 0.000000e+000 0.000000e+000 -1.000000e+000
    outer loop
      vertex 6.883614e+000 1.030277e+001 -1.000000e+001
      vertex 6.883614e+000 4.599201e+000 -1.000000e+001
      vertex 5.268964e+000 2.182768e+000 -1.000000e+001
    endloop
  endfacet
  facet normal 0.000000e+000 0.000000e+000 -1.000000e+000
    outer loop
      vertex 5.268964e+000 1.271920e+001 -1.000000e+001
      vertex 6.883614e+000 1.030277e+001 -1.000000e+001
      vertex 5.268964e+000 2.182768e+000 -1.000000e+001
    endloop
  endfacet
  facet normal 0.000000e+000 0.000000e+000 -1.000000e+000
    outer loop
      vertex 6.883614e+000 1.030277e+001 -1.000000e+001
      vertex 7.450856e+000 7.450986e+000 -1.000000e+001
      vertex 6.883614e+000 4.599201e+000 -1.000000e+001
    endloop
  endfacet
  facet normal 0.000000e+000 0.000000e+000 -1.000000e+000
    outer loop
      vertex 3.263058e+000 7.877977e+000 -1.000000e+001
      vertex 2.851020e+000 1.433482e+001 -1.000000e+001
      vertex 5.268964e+000 1.271920e+001 -1.000000e+001
    endloop
  endfacet
  facet normal 0.000000e+000 0.000000e+000 -1.000000e+000
    outer loop
      vertex 1.997981e-016 1.114103e+001 -1.000000e+001
      vertex -8.509213e-015 1.490197e+001 -1.000000e+001
      vertex 2.851020e+000 1.433482e+001 -1.000000e+001
    endloop
  endfacet
  facet normal 0.000000e+000 0.000000e+000 -1.000000e+000
    outer loop
      vertex 2.825660e+000 9.509726e+000 -1.000000e+001
      vertex 2.851020e+000 1.433482e+001 -1.000000e+001
      vertex 3.263058e+000 7.877977e+000 -1.000000e+001
    endloop
  endfacet
  facet normal 0.000000e+000 0.000000e+000 -1.000000e+000
    outer loop
      vertex 1.631749e+000 1.070364e+001 -1.000000e+001
      vertex 1.997981e-016 1.114103e+001 -1.000000e+001
      vertex 2.851020e+000 1.433482e+001 -1.000000e+001
    endloop
  endfacet
  facet normal 0.000000e+000 0.000000e+000 -1.000000e+000
    outer loop
      vertex 2.825660e+000 9.509726e+000 -1.000000e+001
      vertex 1.631749e+000 1.070364e+001 -1.000000e+001
      vertex 2.851020e+000 1.433482e+001 -1.000000e+001
    endloop
  endfacet
  facet normal 0.000000e+000 0.000000e+000 -1.000000e+000
    outer loop
      vertex 1.997981e-016 1.114103e+001 -1.000000e+001
      vertex -1.631749e+000 1.070364e+001 -1.000000e+001
      vertex -8.509213e-015 1.490197e+001 -1.000000e+001
    endloop
  endfacet
  facet normal 0.000000e+000 0.000000e+000 1.000000e+000
    outer loop
      vertex -2.831564e+000 -9.128489e+000 0.000000e+000
      vertex 2.831564e+000 -9.128489e+000 0.000000e+000
      vertex 3.269756e+000 -7.493685e+000 0.000000e+000
    endloop
  endfacet
  facet normal 9.659041e-001 -2.589000e-001 0.000000e+000
    outer loop
      vertex 3.269756e+000 -7.493685e+000 -1.000000e+001
      vertex 3.269756e+000 -7.493685e+000 0.000000e+000
      vertex 2.831564e+000 -9.128489e+000 0.000000e+000
    endloop
  endfacet
  facet normal 0.000000e+000 0.000000e+000 1.000000e+000
    outer loop
      vertex -3.269756e+000 -7.493685e+000 0.000000e+000
      vertex -2.831564e+000 -9.128489e+000 0.000000e+000
      vertex 3.269756e+000 -7.493685e+000 0.000000e+000
    endloop
  endfacet
  facet normal 0.000000e+000 0.000000e+000 1.000000e+000
    outer loop
      vertex 2.831564e+000 -5.858881e+000 0.000000e+000
      vertex -3.269756e+000 -7.493685e+000 0.000000e+000
      vertex 3.269756e+000 -7.493685e+000 0.000000e+000
    endloop
  endfacet
  facet normal 9.659041e-001 2.589000e-001 0.000000e+000
    outer loop
      vertex 2.831564e+000 -5.858881e+000 -1.000000e+001
      vertex 2.831564e+000 -5.858881e+000 0.000000e+000
      vertex 3.269756e+000 -7.493685e+000 0.000000e+000
    endloop
  endfacet
  facet normal 9.659041e-001 2.589000e-001 0.000000e+000
    outer loop
      vertex 2.831564e+000 -5.858881e+000 -1.000000e+001
      vertex 3.269756e+000 -7.493685e+000 0.000000e+000
      vertex 3.269756e+000 -7.493685e+000 -1.000000e+001
    endloop
  endfacet
  facet normal 0.000000e+000 0.000000e+000 1.000000e+000
    outer loop
      vertex -1.634878e+000 -1.032538e+001 0.000000e+000
      vertex 1.634878e+000 -1.032538e+001 0.000000e+000
      vertex 2.831564e+000 -9.128489e+000 0.000000e+000
    endloop
  endfacet
  facet normal 7.071661e-001 -7.070475e-001 0.000000e+000
    outer loop
      vertex 2.831564e+000 -9.128489e+000 -1.000000e+001
      vertex 2.831564e+000 -9.128489e+000 0.000000e+000
      vertex 1.634878e+000 -1.032538e+001 0.000000e+000
    endloop
  endfacet
  facet normal 0.000000e+000 0.000000e+000 1.000000e+000
    outer loop
      vertex -2.831564e+000 -9.128489e+000 0.000000e+000
      vertex -1.634878e+000 -1.032538e+001 0.000000e+000
      vertex 2.831564e+000 -9.128489e+000 0.000000e+000
    endloop
  endfacet
  facet normal 9.659041e-001 -2.589000e-001 0.000000e+000
    outer loop
      vertex 2.831564e+000 -9.128489e+000 -1.000000e+001
      vertex 3.269756e+000 -7.493685e+000 -1.000000e+001
      vertex 2.831564e+000 -9.128489e+000 0.000000e+000
    endloop
  endfacet
  facet normal 0.000000e+000 0.000000e+000 1.000000e+000
    outer loop
      vertex -1.634878e+000 -1.032538e+001 0.000000e+000
      vertex -5.828671e-016 -1.076329e+001 0.000000e+000
      vertex 1.634878e+000 -1.032538e+001 0.000000e+000
    endloop
  endfacet
  facet normal 2.587381e-001 -9.659475e-001 0.000000e+000
    outer loop
      vertex 1.634878e+000 -1.032538e+001 -1.000000e+001
      vertex 1.634878e+000 -1.032538e+001 0.000000e+000
      vertex -5.828671e-016 -1.076329e+001 0.000000e+000
    endloop
  endfacet
  facet normal 7.071661e-001 -7.070475e-001 0.000000e+000
    outer loop
      vertex 2.831564e+000 -9.128489e+000 -1.000000e+001
      vertex 1.634878e+000 -1.032538e+001 0.000000e+000
      vertex 1.634878e+000 -1.032538e+001 -1.000000e+001
    endloop
  endfacet
  facet normal -2.587381e-001 -9.659475e-001 0.000000e+000
    outer loop
      vertex -5.828671e-016 -1.076329e+001 -1.000000e+001
      vertex -5.828671e-016 -1.076329e+001 0.000000e+000
      vertex -1.634878e+000 -1.032538e+001 0.000000e+000
    endloop
  endfacet
  facet normal 2.587381e-001 -9.659475e-001 0.000000e+000
    outer loop
      vertex 1.634878e+000 -1.032538e+001 -1.000000e+001
      vertex -5.828671e-016 -1.076329e+001 0.000000e+000
      vertex -5.828671e-016 -1.076329e+001 -1.000000e+001
    endloop
  endfacet
  facet normal -7.071661e-001 -7.070475e-001 0.000000e+000
    outer loop
      vertex -1.634878e+000 -1.032538e+001 -1.000000e+001
      vertex -1.634878e+000 -1.032538e+001 0.000000e+000
      vertex -2.831564e+000 -9.128489e+000 0.000000e+000
    endloop
  endfacet
  facet normal -2.587381e-001 -9.659475e-001 0.000000e+000
    outer loop
      vertex -5.828671e-016 -1.076329e+001 -1.000000e+001
      vertex -1.634878e+000 -1.032538e+001 0.000000e+000
      vertex -1.634878e+000 -1.032538e+001 -1.000000e+001
    endloop
  endfacet
  facet normal -9.659041e-001 -2.589000e-001 0.000000e+000
    outer loop
      vertex -2.831564e+000 -9.128489e+000 -1.000000e+001
      vertex -2.831564e+000 -9.128489e+000 0.000000e+000
      vertex -3.269756e+000 -7.493685e+000 0.000000e+000
    endloop
  endfacet
  facet normal -7.071661e-001 -7.070475e-001 0.000000e+000
    outer loop
      vertex -1.634878e+000 -1.032538e+001 -1.000000e+001
      vertex -2.831564e+000 -9.128489e+000 0.000000e+000
      vertex -2.831564e+000 -9.128489e+000 -1.000000e+001
    endloop
  endfacet
  facet normal 0.000000e+000 0.000000e+000 1.000000e+000
    outer loop
      vertex 2.831564e+000 -5.858881e+000 0.000000e+000
      vertex -2.831564e+000 -5.858881e+000 0.000000e+000
      vertex -3.269756e+000 -7.493685e+000 0.000000e+000
    endloop
  endfacet
  facet normal -9.659041e-001 2.589000e-001 0.000000e+000
    outer loop
      vertex -3.269756e+000 -7.493685e+000 -1.000000e+001
      vertex -3.269756e+000 -7.493685e+000 0.000000e+000
      vertex -2.831564e+000 -5.858881e+000 0.000000e+000
    endloop
  endfacet
  facet normal -9.659041e-001 -2.589000e-001 0.000000e+000
    outer loop
      vertex -2.831564e+000 -9.128489e+000 -1.000000e+001
      vertex -3.269756e+000 -7.493685e+000 0.000000e+000
      vertex -3.269756e+000 -7.493685e+000 -1.000000e+001
    endloop
  endfacet
  facet normal 0.000000e+000 0.000000e+000 1.000000e+000
    outer loop
      vertex 1.634878e+000 -4.661994e+000 0.000000e+000
      vertex -1.634878e+000 -4.661994e+000 0.000000e+000
      vertex -2.831564e+000 -5.858881e+000 0.000000e+000
    endloop
  endfacet
  facet normal -7.071661e-001 7.070475e-001 0.000000e+000
    outer loop
      vertex -2.831564e+000 -5.858881e+000 -1.000000e+001
      vertex -2.831564e+000 -5.858881e+000 0.000000e+000
      vertex -1.634878e+000 -4.661994e+000 0.000000e+000
    endloop
  endfacet
  facet normal 0.000000e+000 0.000000e+000 1.000000e+000
    outer loop
      vertex 2.831564e+000 -5.858881e+000 0.000000e+000
      vertex 1.634878e+000 -4.661994e+000 0.000000e+000
      vertex -2.831564e+000 -5.858881e+000 0.000000e+000
    endloop
  endfacet
  facet normal -9.659041e-001 2.589000e-001 0.000000e+000
    outer loop
      vertex -3.269756e+000 -7.493685e+000 -1.000000e+001
      vertex -2.831564e+000 -5.858881e+000 0.000000e+000
      vertex -2.831564e+000 -5.858881e+000 -1.000000e+001
    endloop
  endfacet
  facet normal 0.000000e+000 0.000000e+000 1.000000e+000
    outer loop
      vertex 1.634878e+000 -4.661994e+000 0.000000e+000
      vertex 1.942890e-016 -4.224076e+000 0.000000e+000
      vertex -1.634878e+000 -4.661994e+000 0.000000e+000
    endloop
  endfacet
  facet normal -2.587381e-001 9.659475e-001 0.000000e+000
    outer loop
      vertex -1.634878e+000 -4.661994e+000 -1.000000e+001
      vertex -1.634878e+000 -4.661994e+000 0.000000e+000
      vertex 1.942890e-016 -4.224076e+000 0.000000e+000
    endloop
  endfacet
  facet normal -7.071661e-001 7.070475e-001 0.000000e+000
    outer loop
      vertex -2.831564e+000 -5.858881e+000 -1.000000e+001
      vertex -1.634878e+000 -4.661994e+000 0.000000e+000
      vertex -1.634878e+000 -4.661994e+000 -1.000000e+001
    endloop
  endfacet
  facet normal 2.587381e-001 9.659475e-001 0.000000e+000
    outer loop
      vertex 1.942890e-016 -4.224076e+000 -1.000000e+001
      vertex 1.942890e-016 -4.224076e+000 0.000000e+000
      vertex 1.634878e+000 -4.661994e+000 0.000000e+000
    endloop
  endfacet
  facet normal -2.587381e-001 9.659475e-001 0.000000e+000
    outer loop
      vertex -1.634878e+000 -4.661994e+000 -1.000000e+001
      vertex 1.942890e-016 -4.224076e+000 0.000000e+000
      vertex 1.942890e-016 -4.224076e+000 -1.000000e+001
    endloop
  endfacet
  facet normal 7.071661e-001 7.070475e-001 0.000000e+000
    outer loop
      vertex 1.634878e+000 -4.661994e+000 -1.000000e+001
      vertex 1.634878e+000 -4.661994e+000 0.000000e+000
      vertex 2.831564e+000 -5.858881e+000 0.000000e+000
    endloop
  endfacet
  facet normal 2.587381e-001 9.659475e-001 0.000000e+000
    outer loop
      vertex 1.942890e-016 -4.224076e+000 -1.000000e+001
      vertex 1.634878e+000 -4.661994e+000 0.000000e+000
      vertex 1.634878e+000 -4.661994e+000 -1.000000e+001
    endloop
  endfacet
  facet normal 7.071661e-001 7.070475e-001 0.000000e+000
    outer loop
      vertex 1.634878e+000 -4.661994e+000 -1.000000e+001
      vertex 2.831564e+000 -5.858881e+000 0.000000e+000
      vertex 2.831564e+000 -5.858881e+000 -1.000000e+001
    endloop
  endfacet
  facet normal 0.000000e+000 0.000000e+000 -1.000000e+000
    outer loop
      vertex -2.831564e+000 -5.858881e+000 -1.000000e+001
      vertex 2.831564e+000 -5.858881e+000 -1.000000e+001
      vertex 3.269756e+000 -7.493685e+000 -1.000000e+001
    endloop
  endfacet
  facet normal 0.000000e+000 0.000000e+000 -1.000000e+000
    outer loop
      vertex -3.269756e+000 -7.493685e+000 -1.000000e+001
      vertex -2.831564e+000 -5.858881e+000 -1.000000e+001
      vertex 3.269756e+000 -7.493685e+000 -1.000000e+001
    endloop
  endfacet
  facet normal 0.000000e+000 0.000000e+000 -1.000000e+000
    outer loop
      vertex 2.831564e+000 -9.128489e+000 -1.000000e+001
      vertex -3.269756e+000 -7.493685e+000 -1.000000e+001
      vertex 3.269756e+000 -7.493685e+000 -1.000000e+001
    endloop
  endfacet
  facet normal 0.000000e+000 0.000000e+000 -1.000000e+000
    outer loop
      vertex -1.634878e+000 -4.661994e+000 -1.000000e+001
      vertex 1.634878e+000 -4.661994e+000 -1.000000e+001
      vertex 2.831564e+000 -5.858881e+000 -1.000000e+001
    endloop
  endfacet
  facet normal 0.000000e+000 0.000000e+000 -1.000000e+000
    outer loop
      vertex -2.831564e+000 -5.858881e+000 -1.000000e+001
      vertex -1.634878e+000 -4.661994e+000 -1.000000e+001
      vertex 2.831564e+000 -5.858881e+000 -1.000000e+001
    endloop
  endfacet
  facet normal 0.000000e+000 0.000000e+000 -1.000000e+000
    outer loop
      vertex -1.634878e+000 -4.661994e+000 -1.000000e+001
      vertex 1.942890e-016 -4.224076e+000 -1.000000e+001
      vertex 1.634878e+000 -4.661994e+000 -1.000000e+001
    endloop
  endfacet
  facet normal 0.000000e+000 0.000000e+000 -1.000000e+000
    outer loop
      vertex 2.831564e+000 -9.128489e+000 -1.000000e+001
      vertex -2.831564e+000 -9.128489e+000 -1.000000e+001
      vertex -3.269756e+000 -7.493685e+000 -1.000000e+001
    endloop
  endfacet
  facet normal 0.000000e+000 0.000000e+000 -1.000000e+000
    outer loop
      vertex 1.634878e+000 -1.032538e+001 -1.000000e+001
      vertex -1.634878e+000 -1.032538e+001 -1.000000e+001
      vertex -2.831564e+000 -9.128489e+000 -1.000000e+001
    endloop
  endfacet
  facet normal 0.000000e+000 0.000000e+000 -1.000000e+000
    outer loop
      vertex 2.831564e+000 -9.128489e+000 -1.000000e+001
      vertex 1.634878e+000 -1.032538e+001 -1.000000e+001
      vertex -2.831564e+000 -9.128489e+000 -1.000000e+001
    endloop
  endfacet
  facet normal 0.000000e+000 0.000000e+000 -1.000000e+000
    outer loop
      vertex 1.634878e+000 -1.032538e+001 -1.000000e+001
      vertex -5.828671e-016 -1.076329e+001 -1.000000e+001
      vertex -1.634878e+000 -1.032538e+001 -1.000000e+001
    endloop
  endfacet
endsolid CAD4
