solid CAD1
  facet normal 0.000000e+000 0.000000e+000 -1.000000e+000
    outer loop
      vertex 7.500000e+000 -7.500000e+000 0.000000e+000
      vertex 4.698537e+000 -1.709797e+000 0.000000e+000
      vertex 5.000000e+000 -6.123032e-016 0.000000e+000
    endloop
  endfacet
  facet normal -9.848098e-001 1.736366e-001 0.000000e+000
    outer loop
      vertex 5.000000e+000 -6.123032e-016 1.000000e+001
      vertex 5.000000e+000 -6.123032e-016 0.000000e+000
      vertex 4.698537e+000 -1.709797e+000 0.000000e+000
    endloop
  endfacet
  facet normal 0.000000e+000 0.000000e+000 -1.000000e+000
    outer loop
      vertex 7.500000e+000 -7.500000e+000 0.000000e+000
      vertex 5.000000e+000 -6.123032e-016 0.000000e+000
      vertex 4.698537e+000 1.709797e+000 0.000000e+000
    endloop
  endfacet
  facet normal -9.848098e-001 -1.736366e-001 0.000000e+000
    outer loop
      vertex 4.698537e+000 1.709797e+000 1.000000e+001
      vertex 4.698537e+000 1.709797e+000 0.000000e+000
      vertex 5.000000e+000 -6.123032e-016 0.000000e+000
    endloop
  endfacet
  facet normal -9.848098e-001 -1.736366e-001 0.000000e+000
    outer loop
      vertex 4.698537e+000 1.709797e+000 1.000000e+001
      vertex 5.000000e+000 -6.123032e-016 0.000000e+000
      vertex 5.000000e+000 -6.123032e-016 1.000000e+001
    endloop
  endfacet
  facet normal 0.000000e+000 0.000000e+000 -1.000000e+000
    outer loop
      vertex 7.500000e+000 -7.500000e+000 0.000000e+000
      vertex 3.830226e+000 -3.213825e+000 0.000000e+000
      vertex 4.698537e+000 -1.709797e+000 0.000000e+000
    endloop
  endfacet
  facet normal -8.660353e-001 4.999828e-001 0.000000e+000
    outer loop
      vertex 4.698537e+000 -1.709797e+000 1.000000e+001
      vertex 4.698537e+000 -1.709797e+000 0.000000e+000
      vertex 3.830226e+000 -3.213825e+000 0.000000e+000
    endloop
  endfacet
  facet normal -9.848098e-001 1.736366e-001 0.000000e+000
    outer loop
      vertex 4.698537e+000 -1.709797e+000 1.000000e+001
      vertex 5.000000e+000 -6.123032e-016 1.000000e+001
      vertex 4.698537e+000 -1.709797e+000 0.000000e+000
    endloop
  endfacet
  facet normal 0.000000e+000 0.000000e+000 -1.000000e+000
    outer loop
      vertex 7.500000e+000 -7.500000e+000 0.000000e+000
      vertex 2.499764e+000 -4.330198e+000 0.000000e+000
      vertex 3.830226e+000 -3.213825e+000 0.000000e+000
    endloop
  endfacet
  facet normal -6.427818e-001 7.660493e-001 0.000000e+000
    outer loop
      vertex 3.830226e+000 -3.213825e+000 1.000000e+001
      vertex 3.830226e+000 -3.213825e+000 0.000000e+000
      vertex 2.499764e+000 -4.330198e+000 0.000000e+000
    endloop
  endfacet
  facet normal -8.660353e-001 4.999828e-001 0.000000e+000
    outer loop
      vertex 4.698537e+000 -1.709797e+000 1.000000e+001
      vertex 3.830226e+000 -3.213825e+000 0.000000e+000
      vertex 3.830226e+000 -3.213825e+000 1.000000e+001
    endloop
  endfacet
  facet normal 0.000000e+000 0.000000e+000 -1.000000e+000
    outer loop
      vertex 7.500000e+000 -7.500000e+000 0.000000e+000
      vertex 8.679946e-001 -4.924071e+000 0.000000e+000
      vertex 2.499764e+000 -4.330198e+000 0.000000e+000
    endloop
  endfacet
  facet normal -3.419984e-001 9.397006e-001 0.000000e+000
    outer loop
      vertex 2.499764e+000 -4.330198e+000 1.000000e+001
      vertex 2.499764e+000 -4.330198e+000 0.000000e+000
      vertex 8.679946e-001 -4.924071e+000 0.000000e+000
    endloop
  endfacet
  facet normal -6.427818e-001 7.660493e-001 0.000000e+000
    outer loop
      vertex 3.830226e+000 -3.213825e+000 1.000000e+001
      vertex 2.499764e+000 -4.330198e+000 0.000000e+000
      vertex 2.499764e+000 -4.330198e+000 1.000000e+001
    endloop
  endfacet
  facet normal 0.000000e+000 0.000000e+000 -1.000000e+000
    outer loop
      vertex 7.500000e+000 -7.500000e+000 0.000000e+000
      vertex -8.679946e-001 -4.924071e+000 0.000000e+000
      vertex 8.679946e-001 -4.924071e+000 0.000000e+000
    endloop
  endfacet
  facet normal 0.000000e+000 1.000000e+000 0.000000e+000
    outer loop
      vertex 8.679946e-001 -4.924071e+000 1.000000e+001
      vertex 8.679946e-001 -4.924071e+000 0.000000e+000
      vertex -8.679946e-001 -4.924071e+000 0.000000e+000
    endloop
  endfacet
  facet normal -3.419984e-001 9.397006e-001 0.000000e+000
    outer loop
      vertex 2.499764e+000 -4.330198e+000 1.000000e+001
      vertex 8.679946e-001 -4.924071e+000 0.000000e+000
      vertex 8.679946e-001 -4.924071e+000 1.000000e+001
    endloop
  endfacet
  facet normal 0.000000e+000 0.000000e+000 -1.000000e+000
    outer loop
      vertex -7.500000e+000 -7.500000e+000 0.000000e+000
      vertex -2.499764e+000 -4.330198e+000 0.000000e+000
      vertex -8.679946e-001 -4.924071e+000 0.000000e+000
    endloop
  endfacet
  facet normal 3.419984e-001 9.397006e-001 0.000000e+000
    outer loop
      vertex -8.679946e-001 -4.924071e+000 1.000000e+001
      vertex -8.679946e-001 -4.924071e+000 0.000000e+000
      vertex -2.499764e+000 -4.330198e+000 0.000000e+000
    endloop
  endfacet
  facet normal 0.000000e+000 0.000000e+000 -1.000000e+000
    outer loop
      vertex 7.500000e+000 -7.500000e+000 0.000000e+000
      vertex -7.500000e+000 -7.500000e+000 0.000000e+000
      vertex -8.679946e-001 -4.924071e+000 0.000000e+000
    endloop
  endfacet
  facet normal 0.000000e+000 1.000000e+000 0.000000e+000
    outer loop
      vertex 8.679946e-001 -4.924071e+000 1.000000e+001
      vertex -8.679946e-001 -4.924071e+000 0.000000e+000
      vertex -8.679946e-001 -4.924071e+000 1.000000e+001
    endloop
  endfacet
  facet normal 0.000000e+000 0.000000e+000 -1.000000e+000
    outer loop
      vertex -7.500000e+000 -7.500000e+000 0.000000e+000
      vertex -3.830226e+000 -3.213825e+000 0.000000e+000
      vertex -2.499764e+000 -4.330198e+000 0.000000e+000
    endloop
  endfacet
  facet normal 6.427818e-001 7.660493e-001 0.000000e+000
    outer loop
      vertex -2.499764e+000 -4.330198e+000 1.000000e+001
      vertex -2.499764e+000 -4.330198e+000 0.000000e+000
      vertex -3.830226e+000 -3.213825e+000 0.000000e+000
    endloop
  endfacet
  facet normal 3.419984e-001 9.397006e-001 0.000000e+000
    outer loop
      vertex -8.679946e-001 -4.924071e+000 1.000000e+001
      vertex -2.499764e+000 -4.330198e+000 0.000000e+000
      vertex -2.499764e+000 -4.330198e+000 1.000000e+001
    endloop
  endfacet
  facet normal 0.000000e+000 0.000000e+000 -1.000000e+000
    outer loop
      vertex -7.500000e+000 -7.500000e+000 0.000000e+000
      vertex -4.698537e+000 -1.709797e+000 0.000000e+000
      vertex -3.830226e+000 -3.213825e+000 0.000000e+000
    endloop
  endfacet
  facet normal 8.660353e-001 4.999828e-001 0.000000e+000
    outer loop
      vertex -3.830226e+000 -3.213825e+000 1.000000e+001
      vertex -3.830226e+000 -3.213825e+000 0.000000e+000
      vertex -4.698537e+000 -1.709797e+000 0.000000e+000
    endloop
  endfacet
  facet normal 6.427818e-001 7.660493e-001 0.000000e+000
    outer loop
      vertex -2.499764e+000 -4.330198e+000 1.000000e+001
      vertex -3.830226e+000 -3.213825e+000 0.000000e+000
      vertex -3.830226e+000 -3.213825e+000 1.000000e+001
    endloop
  endfacet
  facet normal 0.000000e+000 0.000000e+000 -1.000000e+000
    outer loop
      vertex -7.500000e+000 7.500000e+000 0.000000e+000
      vertex -5.000000e+000 6.123032e-016 0.000000e+000
      vertex -4.698537e+000 -1.709797e+000 0.000000e+000
    endloop
  endfacet
  facet normal 9.848098e-001 1.736366e-001 0.000000e+000
    outer loop
      vertex -4.698537e+000 -1.709797e+000 1.000000e+001
      vertex -4.698537e+000 -1.709797e+000 0.000000e+000
      vertex -5.000000e+000 6.123032e-016 0.000000e+000
    endloop
  endfacet
  facet normal 0.000000e+000 0.000000e+000 -1.000000e+000
    outer loop
      vertex -7.500000e+000 -7.500000e+000 0.000000e+000
      vertex -7.500000e+000 7.500000e+000 0.000000e+000
      vertex -4.698537e+000 -1.709797e+000 0.000000e+000
    endloop
  endfacet
  facet normal 8.660353e-001 4.999828e-001 0.000000e+000
    outer loop
      vertex -3.830226e+000 -3.213825e+000 1.000000e+001
      vertex -4.698537e+000 -1.709797e+000 0.000000e+000
      vertex -4.698537e+000 -1.709797e+000 1.000000e+001
    endloop
  endfacet
  facet normal 0.000000e+000 0.000000e+000 -1.000000e+000
    outer loop
      vertex -7.500000e+000 7.500000e+000 0.000000e+000
      vertex -4.698537e+000 1.709797e+000 0.000000e+000
      vertex -5.000000e+000 6.123032e-016 0.000000e+000
    endloop
  endfacet
  facet normal 9.848098e-001 -1.736366e-001 0.000000e+000
    outer loop
      vertex -5.000000e+000 6.123032e-016 1.000000e+001
      vertex -5.000000e+000 6.123032e-016 0.000000e+000
      vertex -4.698537e+000 1.709797e+000 0.000000e+000
    endloop
  endfacet
  facet normal 9.848098e-001 1.736366e-001 0.000000e+000
    outer loop
      vertex -4.698537e+000 -1.709797e+000 1.000000e+001
      vertex -5.000000e+000 6.123032e-016 0.000000e+000
      vertex -5.000000e+000 6.123032e-016 1.000000e+001
    endloop
  endfacet
  facet normal 0.000000e+000 0.000000e+000 -1.000000e+000
    outer loop
      vertex -7.500000e+000 7.500000e+000 0.000000e+000
      vertex -3.830226e+000 3.213825e+000 0.000000e+000
      vertex -4.698537e+000 1.709797e+000 0.000000e+000
    endloop
  endfacet
  facet normal 8.660353e-001 -4.999828e-001 0.000000e+000
    outer loop
      vertex -4.698537e+000 1.709797e+000 1.000000e+001
      vertex -4.698537e+000 1.709797e+000 0.000000e+000
      vertex -3.830226e+000 3.213825e+000 0.000000e+000
    endloop
  endfacet
  facet normal 9.848098e-001 -1.736366e-001 0.000000e+000
    outer loop
      vertex -5.000000e+000 6.123032e-016 1.000000e+001
      vertex -4.698537e+000 1.709797e+000 0.000000e+000
      vertex -4.698537e+000 1.709797e+000 1.000000e+001
    endloop
  endfacet
  facet normal 0.000000e+000 0.000000e+000 -1.000000e+000
    outer loop
      vertex -7.500000e+000 7.500000e+000 0.000000e+000
      vertex -2.499764e+000 4.330198e+000 0.000000e+000
      vertex -3.830226e+000 3.213825e+000 0.000000e+000
    endloop
  endfacet
  facet normal 6.427818e-001 -7.660493e-001 0.000000e+000
    outer loop
      vertex -3.830226e+000 3.213825e+000 1.000000e+001
      vertex -3.830226e+000 3.213825e+000 0.000000e+000
      vertex -2.499764e+000 4.330198e+000 0.000000e+000
    endloop
  endfacet
  facet normal 8.660353e-001 -4.999828e-001 0.000000e+000
    outer loop
      vertex -4.698537e+000 1.709797e+000 1.000000e+001
      vertex -3.830226e+000 3.213825e+000 0.000000e+000
      vertex -3.830226e+000 3.213825e+000 1.000000e+001
    endloop
  endfacet
  facet normal 0.000000e+000 0.000000e+000 -1.000000e+000
    outer loop
      vertex -7.500000e+000 7.500000e+000 0.000000e+000
      vertex -8.679946e-001 4.924071e+000 0.000000e+000
      vertex -2.499764e+000 4.330198e+000 0.000000e+000
    endloop
  endfacet
  facet normal 3.419984e-001 -9.397006e-001 0.000000e+000
    outer loop
      vertex -2.499764e+000 4.330198e+000 1.000000e+001
      vertex -2.499764e+000 4.330198e+000 0.000000e+000
      vertex -8.679946e-001 4.924071e+000 0.000000e+000
    endloop
  endfacet
  facet normal 6.427818e-001 -7.660493e-001 0.000000e+000
    outer loop
      vertex -3.830226e+000 3.213825e+000 1.000000e+001
      vertex -2.499764e+000 4.330198e+000 0.000000e+000
      vertex -2.499764e+000 4.330198e+000 1.000000e+001
    endloop
  endfacet
  facet normal 0.000000e+000 0.000000e+000 -1.000000e+000
    outer loop
      vertex -7.500000e+000 7.500000e+000 0.000000e+000
      vertex 8.679946e-001 4.924071e+000 0.000000e+000
      vertex -8.679946e-001 4.924071e+000 0.000000e+000
    endloop
  endfacet
  facet normal 0.000000e+000 -1.000000e+000 0.000000e+000
    outer loop
      vertex -8.679946e-001 4.924071e+000 1.000000e+001
      vertex -8.679946e-001 4.924071e+000 0.000000e+000
      vertex 8.679946e-001 4.924071e+000 0.000000e+000
    endloop
  endfacet
  facet normal 3.419984e-001 -9.397006e-001 0.000000e+000
    outer loop
      vertex -2.499764e+000 4.330198e+000 1.000000e+001
      vertex -8.679946e-001 4.924071e+000 0.000000e+000
      vertex -8.679946e-001 4.924071e+000 1.000000e+001
    endloop
  endfacet
  facet normal 0.000000e+000 0.000000e+000 -1.000000e+000
    outer loop
      vertex 7.500000e+000 7.500000e+000 0.000000e+000
      vertex 2.499764e+000 4.330198e+000 0.000000e+000
      vertex 8.679946e-001 4.924071e+000 0.000000e+000
    endloop
  endfacet
  facet normal -3.419984e-001 -9.397006e-001 0.000000e+000
    outer loop
      vertex 8.679946e-001 4.924071e+000 1.000000e+001
      vertex 8.679946e-001 4.924071e+000 0.000000e+000
      vertex 2.499764e+000 4.330198e+000 0.000000e+000
    endloop
  endfacet
  facet normal 0.000000e+000 0.000000e+000 -1.000000e+000
    outer loop
      vertex 7.500000e+000 7.500000e+000 0.000000e+000
      vertex 8.679946e-001 4.924071e+000 0.000000e+000
      vertex -7.500000e+000 7.500000e+000 0.000000e+000
    endloop
  endfacet
  facet normal 0.000000e+000 -1.000000e+000 0.000000e+000
    outer loop
      vertex -8.679946e-001 4.924071e+000 1.000000e+001
      vertex 8.679946e-001 4.924071e+000 0.000000e+000
      vertex 8.679946e-001 4.924071e+000 1.000000e+001
    endloop
  endfacet
  facet normal 0.000000e+000 0.000000e+000 -1.000000e+000
    outer loop
      vertex 7.500000e+000 7.500000e+000 0.000000e+000
      vertex 3.830226e+000 3.213825e+000 0.000000e+000
      vertex 2.499764e+000 4.330198e+000 0.000000e+000
    endloop
  endfacet
  facet normal -6.427818e-001 -7.660493e-001 0.000000e+000
    outer loop
      vertex 2.499764e+000 4.330198e+000 1.000000e+001
      vertex 2.499764e+000 4.330198e+000 0.000000e+000
      vertex 3.830226e+000 3.213825e+000 0.000000e+000
    endloop
  endfacet
  facet normal -3.419984e-001 -9.397006e-001 0.000000e+000
    outer loop
      vertex 8.679946e-001 4.924071e+000 1.000000e+001
      vertex 2.499764e+000 4.330198e+000 0.000000e+000
      vertex 2.499764e+000 4.330198e+000 1.000000e+001
    endloop
  endfacet
  facet normal 0.000000e+000 0.000000e+000 -1.000000e+000
    outer loop
      vertex 7.500000e+000 7.500000e+000 0.000000e+000
      vertex 4.698537e+000 1.709797e+000 0.000000e+000
      vertex 3.830226e+000 3.213825e+000 0.000000e+000
    endloop
  endfacet
  facet normal -8.660353e-001 -4.999828e-001 0.000000e+000
    outer loop
      vertex 3.830226e+000 3.213825e+000 1.000000e+001
      vertex 3.830226e+000 3.213825e+000 0.000000e+000
      vertex 4.698537e+000 1.709797e+000 0.000000e+000
    endloop
  endfacet
  facet normal -6.427818e-001 -7.660493e-001 0.000000e+000
    outer loop
      vertex 2.499764e+000 4.330198e+000 1.000000e+001
      vertex 3.830226e+000 3.213825e+000 0.000000e+000
      vertex 3.830226e+000 3.213825e+000 1.000000e+001
    endloop
  endfacet
  facet normal 0.000000e+000 0.000000e+000 -1.000000e+000
    outer loop
      vertex 7.500000e+000 7.500000e+000 0.000000e+000
      vertex 7.500000e+000 -7.500000e+000 0.000000e+000
      vertex 4.698537e+000 1.709797e+000 0.000000e+000
    endloop
  endfacet
  facet normal -8.660353e-001 -4.999828e-001 0.000000e+000
    outer loop
      vertex 3.830226e+000 3.213825e+000 1.000000e+001
      vertex 4.698537e+000 1.709797e+000 0.000000e+000
      vertex 4.698537e+000 1.709797e+000 1.000000e+001
    endloop
  endfacet
  facet normal -1.000000e+000 0.000000e+000 0.000000e+000
    outer loop
      vertex -7.500000e+000 7.500000e+000 1.000000e+001
      vertex -7.500000e+000 7.500000e+000 0.000000e+000
      vertex -7.500000e+000 -7.500000e+000 0.000000e+000
    endloop
  endfacet
  facet normal 0.000000e+000 1.000000e+000 0.000000e+000
    outer loop
      vertex 7.500000e+000 7.500000e+000 1.000000e+001
      vertex 7.500000e+000 7.500000e+000 0.000000e+000
      vertex -7.500000e+000 7.500000e+000 0.000000e+000
    endloop
  endfacet
  facet normal 0.000000e+000 1.000000e+000 0.000000e+000
    outer loop
      vertex 7.500000e+000 7.500000e+000 1.000000e+001
      vertex -7.500000e+000 7.500000e+000 0.000000e+000
      vertex -7.500000e+000 7.500000e+000 1.000000e+001
    endloop
  endfacet
  facet normal 0.000000e+000 -1.000000e+000 0.000000e+000
    outer loop
      vertex -7.500000e+000 -7.500000e+000 1.000000e+001
      vertex -7.500000e+000 -7.500000e+000 0.000000e+000
      vertex 7.500000e+000 -7.500000e+000 0.000000e+000
    endloop
  endfacet
  facet normal -1.000000e+000 0.000000e+000 0.000000e+000
    outer loop
      vertex -7.500000e+000 -7.500000e+000 1.000000e+001
      vertex -7.500000e+000 7.500000e+000 1.000000e+001
      vertex -7.500000e+000 -7.500000e+000 0.000000e+000
    endloop
  endfacet
  facet normal 1.000000e+000 0.000000e+000 0.000000e+000
    outer loop
      vertex 7.500000e+000 -7.500000e+000 1.000000e+001
      vertex 7.500000e+000 -7.500000e+000 0.000000e+000
      vertex 7.500000e+000 7.500000e+000 0.000000e+000
    endloop
  endfacet
  facet normal 0.000000e+000 -1.000000e+000 0.000000e+000
    outer loop
      vertex -7.500000e+000 -7.500000e+000 1.000000e+001
      vertex 7.500000e+000 -7.500000e+000 0.000000e+000
      vertex 7.500000e+000 -7.500000e+000 1.000000e+001
    endloop
  endfacet
  facet normal 1.000000e+000 0.000000e+000 0.000000e+000
    outer loop
      vertex 7.500000e+000 -7.500000e+000 1.000000e+001
      vertex 7.500000e+000 7.500000e+000 0.000000e+000
      vertex 7.500000e+000 7.500000e+000 1.000000e+001
    endloop
  endfacet
  facet normal 0.000000e+000 0.000000e+000 1.000000e+000
    outer loop
      vertex 7.500000e+000 7.500000e+000 1.000000e+001
      vertex 4.698537e+000 1.709797e+000 1.000000e+001
      vertex 5.000000e+000 -6.123032e-016 1.000000e+001
    endloop
  endfacet
  facet normal 0.000000e+000 0.000000e+000 1.000000e+000
    outer loop
      vertex 7.500000e+000 7.500000e+000 1.000000e+001
      vertex 5.000000e+000 -6.123032e-016 1.000000e+001
      vertex 4.698537e+000 -1.709797e+000 1.000000e+001
    endloop
  endfacet
  facet normal 0.000000e+000 0.000000e+000 1.000000e+000
    outer loop
      vertex 7.500000e+000 7.500000e+000 1.000000e+001
      vertex 3.830226e+000 3.213825e+000 1.000000e+001
      vertex 4.698537e+000 1.709797e+000 1.000000e+001
    endloop
  endfacet
  facet normal 0.000000e+000 0.000000e+000 1.000000e+000
    outer loop
      vertex 7.500000e+000 7.500000e+000 1.000000e+001
      vertex 2.499764e+000 4.330198e+000 1.000000e+001
      vertex 3.830226e+000 3.213825e+000 1.000000e+001
    endloop
  endfacet
  facet normal 0.000000e+000 0.000000e+000 1.000000e+000
    outer loop
      vertex 7.500000e+000 7.500000e+000 1.000000e+001
      vertex 8.679946e-001 4.924071e+000 1.000000e+001
      vertex 2.499764e+000 4.330198e+000 1.000000e+001
    endloop
  endfacet
  facet normal 0.000000e+000 0.000000e+000 1.000000e+000
    outer loop
      vertex 7.500000e+000 7.500000e+000 1.000000e+001
      vertex -8.679946e-001 4.924071e+000 1.000000e+001
      vertex 8.679946e-001 4.924071e+000 1.000000e+001
    endloop
  endfacet
  facet normal 0.000000e+000 0.000000e+000 1.000000e+000
    outer loop
      vertex -7.500000e+000 7.500000e+000 1.000000e+001
      vertex -2.499764e+000 4.330198e+000 1.000000e+001
      vertex -8.679946e-001 4.924071e+000 1.000000e+001
    endloop
  endfacet
  facet normal 0.000000e+000 0.000000e+000 1.000000e+000
    outer loop
      vertex 7.500000e+000 7.500000e+000 1.000000e+001
      vertex -7.500000e+000 7.500000e+000 1.000000e+001
      vertex -8.679946e-001 4.924071e+000 1.000000e+001
    endloop
  endfacet
  facet normal 0.000000e+000 0.000000e+000 1.000000e+000
    outer loop
      vertex -7.500000e+000 7.500000e+000 1.000000e+001
      vertex -3.830226e+000 3.213825e+000 1.000000e+001
      vertex -2.499764e+000 4.330198e+000 1.000000e+001
    endloop
  endfacet
  facet normal 0.000000e+000 0.000000e+000 1.000000e+000
    outer loop
      vertex -7.500000e+000 7.500000e+000 1.000000e+001
      vertex -4.698537e+000 1.709797e+000 1.000000e+001
      vertex -3.830226e+000 3.213825e+000 1.000000e+001
    endloop
  endfacet
  facet normal 0.000000e+000 0.000000e+000 1.000000e+000
    outer loop
      vertex -7.500000e+000 -7.500000e+000 1.000000e+001
      vertex -5.000000e+000 6.123032e-016 1.000000e+001
      vertex -4.698537e+000 1.709797e+000 1.000000e+001
    endloop
  endfacet
  facet normal 0.000000e+000 0.000000e+000 1.000000e+000
    outer loop
      vertex -7.500000e+000 -7.500000e+000 1.000000e+001
      vertex -4.698537e+000 1.709797e+000 1.000000e+001
      vertex -7.500000e+000 7.500000e+000 1.000000e+001
    endloop
  endfacet
  facet normal 0.000000e+000 0.000000e+000 1.000000e+000
    outer loop
      vertex -7.500000e+000 -7.500000e+000 1.000000e+001
      vertex -4.698537e+000 -1.709797e+000 1.000000e+001
      vertex -5.000000e+000 6.123032e-016 1.000000e+001
    endloop
  endfacet
  facet normal 0.000000e+000 0.000000e+000 1.000000e+000
    outer loop
      vertex -7.500000e+000 -7.500000e+000 1.000000e+001
      vertex -3.830226e+000 -3.213825e+000 1.000000e+001
      vertex -4.698537e+000 -1.709797e+000 1.000000e+001
    endloop
  endfacet
  facet normal 0.000000e+000 0.000000e+000 1.000000e+000
    outer loop
      vertex -7.500000e+000 -7.500000e+000 1.000000e+001
      vertex -2.499764e+000 -4.330198e+000 1.000000e+001
      vertex -3.830226e+000 -3.213825e+000 1.000000e+001
    endloop
  endfacet
  facet normal 0.000000e+000 0.000000e+000 1.000000e+000
    outer loop
      vertex -7.500000e+000 -7.500000e+000 1.000000e+001
      vertex -8.679946e-001 -4.924071e+000 1.000000e+001
      vertex -2.499764e+000 -4.330198e+000 1.000000e+001
    endloop
  endfacet
  facet normal 0.000000e+000 0.000000e+000 1.000000e+000
    outer loop
      vertex -7.500000e+000 -7.500000e+000 1.000000e+001
      vertex 8.679946e-001 -4.924071e+000 1.000000e+001
      vertex -8.679946e-001 -4.924071e+000 1.000000e+001
    endloop
  endfacet
  facet normal 0.000000e+000 0.000000e+000 1.000000e+000
    outer loop
      vertex 7.500000e+000 -7.500000e+000 1.000000e+001
      vertex 2.499764e+000 -4.330198e+000 1.000000e+001
      vertex 8.679946e-001 -4.924071e+000 1.000000e+001
    endloop
  endfacet
  facet normal 0.000000e+000 0.000000e+000 1.000000e+000
    outer loop
      vertex -7.500000e+000 -7.500000e+000 1.000000e+001
      vertex 7.500000e+000 -7.500000e+000 1.000000e+001
      vertex 8.679946e-001 -4.924071e+000 1.000000e+001
    endloop
  endfacet
  facet normal 0.000000e+000 0.000000e+000 1.000000e+000
    outer loop
      vertex 7.500000e+000 -7.500000e+000 1.000000e+001
      vertex 3.830226e+000 -3.213825e+000 1.000000e+001
      vertex 2.499764e+000 -4.330198e+000 1.000000e+001
    endloop
  endfacet
  facet normal 0.000000e+000 0.000000e+000 1.000000e+000
    outer loop
      vertex 7.500000e+000 -7.500000e+000 1.000000e+001
      vertex 4.698537e+000 -1.709797e+000 1.000000e+001
      vertex 3.830226e+000 -3.213825e+000 1.000000e+001
    endloop
  endfacet
  facet normal 0.000000e+000 0.000000e+000 1.000000e+000
    outer loop
      vertex 7.500000e+000 -7.500000e+000 1.000000e+001
      vertex 7.500000e+000 7.500000e+000 1.000000e+001
      vertex 4.698537e+000 -1.709797e+000 1.000000e+001
    endloop
  endfacet
endsolid CAD1
