solid RPMODEL1
  facet normal -1.000000e+000 0.000000e+000 0.000000e+000
    outer loop
      vertex -1.250000e+000 -1.250000e+000 0.000000e+000
      vertex -1.250000e+000 1.250000e+000 1.000000e+000
      vertex -1.250000e+000 1.250000e+000 0.000000e+000
    endloop
  endfacet
  facet normal 0.000000e+000 1.000000e+000 0.000000e+000
    outer loop
      vertex 1.250000e+000 1.250000e+000 1.000000e+000
      vertex -1.250000e+000 1.250000e+000 0.000000e+000
      vertex -1.250000e+000 1.250000e+000 1.000000e+000
    endloop
  endfacet
  facet normal 0.000000e+000 0.000000e+000 -1.000000e+000
    outer loop
      vertex 1.250000e+000 1.250000e+000 0.000000e+000
      vertex -1.250000e+000 -1.250000e+000 0.000000e+000
      vertex -1.250000e+000 1.250000e+000 0.000000e+000
    endloop
  endfacet
  facet normal 0.000000e+000 1.000000e+000 0.000000e+000
    outer loop
      vertex 1.250000e+000 1.250000e+000 1.000000e+000
      vertex 1.250000e+000 1.250000e+000 0.000000e+000
      vertex -1.250000e+000 1.250000e+000 0.000000e+000
    endloop
  endfacet
  facet normal -1.000000e+000 0.000000e+000 0.000000e+000
    outer loop
      vertex -1.250000e+000 -1.250000e+000 0.000000e+000
      vertex -1.250000e+000 2.500000e-001 1.000000e+000
      vertex -1.250000e+000 1.250000e+000 1.000000e+000
    endloop
  endfacet
  facet normal 0.000000e+000 0.000000e+000 1.000000e+000
    outer loop
      vertex 1.250000e+000 2.500000e-001 1.000000e+000
      vertex -1.250000e+000 1.250000e+000 1.000000e+000
      vertex -1.250000e+000 2.500000e-001 1.000000e+000
    endloop
  endfacet
  facet normal 0.000000e+000 0.000000e+000 1.000000e+000
    outer loop
      vertex 1.250000e+000 1.250000e+000 1.000000e+000
      vertex -1.250000e+000 1.250000e+000 1.000000e+000
      vertex 1.250000e+000 2.500000e-001 1.000000e+000
    endloop
  endfacet
  facet normal -1.000000e+000 0.000000e+000 0.000000e+000
    outer loop
      vertex -1.250000e+000 -1.250000e+000 0.000000e+000
      vertex -1.250000e+000 -7.500000e-001 2.000000e+000
      vertex -1.250000e+000 2.500000e-001 1.000000e+000
    endloop
  endfacet
  facet normal 0.000000e+000 7.071068e-001 7.071068e-001
    outer loop
      vertex 1.250000e+000 -7.500000e-001 2.000000e+000
      vertex -1.250000e+000 2.500000e-001 1.000000e+000
      vertex -1.250000e+000 -7.500000e-001 2.000000e+000
    endloop
  endfacet
  facet normal 0.000000e+000 7.071068e-001 7.071068e-001
    outer loop
      vertex 1.250000e+000 2.500000e-001 1.000000e+000
      vertex -1.250000e+000 2.500000e-001 1.000000e+000
      vertex 1.250000e+000 -7.500000e-001 2.000000e+000
    endloop
  endfacet
  facet normal -1.000000e+000 0.000000e+000 0.000000e+000
    outer loop
      vertex -1.250000e+000 -1.250000e+000 0.000000e+000
      vertex -1.250000e+000 -1.250000e+000 2.000000e+000
      vertex -1.250000e+000 -7.500000e-001 2.000000e+000
    endloop
  endfacet
  facet normal 0.000000e+000 0.000000e+000 1.000000e+000
    outer loop
      vertex 1.250000e+000 -1.250000e+000 2.000000e+000
      vertex -1.250000e+000 -7.500000e-001 2.000000e+000
      vertex -1.250000e+000 -1.250000e+000 2.000000e+000
    endloop
  endfacet
  facet normal 0.000000e+000 0.000000e+000 1.000000e+000
    outer loop
      vertex 1.250000e+000 -7.500000e-001 2.000000e+000
      vertex -1.250000e+000 -7.500000e-001 2.000000e+000
      vertex 1.250000e+000 -1.250000e+000 2.000000e+000
    endloop
  endfacet
  facet normal 0.000000e+000 -1.000000e+000 0.000000e+000
    outer loop
      vertex 1.250000e+000 -1.250000e+000 0.000000e+000
      vertex -1.250000e+000 -1.250000e+000 2.000000e+000
      vertex -1.250000e+000 -1.250000e+000 0.000000e+000
    endloop
  endfacet
  facet normal 0.000000e+000 -1.000000e+000 0.000000e+000
    outer loop
      vertex 1.250000e+000 -1.250000e+000 2.000000e+000
      vertex -1.250000e+000 -1.250000e+000 2.000000e+000
      vertex 1.250000e+000 -1.250000e+000 0.000000e+000
    endloop
  endfacet
  facet normal 0.000000e+000 0.000000e+000 -1.000000e+000
    outer loop
      vertex 1.250000e+000 -1.250000e+000 0.000000e+000
      vertex -1.250000e+000 -1.250000e+000 0.000000e+000
      vertex 1.250000e+000 1.250000e+000 0.000000e+000
    endloop
  endfacet
  facet normal 1.000000e+000 0.000000e+000 0.000000e+000
    outer loop
      vertex 1.250000e+000 -1.250000e+000 2.000000e+000
      vertex 1.250000e+000 -1.250000e+000 0.000000e+000
      vertex 1.250000e+000 1.250000e+000 0.000000e+000
    endloop
  endfacet
  facet normal 1.000000e+000 0.000000e+000 0.000000e+000
    outer loop
      vertex 1.250000e+000 2.500000e-001 1.000000e+000
      vertex 1.250000e+000 -1.250000e+000 2.000000e+000
      vertex 1.250000e+000 1.250000e+000 0.000000e+000
    endloop
  endfacet
  facet normal 1.000000e+000 0.000000e+000 0.000000e+000
    outer loop
      vertex 1.250000e+000 1.250000e+000 1.000000e+000
      vertex 1.250000e+000 2.500000e-001 1.000000e+000
      vertex 1.250000e+000 1.250000e+000 0.000000e+000
    endloop
  endfacet
  facet normal 1.000000e+000 0.000000e+000 0.000000e+000
    outer loop
      vertex 1.250000e+000 2.500000e-001 1.000000e+000
      vertex 1.250000e+000 -7.500000e-001 2.000000e+000
      vertex 1.250000e+000 -1.250000e+000 2.000000e+000
    endloop
  endfacet
endsolid RPMODEL1
