solid SMU
  facet normal 0.000000e+000 0.000000e+000 -1.000000e+000
    outer loop
      vertex -3.985137e-001 3.297872e-001 0.000000e+000
      vertex -3.959755e-001 2.659574e-001 0.000000e+000
      vertex -4.787341e-001 2.659574e-001 0.000000e+000
    endloop
  endfacet
  facet normal 0.000000e+000 -1.000000e+000 0.000000e+000
    outer loop
      vertex -3.959755e-001 2.659574e-001 4.000000e-001
      vertex -4.787341e-001 2.659574e-001 0.000000e+000
      vertex -3.959755e-001 2.659574e-001 0.000000e+000
    endloop
  endfacet
  facet normal 0.000000e+000 0.000000e+000 -1.000000e+000
    outer loop
      vertex -4.248864e-001 4.148936e-001 0.000000e+000
      vertex -3.985137e-001 3.297872e-001 0.000000e+000
      vertex -4.787341e-001 2.659574e-001 0.000000e+000
    endloop
  endfacet
  facet normal 0.000000e+000 0.000000e+000 -1.000000e+000
    outer loop
      vertex -4.688039e-001 4.787234e-001 0.000000e+000
      vertex -4.248864e-001 4.148936e-001 0.000000e+000
      vertex -4.787341e-001 2.659574e-001 0.000000e+000
    endloop
  endfacet
  facet normal 0.000000e+000 0.000000e+000 -1.000000e+000
    outer loop
      vertex -4.850239e-001 3.085106e-001 0.000000e+000
      vertex -4.688039e-001 4.787234e-001 0.000000e+000
      vertex -4.787341e-001 2.659574e-001 0.000000e+000
    endloop
  endfacet
  facet normal -9.892517e-001 -1.462225e-001 0.000000e+000
    outer loop
      vertex -4.787341e-001 2.659574e-001 4.000000e-001
      vertex -4.850239e-001 3.085106e-001 0.000000e+000
      vertex -4.787341e-001 2.659574e-001 0.000000e+000
    endloop
  endfacet
  facet normal 0.000000e+000 -1.000000e+000 0.000000e+000
    outer loop
      vertex -3.959755e-001 2.659574e-001 4.000000e-001
      vertex -4.787341e-001 2.659574e-001 4.000000e-001
      vertex -4.787341e-001 2.659574e-001 0.000000e+000
    endloop
  endfacet
  facet normal 9.992103e-001 3.973334e-002 0.000000e+000
    outer loop
      vertex -3.985137e-001 3.297872e-001 4.000000e-001
      vertex -3.959755e-001 2.659574e-001 0.000000e+000
      vertex -3.985137e-001 3.297872e-001 0.000000e+000
    endloop
  endfacet
  facet normal 9.992103e-001 3.973334e-002 0.000000e+000
    outer loop
      vertex -3.959755e-001 2.659574e-001 4.000000e-001
      vertex -3.959755e-001 2.659574e-001 0.000000e+000
      vertex -3.985137e-001 3.297872e-001 4.000000e-001
    endloop
  endfacet
  facet normal 9.551898e-001 2.959941e-001 0.000000e+000
    outer loop
      vertex -4.248864e-001 4.148936e-001 4.000000e-001
      vertex -3.985137e-001 3.297872e-001 0.000000e+000
      vertex -4.248864e-001 4.148936e-001 0.000000e+000
    endloop
  endfacet
  facet normal 9.551898e-001 2.959941e-001 0.000000e+000
    outer loop
      vertex -3.985137e-001 3.297872e-001 4.000000e-001
      vertex -3.985137e-001 3.297872e-001 0.000000e+000
      vertex -4.248864e-001 4.148936e-001 4.000000e-001
    endloop
  endfacet
  facet normal 8.238338e-001 5.668314e-001 0.000000e+000
    outer loop
      vertex -4.688039e-001 4.787234e-001 4.000000e-001
      vertex -4.248864e-001 4.148936e-001 0.000000e+000
      vertex -4.688039e-001 4.787234e-001 0.000000e+000
    endloop
  endfacet
  facet normal 8.238338e-001 5.668314e-001 0.000000e+000
    outer loop
      vertex -4.248864e-001 4.148936e-001 4.000000e-001
      vertex -4.248864e-001 4.148936e-001 0.000000e+000
      vertex -4.688039e-001 4.787234e-001 4.000000e-001
    endloop
  endfacet
  facet normal 0.000000e+000 0.000000e+000 -1.000000e+000
    outer loop
      vertex -5.051069e-001 3.510638e-001 0.000000e+000
      vertex -5.340179e-001 5.000000e-001 0.000000e+000
      vertex -4.688039e-001 4.787234e-001 0.000000e+000
    endloop
  endfacet
  facet normal 3.101680e-001 9.506818e-001 0.000000e+000
    outer loop
      vertex -5.340179e-001 5.000000e-001 4.000000e-001
      vertex -4.688039e-001 4.787234e-001 0.000000e+000
      vertex -5.340179e-001 5.000000e-001 0.000000e+000
    endloop
  endfacet
  facet normal 0.000000e+000 0.000000e+000 -1.000000e+000
    outer loop
      vertex -4.850239e-001 3.085106e-001 0.000000e+000
      vertex -5.051069e-001 3.510638e-001 0.000000e+000
      vertex -4.688039e-001 4.787234e-001 0.000000e+000
    endloop
  endfacet
  facet normal 3.101680e-001 9.506818e-001 0.000000e+000
    outer loop
      vertex -4.688039e-001 4.787234e-001 4.000000e-001
      vertex -4.688039e-001 4.787234e-001 0.000000e+000
      vertex -5.340179e-001 5.000000e-001 4.000000e-001
    endloop
  endfacet
  facet normal 0.000000e+000 0.000000e+000 -1.000000e+000
    outer loop
      vertex -5.427346e-001 3.723404e-001 0.000000e+000
      vertex -6.029834e-001 5.000000e-001 0.000000e+000
      vertex -5.340179e-001 5.000000e-001 0.000000e+000
    endloop
  endfacet
  facet normal 0.000000e+000 1.000000e+000 0.000000e+000
    outer loop
      vertex -6.029834e-001 5.000000e-001 4.000000e-001
      vertex -5.340179e-001 5.000000e-001 0.000000e+000
      vertex -6.029834e-001 5.000000e-001 0.000000e+000
    endloop
  endfacet
  facet normal 0.000000e+000 0.000000e+000 -1.000000e+000
    outer loop
      vertex -5.051069e-001 3.510638e-001 0.000000e+000
      vertex -5.427346e-001 3.723404e-001 0.000000e+000
      vertex -5.340179e-001 5.000000e-001 0.000000e+000
    endloop
  endfacet
  facet normal 0.000000e+000 1.000000e+000 0.000000e+000
    outer loop
      vertex -5.340179e-001 5.000000e-001 4.000000e-001
      vertex -5.340179e-001 5.000000e-001 0.000000e+000
      vertex -6.029834e-001 5.000000e-001 4.000000e-001
    endloop
  endfacet
  facet normal 0.000000e+000 0.000000e+000 -1.000000e+000
    outer loop
      vertex -6.254932e-001 3.723404e-001 0.000000e+000
      vertex -6.619074e-001 4.787234e-001 0.000000e+000
      vertex -6.029834e-001 5.000000e-001 0.000000e+000
    endloop
  endfacet
  facet normal -3.396226e-001 9.405618e-001 0.000000e+000
    outer loop
      vertex -6.619074e-001 4.787234e-001 4.000000e-001
      vertex -6.029834e-001 5.000000e-001 0.000000e+000
      vertex -6.619074e-001 4.787234e-001 0.000000e+000
    endloop
  endfacet
  facet normal 0.000000e+000 0.000000e+000 -1.000000e+000
    outer loop
      vertex -5.427346e-001 3.723404e-001 0.000000e+000
      vertex -6.254932e-001 3.723404e-001 0.000000e+000
      vertex -6.029834e-001 5.000000e-001 0.000000e+000
    endloop
  endfacet
  facet normal -3.396226e-001 9.405618e-001 0.000000e+000
    outer loop
      vertex -6.029834e-001 5.000000e-001 4.000000e-001
      vertex -6.029834e-001 5.000000e-001 0.000000e+000
      vertex -6.619074e-001 4.787234e-001 4.000000e-001
    endloop
  endfacet
  facet normal 0.000000e+000 0.000000e+000 -1.000000e+000
    outer loop
      vertex -7.195067e-001 3.085106e-001 0.000000e+000
      vertex -7.245831e-001 4.361702e-001 0.000000e+000
      vertex -6.619074e-001 4.787234e-001 0.000000e+000
    endloop
  endfacet
  facet normal -5.617118e-001 8.273330e-001 0.000000e+000
    outer loop
      vertex -7.245831e-001 4.361702e-001 4.000000e-001
      vertex -6.619074e-001 4.787234e-001 0.000000e+000
      vertex -7.245831e-001 4.361702e-001 0.000000e+000
    endloop
  endfacet
  facet normal 0.000000e+000 0.000000e+000 -1.000000e+000
    outer loop
      vertex -6.706241e-001 3.510638e-001 0.000000e+000
      vertex -7.195067e-001 3.085106e-001 0.000000e+000
      vertex -6.619074e-001 4.787234e-001 0.000000e+000
    endloop
  endfacet
  facet normal 0.000000e+000 0.000000e+000 -1.000000e+000
    outer loop
      vertex -6.254932e-001 3.723404e-001 0.000000e+000
      vertex -6.706241e-001 3.510638e-001 0.000000e+000
      vertex -6.619074e-001 4.787234e-001 0.000000e+000
    endloop
  endfacet
  facet normal -5.617118e-001 8.273330e-001 0.000000e+000
    outer loop
      vertex -6.619074e-001 4.787234e-001 4.000000e-001
      vertex -6.619074e-001 4.787234e-001 0.000000e+000
      vertex -7.245831e-001 4.361702e-001 4.000000e-001
    endloop
  endfacet
  facet normal 0.000000e+000 0.000000e+000 -1.000000e+000
    outer loop
      vertex -7.520580e-001 2.021277e-001 0.000000e+000
      vertex -7.947621e-001 3.510638e-001 0.000000e+000
      vertex -7.245831e-001 4.361702e-001 0.000000e+000
    endloop
  endfacet
  facet normal -7.715237e-001 6.362006e-001 0.000000e+000
    outer loop
      vertex -7.947621e-001 3.510638e-001 4.000000e-001
      vertex -7.245831e-001 4.361702e-001 0.000000e+000
      vertex -7.947621e-001 3.510638e-001 0.000000e+000
    endloop
  endfacet
  facet normal 0.000000e+000 0.000000e+000 -1.000000e+000
    outer loop
      vertex -7.445548e-001 2.446809e-001 0.000000e+000
      vertex -7.520580e-001 2.021277e-001 0.000000e+000
      vertex -7.245831e-001 4.361702e-001 0.000000e+000
    endloop
  endfacet
  facet normal 0.000000e+000 0.000000e+000 -1.000000e+000
    outer loop
      vertex -7.195067e-001 3.085106e-001 0.000000e+000
      vertex -7.445548e-001 2.446809e-001 0.000000e+000
      vertex -7.245831e-001 4.361702e-001 0.000000e+000
    endloop
  endfacet
  facet normal -7.715237e-001 6.362006e-001 0.000000e+000
    outer loop
      vertex -7.245831e-001 4.361702e-001 4.000000e-001
      vertex -7.245831e-001 4.361702e-001 0.000000e+000
      vertex -7.947621e-001 3.510638e-001 4.000000e-001
    endloop
  endfacet
  facet normal 0.000000e+000 0.000000e+000 -1.000000e+000
    outer loop
      vertex -7.996159e-001 1.063830e-002 0.000000e+000
      vertex -8.235617e-001 2.659574e-001 0.000000e+000
      vertex -7.947621e-001 3.510638e-001 0.000000e+000
    endloop
  endfacet
  facet normal -9.472348e-001 3.205404e-001 0.000000e+000
    outer loop
      vertex -8.235617e-001 2.659574e-001 4.000000e-001
      vertex -7.947621e-001 3.510638e-001 0.000000e+000
      vertex -8.235617e-001 2.659574e-001 0.000000e+000
    endloop
  endfacet
  facet normal 0.000000e+000 0.000000e+000 -1.000000e+000
    outer loop
      vertex -7.520580e-001 2.021277e-001 0.000000e+000
      vertex -7.996159e-001 1.063830e-002 0.000000e+000
      vertex -7.947621e-001 3.510638e-001 0.000000e+000
    endloop
  endfacet
  facet normal -9.472348e-001 3.205404e-001 0.000000e+000
    outer loop
      vertex -7.947621e-001 3.510638e-001 4.000000e-001
      vertex -7.947621e-001 3.510638e-001 0.000000e+000
      vertex -8.235617e-001 2.659574e-001 4.000000e-001
    endloop
  endfacet
  facet normal 0.000000e+000 0.000000e+000 -1.000000e+000
    outer loop
      vertex -8.397817e-001 9.574468e-002 0.000000e+000
      vertex -8.385683e-001 1.808511e-001 0.000000e+000
      vertex -8.235617e-001 2.659574e-001 0.000000e+000
    endloop
  endfacet
  facet normal -9.848078e-001 1.736481e-001 0.000000e+000
    outer loop
      vertex -8.385683e-001 1.808511e-001 4.000000e-001
      vertex -8.235617e-001 2.659574e-001 0.000000e+000
      vertex -8.385683e-001 1.808511e-001 0.000000e+000
    endloop
  endfacet
  facet normal 0.000000e+000 0.000000e+000 -1.000000e+000
    outer loop
      vertex -7.996159e-001 1.063830e-002 0.000000e+000
      vertex -8.397817e-001 9.574468e-002 0.000000e+000
      vertex -8.235617e-001 2.659574e-001 0.000000e+000
    endloop
  endfacet
  facet normal -9.848078e-001 1.736481e-001 0.000000e+000
    outer loop
      vertex -8.235617e-001 2.659574e-001 4.000000e-001
      vertex -8.235617e-001 2.659574e-001 0.000000e+000
      vertex -8.385683e-001 1.808511e-001 4.000000e-001
    endloop
  endfacet
  facet normal -9.998984e-001 1.425637e-002 0.000000e+000
    outer loop
      vertex -8.397817e-001 9.574468e-002 4.000000e-001
      vertex -8.385683e-001 1.808511e-001 0.000000e+000
      vertex -8.397817e-001 9.574468e-002 0.000000e+000
    endloop
  endfacet
  facet normal -9.998984e-001 1.425637e-002 0.000000e+000
    outer loop
      vertex -8.385683e-001 1.808511e-001 4.000000e-001
      vertex -8.385683e-001 1.808511e-001 0.000000e+000
      vertex -8.397817e-001 9.574468e-002 4.000000e-001
    endloop
  endfacet
  facet normal -9.043442e-001 -4.268040e-001 0.000000e+000
    outer loop
      vertex -7.996159e-001 1.063830e-002 4.000000e-001
      vertex -8.397817e-001 9.574468e-002 0.000000e+000
      vertex -7.996159e-001 1.063830e-002 0.000000e+000
    endloop
  endfacet
  facet normal -9.043442e-001 -4.268040e-001 0.000000e+000
    outer loop
      vertex -8.397817e-001 9.574468e-002 4.000000e-001
      vertex -8.397817e-001 9.574468e-002 0.000000e+000
      vertex -7.996159e-001 1.063830e-002 4.000000e-001
    endloop
  endfacet
  facet normal 0.000000e+000 0.000000e+000 -1.000000e+000
    outer loop
      vertex -7.520580e-001 2.021277e-001 0.000000e+000
      vertex -7.519467e-001 -3.191489e-002 0.000000e+000
      vertex -7.996159e-001 1.063830e-002 0.000000e+000
    endloop
  endfacet
  facet normal -6.659411e-001 -7.460043e-001 0.000000e+000
    outer loop
      vertex -7.519467e-001 -3.191489e-002 4.000000e-001
      vertex -7.996159e-001 1.063830e-002 0.000000e+000
      vertex -7.519467e-001 -3.191489e-002 0.000000e+000
    endloop
  endfacet
  facet normal -6.659411e-001 -7.460043e-001 0.000000e+000
    outer loop
      vertex -7.996159e-001 1.063830e-002 4.000000e-001
      vertex -7.996159e-001 1.063830e-002 0.000000e+000
      vertex -7.519467e-001 -3.191489e-002 4.000000e-001
    endloop
  endfacet
  facet normal 0.000000e+000 0.000000e+000 -1.000000e+000
    outer loop
      vertex -7.156438e-001 9.574468e-002 0.000000e+000
      vertex -7.005259e-001 -5.319149e-002 0.000000e+000
      vertex -7.519467e-001 -3.191489e-002 0.000000e+000
    endloop
  endfacet
  facet normal -3.823372e-001 -9.240229e-001 0.000000e+000
    outer loop
      vertex -7.005259e-001 -5.319149e-002 4.000000e-001
      vertex -7.519467e-001 -3.191489e-002 0.000000e+000
      vertex -7.005259e-001 -5.319149e-002 0.000000e+000
    endloop
  endfacet
  facet normal 0.000000e+000 0.000000e+000 -1.000000e+000
    outer loop
      vertex -7.495198e-001 1.382979e-001 0.000000e+000
      vertex -7.156438e-001 9.574468e-002 0.000000e+000
      vertex -7.519467e-001 -3.191489e-002 0.000000e+000
    endloop
  endfacet
  facet normal 0.000000e+000 0.000000e+000 -1.000000e+000
    outer loop
      vertex -7.520580e-001 2.021277e-001 0.000000e+000
      vertex -7.495198e-001 1.382979e-001 0.000000e+000
      vertex -7.519467e-001 -3.191489e-002 0.000000e+000
    endloop
  endfacet
  facet normal -3.823372e-001 -9.240229e-001 0.000000e+000
    outer loop
      vertex -7.519467e-001 -3.191489e-002 4.000000e-001
      vertex -7.519467e-001 -3.191489e-002 0.000000e+000
      vertex -7.005259e-001 -5.319149e-002 4.000000e-001
    endloop
  endfacet
  facet normal 0.000000e+000 0.000000e+000 -1.000000e+000
    outer loop
      vertex -6.780161e-001 7.446808e-002 0.000000e+000
      vertex -6.177673e-001 -5.319149e-002 0.000000e+000
      vertex -7.005259e-001 -5.319149e-002 0.000000e+000
    endloop
  endfacet
  facet normal 0.000000e+000 -1.000000e+000 0.000000e+000
    outer loop
      vertex -6.177673e-001 -5.319149e-002 4.000000e-001
      vertex -7.005259e-001 -5.319149e-002 0.000000e+000
      vertex -6.177673e-001 -5.319149e-002 0.000000e+000
    endloop
  endfacet
  facet normal 0.000000e+000 0.000000e+000 -1.000000e+000
    outer loop
      vertex -7.156438e-001 9.574468e-002 0.000000e+000
      vertex -6.780161e-001 7.446808e-002 0.000000e+000
      vertex -7.005259e-001 -5.319149e-002 0.000000e+000
    endloop
  endfacet
  facet normal 0.000000e+000 -1.000000e+000 0.000000e+000
    outer loop
      vertex -7.005259e-001 -5.319149e-002 4.000000e-001
      vertex -7.005259e-001 -5.319149e-002 0.000000e+000
      vertex -6.177673e-001 -5.319149e-002 4.000000e-001
    endloop
  endfacet
  facet normal 0.000000e+000 0.000000e+000 -1.000000e+000
    outer loop
      vertex -5.952575e-001 7.446808e-002 0.000000e+000
      vertex -5.663465e-001 -7.446808e-002 0.000000e+000
      vertex -6.177673e-001 -5.319149e-002 0.000000e+000
    endloop
  endfacet
  facet normal -3.823367e-001 -9.240231e-001 0.000000e+000
    outer loop
      vertex -5.663465e-001 -7.446808e-002 4.000000e-001
      vertex -6.177673e-001 -5.319149e-002 0.000000e+000
      vertex -5.663465e-001 -7.446808e-002 0.000000e+000
    endloop
  endfacet
  facet normal 0.000000e+000 0.000000e+000 -1.000000e+000
    outer loop
      vertex -6.780161e-001 7.446808e-002 0.000000e+000
      vertex -5.952575e-001 7.446808e-002 0.000000e+000
      vertex -6.177673e-001 -5.319149e-002 0.000000e+000
    endloop
  endfacet
  facet normal -3.823367e-001 -9.240231e-001 0.000000e+000
    outer loop
      vertex -6.177673e-001 -5.319149e-002 4.000000e-001
      vertex -6.177673e-001 -5.319149e-002 0.000000e+000
      vertex -5.663465e-001 -7.446808e-002 4.000000e-001
    endloop
  endfacet
  facet normal 0.000000e+000 0.000000e+000 -1.000000e+000
    outer loop
      vertex -5.300436e-001 5.319149e-002 0.000000e+000
      vertex -5.324705e-001 -1.170213e-001 0.000000e+000
      vertex -5.663465e-001 -7.446808e-002 0.000000e+000
    endloop
  endfacet
  facet normal -7.823603e-001 -6.228261e-001 0.000000e+000
    outer loop
      vertex -5.324705e-001 -1.170213e-001 4.000000e-001
      vertex -5.663465e-001 -7.446808e-002 0.000000e+000
      vertex -5.324705e-001 -1.170213e-001 0.000000e+000
    endloop
  endfacet
  facet normal 0.000000e+000 0.000000e+000 -1.000000e+000
    outer loop
      vertex -5.952575e-001 7.446808e-002 0.000000e+000
      vertex -5.300436e-001 5.319149e-002 0.000000e+000
      vertex -5.663465e-001 -7.446808e-002 0.000000e+000
    endloop
  endfacet
  facet normal -7.823603e-001 -6.228261e-001 0.000000e+000
    outer loop
      vertex -5.663465e-001 -7.446808e-002 4.000000e-001
      vertex -5.663465e-001 -7.446808e-002 0.000000e+000
      vertex -5.324705e-001 -1.170213e-001 4.000000e-001
    endloop
  endfacet
  facet normal 0.000000e+000 0.000000e+000 -1.000000e+000
    outer loop
      vertex -5.300436e-001 5.319149e-002 0.000000e+000
      vertex -5.161392e-001 -1.808511e-001 0.000000e+000
      vertex -5.324705e-001 -1.170213e-001 0.000000e+000
    endloop
  endfacet
  facet normal -9.687926e-001 -2.478727e-001 0.000000e+000
    outer loop
      vertex -5.161392e-001 -1.808511e-001 4.000000e-001
      vertex -5.324705e-001 -1.170213e-001 0.000000e+000
      vertex -5.161392e-001 -1.808511e-001 0.000000e+000
    endloop
  endfacet
  facet normal -9.687926e-001 -2.478727e-001 0.000000e+000
    outer loop
      vertex -5.324705e-001 -1.170213e-001 4.000000e-001
      vertex -5.324705e-001 -1.170213e-001 0.000000e+000
      vertex -5.161392e-001 -1.808511e-001 4.000000e-001
    endloop
  endfacet
  facet normal 0.000000e+000 0.000000e+000 -1.000000e+000
    outer loop
      vertex -4.909799e-001 -3.510638e-001 0.000000e+000
      vertex -5.273941e-001 -2.446809e-001 0.000000e+000
      vertex -5.161392e-001 -1.808511e-001 0.000000e+000
    endloop
  endfacet
  facet normal -9.848078e-001 1.736481e-001 0.000000e+000
    outer loop
      vertex -5.273941e-001 -2.446809e-001 4.000000e-001
      vertex -5.161392e-001 -1.808511e-001 0.000000e+000
      vertex -5.273941e-001 -2.446809e-001 0.000000e+000
    endloop
  endfacet
  facet normal 0.000000e+000 0.000000e+000 -1.000000e+000
    outer loop
      vertex -4.823745e-001 1.063830e-002 0.000000e+000
      vertex -4.909799e-001 -3.510638e-001 0.000000e+000
      vertex -5.161392e-001 -1.808511e-001 0.000000e+000
    endloop
  endfacet
  facet normal 0.000000e+000 0.000000e+000 -1.000000e+000
    outer loop
      vertex -5.300436e-001 5.319149e-002 0.000000e+000
      vertex -4.823745e-001 1.063830e-002 0.000000e+000
      vertex -5.161392e-001 -1.808511e-001 0.000000e+000
    endloop
  endfacet
  facet normal -9.848078e-001 1.736481e-001 0.000000e+000
    outer loop
      vertex -5.161392e-001 -1.808511e-001 4.000000e-001
      vertex -5.161392e-001 -1.808511e-001 0.000000e+000
      vertex -5.273941e-001 -2.446809e-001 4.000000e-001
    endloop
  endfacet
  facet normal 0.000000e+000 0.000000e+000 -1.000000e+000
    outer loop
      vertex -5.611588e-001 -4.361702e-001 0.000000e+000
      vertex -5.662352e-001 -3.085106e-001 0.000000e+000
      vertex -5.273941e-001 -2.446809e-001 0.000000e+000
    endloop
  endfacet
  facet normal -8.542686e-001 5.198319e-001 0.000000e+000
    outer loop
      vertex -5.662352e-001 -3.085106e-001 4.000000e-001
      vertex -5.273941e-001 -2.446809e-001 0.000000e+000
      vertex -5.662352e-001 -3.085106e-001 0.000000e+000
    endloop
  endfacet
  facet normal 0.000000e+000 0.000000e+000 -1.000000e+000
    outer loop
      vertex -4.909799e-001 -3.510638e-001 0.000000e+000
      vertex -5.611588e-001 -4.361702e-001 0.000000e+000
      vertex -5.273941e-001 -2.446809e-001 0.000000e+000
    endloop
  endfacet
  facet normal -8.542686e-001 5.198319e-001 0.000000e+000
    outer loop
      vertex -5.273941e-001 -2.446809e-001 4.000000e-001
      vertex -5.273941e-001 -2.446809e-001 0.000000e+000
      vertex -5.662352e-001 -3.085106e-001 4.000000e-001
    endloop
  endfacet
  facet normal 0.000000e+000 0.000000e+000 -1.000000e+000
    outer loop
      vertex -6.238346e-001 -4.787234e-001 0.000000e+000
      vertex -6.151178e-001 -3.510638e-001 0.000000e+000
      vertex -5.662352e-001 -3.085106e-001 0.000000e+000
    endloop
  endfacet
  facet normal -6.565878e-001 7.542496e-001 0.000000e+000
    outer loop
      vertex -6.151178e-001 -3.510638e-001 4.000000e-001
      vertex -5.662352e-001 -3.085106e-001 0.000000e+000
      vertex -6.151178e-001 -3.510638e-001 0.000000e+000
    endloop
  endfacet
  facet normal 0.000000e+000 0.000000e+000 -1.000000e+000
    outer loop
      vertex -5.611588e-001 -4.361702e-001 0.000000e+000
      vertex -6.238346e-001 -4.787234e-001 0.000000e+000
      vertex -5.662352e-001 -3.085106e-001 0.000000e+000
    endloop
  endfacet
  facet normal -6.565878e-001 7.542496e-001 0.000000e+000
    outer loop
      vertex -5.662352e-001 -3.085106e-001 4.000000e-001
      vertex -5.662352e-001 -3.085106e-001 0.000000e+000
      vertex -6.151178e-001 -3.510638e-001 4.000000e-001
    endloop
  endfacet
  facet normal 0.000000e+000 0.000000e+000 -1.000000e+000
    outer loop
      vertex -6.238346e-001 -4.787234e-001 0.000000e+000
      vertex -6.740419e-001 -3.723404e-001 0.000000e+000
      vertex -6.151178e-001 -3.510638e-001 0.000000e+000
    endloop
  endfacet
  facet normal -3.396229e-001 9.405617e-001 0.000000e+000
    outer loop
      vertex -6.740419e-001 -3.723404e-001 4.000000e-001
      vertex -6.151178e-001 -3.510638e-001 0.000000e+000
      vertex -6.740419e-001 -3.723404e-001 0.000000e+000
    endloop
  endfacet
  facet normal -3.396229e-001 9.405617e-001 0.000000e+000
    outer loop
      vertex -6.151178e-001 -3.510638e-001 4.000000e-001
      vertex -6.151178e-001 -3.510638e-001 0.000000e+000
      vertex -6.740419e-001 -3.723404e-001 4.000000e-001
    endloop
  endfacet
  facet normal 0.000000e+000 0.000000e+000 -1.000000e+000
    outer loop
      vertex -6.965517e-001 -5.000000e-001 0.000000e+000
      vertex -7.843867e-001 -3.723404e-001 0.000000e+000
      vertex -6.740419e-001 -3.723404e-001 0.000000e+000
    endloop
  endfacet
  facet normal 0.000000e+000 1.000000e+000 0.000000e+000
    outer loop
      vertex -7.843867e-001 -3.723404e-001 4.000000e-001
      vertex -6.740419e-001 -3.723404e-001 0.000000e+000
      vertex -7.843867e-001 -3.723404e-001 0.000000e+000
    endloop
  endfacet
  facet normal 0.000000e+000 0.000000e+000 -1.000000e+000
    outer loop
      vertex -6.238346e-001 -4.787234e-001 0.000000e+000
      vertex -6.965517e-001 -5.000000e-001 0.000000e+000
      vertex -6.740419e-001 -3.723404e-001 0.000000e+000
    endloop
  endfacet
  facet normal 0.000000e+000 1.000000e+000 0.000000e+000
    outer loop
      vertex -6.740419e-001 -3.723404e-001 4.000000e-001
      vertex -6.740419e-001 -3.723404e-001 0.000000e+000
      vertex -7.843867e-001 -3.723404e-001 4.000000e-001
    endloop
  endfacet
  facet normal 0.000000e+000 0.000000e+000 -1.000000e+000
    outer loop
      vertex -8.068966e-001 -5.000000e-001 0.000000e+000
      vertex -8.358075e-001 -3.510638e-001 0.000000e+000
      vertex -7.843867e-001 -3.723404e-001 0.000000e+000
    endloop
  endfacet
  facet normal 3.823367e-001 9.240231e-001 0.000000e+000
    outer loop
      vertex -8.358075e-001 -3.510638e-001 4.000000e-001
      vertex -7.843867e-001 -3.723404e-001 0.000000e+000
      vertex -8.358075e-001 -3.510638e-001 0.000000e+000
    endloop
  endfacet
  facet normal 0.000000e+000 0.000000e+000 -1.000000e+000
    outer loop
      vertex -6.965517e-001 -5.000000e-001 0.000000e+000
      vertex -8.068966e-001 -5.000000e-001 0.000000e+000
      vertex -7.843867e-001 -3.723404e-001 0.000000e+000
    endloop
  endfacet
  facet normal 3.823367e-001 9.240231e-001 0.000000e+000
    outer loop
      vertex -7.843867e-001 -3.723404e-001 4.000000e-001
      vertex -7.843867e-001 -3.723404e-001 0.000000e+000
      vertex -8.358075e-001 -3.510638e-001 4.000000e-001
    endloop
  endfacet
  facet normal 0.000000e+000 0.000000e+000 -1.000000e+000
    outer loop
      vertex -8.721104e-001 -4.787234e-001 0.000000e+000
      vertex -8.659319e-001 -2.872340e-001 0.000000e+000
      vertex -8.358075e-001 -3.510638e-001 0.000000e+000
    endloop
  endfacet
  facet normal 9.043442e-001 4.268039e-001 0.000000e+000
    outer loop
      vertex -8.659319e-001 -2.872340e-001 4.000000e-001
      vertex -8.358075e-001 -3.510638e-001 0.000000e+000
      vertex -8.659319e-001 -2.872340e-001 0.000000e+000
    endloop
  endfacet
  facet normal 0.000000e+000 0.000000e+000 -1.000000e+000
    outer loop
      vertex -8.068966e-001 -5.000000e-001 0.000000e+000
      vertex -8.721104e-001 -4.787234e-001 0.000000e+000
      vertex -8.358075e-001 -3.510638e-001 0.000000e+000
    endloop
  endfacet
  facet normal 9.043442e-001 4.268039e-001 0.000000e+000
    outer loop
      vertex -8.358075e-001 -3.510638e-001 4.000000e-001
      vertex -8.358075e-001 -3.510638e-001 0.000000e+000
      vertex -8.659319e-001 -2.872340e-001 4.000000e-001
    endloop
  endfacet
  facet normal 0.000000e+000 0.000000e+000 -1.000000e+000
    outer loop
      vertex -8.721104e-001 -4.787234e-001 0.000000e+000
      vertex -8.684701e-001 -2.234043e-001 0.000000e+000
      vertex -8.659319e-001 -2.872340e-001 0.000000e+000
    endloop
  endfacet
  facet normal 9.992103e-001 3.973380e-002 0.000000e+000
    outer loop
      vertex -8.684701e-001 -2.234043e-001 4.000000e-001
      vertex -8.659319e-001 -2.872340e-001 0.000000e+000
      vertex -8.684701e-001 -2.234043e-001 0.000000e+000
    endloop
  endfacet
  facet normal 9.992103e-001 3.973380e-002 0.000000e+000
    outer loop
      vertex -8.659319e-001 -2.872340e-001 4.000000e-001
      vertex -8.659319e-001 -2.872340e-001 0.000000e+000
      vertex -8.684701e-001 -2.234043e-001 4.000000e-001
    endloop
  endfacet
  facet normal 0.000000e+000 0.000000e+000 -1.000000e+000
    outer loop
      vertex -9.298210e-001 -4.148936e-001 0.000000e+000
      vertex -9.512287e-001 -2.234043e-001 0.000000e+000
      vertex -8.684701e-001 -2.234043e-001 0.000000e+000
    endloop
  endfacet
  facet normal 0.000000e+000 1.000000e+000 0.000000e+000
    outer loop
      vertex -9.512287e-001 -2.234043e-001 4.000000e-001
      vertex -8.684701e-001 -2.234043e-001 0.000000e+000
      vertex -9.512287e-001 -2.234043e-001 0.000000e+000
    endloop
  endfacet
  facet normal 0.000000e+000 0.000000e+000 -1.000000e+000
    outer loop
      vertex -8.721104e-001 -4.787234e-001 0.000000e+000
      vertex -9.298210e-001 -4.148936e-001 0.000000e+000
      vertex -8.684701e-001 -2.234043e-001 0.000000e+000
    endloop
  endfacet
  facet normal 0.000000e+000 1.000000e+000 0.000000e+000
    outer loop
      vertex -8.684701e-001 -2.234043e-001 4.000000e-001
      vertex -8.684701e-001 -2.234043e-001 0.000000e+000
      vertex -9.512287e-001 -2.234043e-001 4.000000e-001
    endloop
  endfacet
  facet normal 0.000000e+000 0.000000e+000 -1.000000e+000
    outer loop
      vertex -9.298210e-001 -4.148936e-001 0.000000e+000
      vertex -9.524422e-001 -3.085106e-001 0.000000e+000
      vertex -9.512287e-001 -2.234043e-001 0.000000e+000
    endloop
  endfacet
  facet normal -9.998984e-001 1.425707e-002 0.000000e+000
    outer loop
      vertex -9.524422e-001 -3.085106e-001 4.000000e-001
      vertex -9.512287e-001 -2.234043e-001 0.000000e+000
      vertex -9.524422e-001 -3.085106e-001 0.000000e+000
    endloop
  endfacet
  facet normal -9.998984e-001 1.425707e-002 0.000000e+000
    outer loop
      vertex -9.512287e-001 -2.234043e-001 4.000000e-001
      vertex -9.512287e-001 -2.234043e-001 0.000000e+000
      vertex -9.524422e-001 -3.085106e-001 4.000000e-001
    endloop
  endfacet
  facet normal -9.781312e-001 -2.079887e-001 0.000000e+000
    outer loop
      vertex -9.298210e-001 -4.148936e-001 4.000000e-001
      vertex -9.524422e-001 -3.085106e-001 0.000000e+000
      vertex -9.298210e-001 -4.148936e-001 0.000000e+000
    endloop
  endfacet
  facet normal -9.781312e-001 -2.079887e-001 0.000000e+000
    outer loop
      vertex -9.524422e-001 -3.085106e-001 4.000000e-001
      vertex -9.524422e-001 -3.085106e-001 0.000000e+000
      vertex -9.298210e-001 -4.148936e-001 4.000000e-001
    endloop
  endfacet
  facet normal -7.417680e-001 -6.706566e-001 0.000000e+000
    outer loop
      vertex -8.721104e-001 -4.787234e-001 4.000000e-001
      vertex -9.298210e-001 -4.148936e-001 0.000000e+000
      vertex -8.721104e-001 -4.787234e-001 0.000000e+000
    endloop
  endfacet
  facet normal -7.417680e-001 -6.706566e-001 0.000000e+000
    outer loop
      vertex -9.298210e-001 -4.148936e-001 4.000000e-001
      vertex -9.298210e-001 -4.148936e-001 0.000000e+000
      vertex -8.721104e-001 -4.787234e-001 4.000000e-001
    endloop
  endfacet
  facet normal -3.101682e-001 -9.506817e-001 0.000000e+000
    outer loop
      vertex -8.068966e-001 -5.000000e-001 4.000000e-001
      vertex -8.721104e-001 -4.787234e-001 0.000000e+000
      vertex -8.068966e-001 -5.000000e-001 0.000000e+000
    endloop
  endfacet
  facet normal -3.101682e-001 -9.506817e-001 0.000000e+000
    outer loop
      vertex -8.721104e-001 -4.787234e-001 4.000000e-001
      vertex -8.721104e-001 -4.787234e-001 0.000000e+000
      vertex -8.068966e-001 -5.000000e-001 4.000000e-001
    endloop
  endfacet
  facet normal 0.000000e+000 -1.000000e+000 0.000000e+000
    outer loop
      vertex -6.965517e-001 -5.000000e-001 4.000000e-001
      vertex -8.068966e-001 -5.000000e-001 0.000000e+000
      vertex -6.965517e-001 -5.000000e-001 0.000000e+000
    endloop
  endfacet
  facet normal 0.000000e+000 -1.000000e+000 0.000000e+000
    outer loop
      vertex -8.068966e-001 -5.000000e-001 4.000000e-001
      vertex -8.068966e-001 -5.000000e-001 0.000000e+000
      vertex -6.965517e-001 -5.000000e-001 4.000000e-001
    endloop
  endfacet
  facet normal 2.808201e-001 -9.597604e-001 0.000000e+000
    outer loop
      vertex -6.238346e-001 -4.787234e-001 4.000000e-001
      vertex -6.965517e-001 -5.000000e-001 0.000000e+000
      vertex -6.238346e-001 -4.787234e-001 0.000000e+000
    endloop
  endfacet
  facet normal 2.808201e-001 -9.597604e-001 0.000000e+000
    outer loop
      vertex -6.965517e-001 -5.000000e-001 4.000000e-001
      vertex -6.965517e-001 -5.000000e-001 0.000000e+000
      vertex -6.238346e-001 -4.787234e-001 4.000000e-001
    endloop
  endfacet
  facet normal 5.617114e-001 -8.273332e-001 0.000000e+000
    outer loop
      vertex -5.611588e-001 -4.361702e-001 4.000000e-001
      vertex -6.238346e-001 -4.787234e-001 0.000000e+000
      vertex -5.611588e-001 -4.361702e-001 0.000000e+000
    endloop
  endfacet
  facet normal 5.617114e-001 -8.273332e-001 0.000000e+000
    outer loop
      vertex -6.238346e-001 -4.787234e-001 4.000000e-001
      vertex -6.238346e-001 -4.787234e-001 0.000000e+000
      vertex -5.611588e-001 -4.361702e-001 4.000000e-001
    endloop
  endfacet
  facet normal 7.715238e-001 -6.362005e-001 0.000000e+000
    outer loop
      vertex -4.909799e-001 -3.510638e-001 4.000000e-001
      vertex -5.611588e-001 -4.361702e-001 0.000000e+000
      vertex -4.909799e-001 -3.510638e-001 0.000000e+000
    endloop
  endfacet
  facet normal 7.715238e-001 -6.362005e-001 0.000000e+000
    outer loop
      vertex -5.611588e-001 -4.361702e-001 4.000000e-001
      vertex -5.611588e-001 -4.361702e-001 0.000000e+000
      vertex -4.909799e-001 -3.510638e-001 4.000000e-001
    endloop
  endfacet
  facet normal 0.000000e+000 0.000000e+000 -1.000000e+000
    outer loop
      vertex -4.823745e-001 1.063830e-002 0.000000e+000
      vertex -4.483871e-001 -2.659574e-001 0.000000e+000
      vertex -4.909799e-001 -3.510638e-001 0.000000e+000
    endloop
  endfacet
  facet normal 8.942608e-001 -4.475463e-001 0.000000e+000
    outer loop
      vertex -4.483871e-001 -2.659574e-001 4.000000e-001
      vertex -4.909799e-001 -3.510638e-001 0.000000e+000
      vertex -4.483871e-001 -2.659574e-001 0.000000e+000
    endloop
  endfacet
  facet normal 8.942608e-001 -4.475463e-001 0.000000e+000
    outer loop
      vertex -4.909799e-001 -3.510638e-001 4.000000e-001
      vertex -4.909799e-001 -3.510638e-001 0.000000e+000
      vertex -4.483871e-001 -2.659574e-001 4.000000e-001
    endloop
  endfacet
  facet normal 0.000000e+000 0.000000e+000 -1.000000e+000
    outer loop
      vertex -4.422086e-001 -7.446808e-002 0.000000e+000
      vertex -4.296289e-001 -1.595745e-001 0.000000e+000
      vertex -4.483871e-001 -2.659574e-001 0.000000e+000
    endloop
  endfacet
  facet normal 9.848078e-001 -1.736481e-001 0.000000e+000
    outer loop
      vertex -4.296289e-001 -1.595745e-001 4.000000e-001
      vertex -4.483871e-001 -2.659574e-001 0.000000e+000
      vertex -4.296289e-001 -1.595745e-001 0.000000e+000
    endloop
  endfacet
  facet normal 0.000000e+000 0.000000e+000 -1.000000e+000
    outer loop
      vertex -4.823745e-001 1.063830e-002 0.000000e+000
      vertex -4.422086e-001 -7.446808e-002 0.000000e+000
      vertex -4.483871e-001 -2.659574e-001 0.000000e+000
    endloop
  endfacet
  facet normal 9.848078e-001 -1.736481e-001 0.000000e+000
    outer loop
      vertex -4.483871e-001 -2.659574e-001 4.000000e-001
      vertex -4.483871e-001 -2.659574e-001 0.000000e+000
      vertex -4.296289e-001 -1.595745e-001 4.000000e-001
    endloop
  endfacet
  facet normal 9.892518e-001 1.462222e-001 0.000000e+000
    outer loop
      vertex -4.422086e-001 -7.446808e-002 4.000000e-001
      vertex -4.296289e-001 -1.595745e-001 0.000000e+000
      vertex -4.422086e-001 -7.446808e-002 0.000000e+000
    endloop
  endfacet
  facet normal 9.892518e-001 1.462222e-001 0.000000e+000
    outer loop
      vertex -4.296289e-001 -1.595745e-001 4.000000e-001
      vertex -4.296289e-001 -1.595745e-001 0.000000e+000
      vertex -4.422086e-001 -7.446808e-002 4.000000e-001
    endloop
  endfacet
  facet normal 9.043440e-001 4.268043e-001 0.000000e+000
    outer loop
      vertex -4.823745e-001 1.063830e-002 4.000000e-001
      vertex -4.422086e-001 -7.446808e-002 0.000000e+000
      vertex -4.823745e-001 1.063830e-002 0.000000e+000
    endloop
  endfacet
  facet normal 9.043440e-001 4.268043e-001 0.000000e+000
    outer loop
      vertex -4.422086e-001 -7.446808e-002 4.000000e-001
      vertex -4.422086e-001 -7.446808e-002 0.000000e+000
      vertex -4.823745e-001 1.063830e-002 4.000000e-001
    endloop
  endfacet
  facet normal 6.659414e-001 7.460041e-001 0.000000e+000
    outer loop
      vertex -5.300436e-001 5.319149e-002 4.000000e-001
      vertex -4.823745e-001 1.063830e-002 0.000000e+000
      vertex -5.300436e-001 5.319149e-002 0.000000e+000
    endloop
  endfacet
  facet normal 6.659414e-001 7.460041e-001 0.000000e+000
    outer loop
      vertex -4.823745e-001 1.063830e-002 4.000000e-001
      vertex -4.823745e-001 1.063830e-002 0.000000e+000
      vertex -5.300436e-001 5.319149e-002 4.000000e-001
    endloop
  endfacet
  facet normal 3.101682e-001 9.506817e-001 0.000000e+000
    outer loop
      vertex -5.952575e-001 7.446808e-002 4.000000e-001
      vertex -5.300436e-001 5.319149e-002 0.000000e+000
      vertex -5.952575e-001 7.446808e-002 0.000000e+000
    endloop
  endfacet
  facet normal 3.101682e-001 9.506817e-001 0.000000e+000
    outer loop
      vertex -5.300436e-001 5.319149e-002 4.000000e-001
      vertex -5.300436e-001 5.319149e-002 0.000000e+000
      vertex -5.952575e-001 7.446808e-002 4.000000e-001
    endloop
  endfacet
  facet normal 0.000000e+000 1.000000e+000 0.000000e+000
    outer loop
      vertex -6.780161e-001 7.446808e-002 4.000000e-001
      vertex -5.952575e-001 7.446808e-002 0.000000e+000
      vertex -6.780161e-001 7.446808e-002 0.000000e+000
    endloop
  endfacet
  facet normal 0.000000e+000 1.000000e+000 0.000000e+000
    outer loop
      vertex -5.952575e-001 7.446808e-002 4.000000e-001
      vertex -5.952575e-001 7.446808e-002 0.000000e+000
      vertex -6.780161e-001 7.446808e-002 4.000000e-001
    endloop
  endfacet
  facet normal 4.922116e-001 8.704756e-001 0.000000e+000
    outer loop
      vertex -7.156438e-001 9.574468e-002 4.000000e-001
      vertex -6.780161e-001 7.446808e-002 0.000000e+000
      vertex -7.156438e-001 9.574468e-002 0.000000e+000
    endloop
  endfacet
  facet normal 4.922116e-001 8.704756e-001 0.000000e+000
    outer loop
      vertex -6.780161e-001 7.446808e-002 4.000000e-001
      vertex -6.780161e-001 7.446808e-002 0.000000e+000
      vertex -7.156438e-001 9.574468e-002 4.000000e-001
    endloop
  endfacet
  facet normal 7.823597e-001 6.228268e-001 0.000000e+000
    outer loop
      vertex -7.495198e-001 1.382979e-001 4.000000e-001
      vertex -7.156438e-001 9.574468e-002 0.000000e+000
      vertex -7.495198e-001 1.382979e-001 0.000000e+000
    endloop
  endfacet
  facet normal 7.823597e-001 6.228268e-001 0.000000e+000
    outer loop
      vertex -7.156438e-001 9.574468e-002 4.000000e-001
      vertex -7.156438e-001 9.574468e-002 0.000000e+000
      vertex -7.495198e-001 1.382979e-001 4.000000e-001
    endloop
  endfacet
  facet normal 9.992103e-001 3.973379e-002 0.000000e+000
    outer loop
      vertex -7.520580e-001 2.021277e-001 4.000000e-001
      vertex -7.495198e-001 1.382979e-001 0.000000e+000
      vertex -7.520580e-001 2.021277e-001 0.000000e+000
    endloop
  endfacet
  facet normal 9.992103e-001 3.973379e-002 0.000000e+000
    outer loop
      vertex -7.495198e-001 1.382979e-001 4.000000e-001
      vertex -7.495198e-001 1.382979e-001 0.000000e+000
      vertex -7.520580e-001 2.021277e-001 4.000000e-001
    endloop
  endfacet
  facet normal 9.848078e-001 -1.736481e-001 0.000000e+000
    outer loop
      vertex -7.445548e-001 2.446809e-001 4.000000e-001
      vertex -7.520580e-001 2.021277e-001 0.000000e+000
      vertex -7.445548e-001 2.446809e-001 0.000000e+000
    endloop
  endfacet
  facet normal 9.848078e-001 -1.736481e-001 0.000000e+000
    outer loop
      vertex -7.520580e-001 2.021277e-001 4.000000e-001
      vertex -7.520580e-001 2.021277e-001 0.000000e+000
      vertex -7.445548e-001 2.446809e-001 4.000000e-001
    endloop
  endfacet
  facet normal 9.308902e-001 -3.652990e-001 0.000000e+000
    outer loop
      vertex -7.195067e-001 3.085106e-001 4.000000e-001
      vertex -7.445548e-001 2.446809e-001 0.000000e+000
      vertex -7.195067e-001 3.085106e-001 0.000000e+000
    endloop
  endfacet
  facet normal 9.308902e-001 -3.652990e-001 0.000000e+000
    outer loop
      vertex -7.445548e-001 2.446809e-001 4.000000e-001
      vertex -7.445548e-001 2.446809e-001 0.000000e+000
      vertex -7.195067e-001 3.085106e-001 4.000000e-001
    endloop
  endfacet
  facet normal 6.565878e-001 -7.542496e-001 0.000000e+000
    outer loop
      vertex -6.706241e-001 3.510638e-001 4.000000e-001
      vertex -7.195067e-001 3.085106e-001 0.000000e+000
      vertex -6.706241e-001 3.510638e-001 0.000000e+000
    endloop
  endfacet
  facet normal 6.565878e-001 -7.542496e-001 0.000000e+000
    outer loop
      vertex -7.195067e-001 3.085106e-001 4.000000e-001
      vertex -7.195067e-001 3.085106e-001 0.000000e+000
      vertex -6.706241e-001 3.510638e-001 4.000000e-001
    endloop
  endfacet
  facet normal 4.264285e-001 -9.045213e-001 0.000000e+000
    outer loop
      vertex -6.254932e-001 3.723404e-001 4.000000e-001
      vertex -6.706241e-001 3.510638e-001 0.000000e+000
      vertex -6.254932e-001 3.723404e-001 0.000000e+000
    endloop
  endfacet
  facet normal 4.264285e-001 -9.045213e-001 0.000000e+000
    outer loop
      vertex -6.706241e-001 3.510638e-001 4.000000e-001
      vertex -6.706241e-001 3.510638e-001 0.000000e+000
      vertex -6.254932e-001 3.723404e-001 4.000000e-001
    endloop
  endfacet
  facet normal 0.000000e+000 -1.000000e+000 0.000000e+000
    outer loop
      vertex -5.427346e-001 3.723404e-001 4.000000e-001
      vertex -6.254932e-001 3.723404e-001 0.000000e+000
      vertex -5.427346e-001 3.723404e-001 0.000000e+000
    endloop
  endfacet
  facet normal 0.000000e+000 -1.000000e+000 0.000000e+000
    outer loop
      vertex -6.254932e-001 3.723404e-001 4.000000e-001
      vertex -6.254932e-001 3.723404e-001 0.000000e+000
      vertex -5.427346e-001 3.723404e-001 4.000000e-001
    endloop
  endfacet
  facet normal -4.922109e-001 -8.704760e-001 0.000000e+000
    outer loop
      vertex -5.051069e-001 3.510638e-001 4.000000e-001
      vertex -5.427346e-001 3.723404e-001 0.000000e+000
      vertex -5.051069e-001 3.510638e-001 0.000000e+000
    endloop
  endfacet
  facet normal -4.922109e-001 -8.704760e-001 0.000000e+000
    outer loop
      vertex -5.427346e-001 3.723404e-001 4.000000e-001
      vertex -5.427346e-001 3.723404e-001 0.000000e+000
      vertex -5.051069e-001 3.510638e-001 4.000000e-001
    endloop
  endfacet
  facet normal -9.043441e-001 -4.268040e-001 0.000000e+000
    outer loop
      vertex -4.850239e-001 3.085106e-001 4.000000e-001
      vertex -5.051069e-001 3.510638e-001 0.000000e+000
      vertex -4.850239e-001 3.085106e-001 0.000000e+000
    endloop
  endfacet
  facet normal -9.043441e-001 -4.268040e-001 0.000000e+000
    outer loop
      vertex -5.051069e-001 3.510638e-001 4.000000e-001
      vertex -5.051069e-001 3.510638e-001 0.000000e+000
      vertex -4.850239e-001 3.085106e-001 4.000000e-001
    endloop
  endfacet
  facet normal -9.892517e-001 -1.462225e-001 0.000000e+000
    outer loop
      vertex -4.850239e-001 3.085106e-001 4.000000e-001
      vertex -4.850239e-001 3.085106e-001 0.000000e+000
      vertex -4.787341e-001 2.659574e-001 4.000000e-001
    endloop
  endfacet
  facet normal 0.000000e+000 0.000000e+000 -1.000000e+000
    outer loop
      vertex 2.827587e-001 -5.000000e-001 0.000000e+000
      vertex 2.000001e-001 -5.000000e-001 0.000000e+000
      vertex 3.388107e-001 2.872340e-001 0.000000e+000
    endloop
  endfacet
  facet normal -9.848078e-001 1.736482e-001 0.000000e+000
    outer loop
      vertex 3.388107e-001 2.872340e-001 4.000000e-001
      vertex 3.388107e-001 2.872340e-001 0.000000e+000
      vertex 2.000001e-001 -5.000000e-001 0.000000e+000
    endloop
  endfacet
  facet normal 0.000000e+000 0.000000e+000 -1.000000e+000
    outer loop
      vertex 4.590857e-001 5.000000e-001 0.000000e+000
      vertex 2.827587e-001 -5.000000e-001 0.000000e+000
      vertex 3.388107e-001 2.872340e-001 0.000000e+000
    endloop
  endfacet
  facet normal 0.000000e+000 0.000000e+000 -1.000000e+000
    outer loop
      vertex 3.349477e-001 5.000000e-001 0.000000e+000
      vertex 4.590857e-001 5.000000e-001 0.000000e+000
      vertex 3.388107e-001 2.872340e-001 0.000000e+000
    endloop
  endfacet
  facet normal 0.000000e+000 0.000000e+000 -1.000000e+000
    outer loop
      vertex 6.896604e-003 -5.000000e-001 0.000000e+000
      vertex 3.349477e-001 5.000000e-001 0.000000e+000
      vertex 3.388107e-001 2.872340e-001 0.000000e+000
    endloop
  endfacet
  facet normal 9.214481e-001 -3.885015e-001 0.000000e+000
    outer loop
      vertex 6.896604e-003 -5.000000e-001 4.000000e-001
      vertex 6.896604e-003 -5.000000e-001 0.000000e+000
      vertex 3.388107e-001 2.872340e-001 0.000000e+000
    endloop
  endfacet
  facet normal 9.214481e-001 -3.885015e-001 0.000000e+000
    outer loop
      vertex 6.896604e-003 -5.000000e-001 4.000000e-001
      vertex 3.388107e-001 2.872340e-001 0.000000e+000
      vertex 3.388107e-001 2.872340e-001 4.000000e-001
    endloop
  endfacet
  facet normal 0.000000e+000 -1.000000e+000 0.000000e+000
    outer loop
      vertex 2.827587e-001 -5.000000e-001 4.000000e-001
      vertex 2.000001e-001 -5.000000e-001 0.000000e+000
      vertex 2.827587e-001 -5.000000e-001 0.000000e+000
    endloop
  endfacet
  facet normal -9.848078e-001 1.736482e-001 0.000000e+000
    outer loop
      vertex 2.000001e-001 -5.000000e-001 4.000000e-001
      vertex 3.388107e-001 2.872340e-001 4.000000e-001
      vertex 2.000001e-001 -5.000000e-001 0.000000e+000
    endloop
  endfacet
  facet normal 0.000000e+000 -1.000000e+000 0.000000e+000
    outer loop
      vertex 2.000001e-001 -5.000000e-001 4.000000e-001
      vertex 2.000001e-001 -5.000000e-001 0.000000e+000
      vertex 2.827587e-001 -5.000000e-001 4.000000e-001
    endloop
  endfacet
  facet normal 9.848078e-001 -1.736482e-001 0.000000e+000
    outer loop
      vertex 2.827587e-001 -5.000000e-001 4.000000e-001
      vertex 2.827587e-001 -5.000000e-001 0.000000e+000
      vertex 4.590857e-001 5.000000e-001 0.000000e+000
    endloop
  endfacet
  facet normal 0.000000e+000 1.000000e+000 0.000000e+000
    outer loop
      vertex 3.349477e-001 5.000000e-001 4.000000e-001
      vertex 4.590857e-001 5.000000e-001 0.000000e+000
      vertex 3.349477e-001 5.000000e-001 0.000000e+000
    endloop
  endfacet
  facet normal 0.000000e+000 1.000000e+000 0.000000e+000
    outer loop
      vertex 4.590857e-001 5.000000e-001 4.000000e-001
      vertex 4.590857e-001 5.000000e-001 0.000000e+000
      vertex 3.349477e-001 5.000000e-001 4.000000e-001
    endloop
  endfacet
  facet normal 9.848078e-001 -1.736482e-001 0.000000e+000
    outer loop
      vertex 2.827587e-001 -5.000000e-001 4.000000e-001
      vertex 4.590857e-001 5.000000e-001 0.000000e+000
      vertex 4.590857e-001 5.000000e-001 4.000000e-001
    endloop
  endfacet
  facet normal 0.000000e+000 0.000000e+000 -1.000000e+000
    outer loop
      vertex 6.896604e-003 -5.000000e-001 0.000000e+000
      vertex -2.951762e-002 -3.936170e-001 0.000000e+000
      vertex 3.349477e-001 5.000000e-001 0.000000e+000
    endloop
  endfacet
  facet normal -9.259478e-001 3.776516e-001 0.000000e+000
    outer loop
      vertex 3.349477e-001 5.000000e-001 4.000000e-001
      vertex 3.349477e-001 5.000000e-001 0.000000e+000
      vertex -2.951762e-002 -3.936170e-001 0.000000e+000
    endloop
  endfacet
  facet normal 0.000000e+000 0.000000e+000 -1.000000e+000
    outer loop
      vertex -1.034482e-001 -5.000000e-001 0.000000e+000
      vertex -7.884540e-002 5.000000e-001 0.000000e+000
      vertex -2.951762e-002 -3.936170e-001 0.000000e+000
    endloop
  endfacet
  facet normal 9.984799e-001 5.511622e-002 0.000000e+000
    outer loop
      vertex -2.951762e-002 -3.936170e-001 4.000000e-001
      vertex -2.951762e-002 -3.936170e-001 0.000000e+000
      vertex -7.884540e-002 5.000000e-001 0.000000e+000
    endloop
  endfacet
  facet normal 0.000000e+000 0.000000e+000 -1.000000e+000
    outer loop
      vertex 6.896604e-003 -5.000000e-001 0.000000e+000
      vertex -1.034482e-001 -5.000000e-001 0.000000e+000
      vertex -2.951762e-002 -3.936170e-001 0.000000e+000
    endloop
  endfacet
  facet normal -9.259478e-001 3.776516e-001 0.000000e+000
    outer loop
      vertex 3.349477e-001 5.000000e-001 4.000000e-001
      vertex -2.951762e-002 -3.936170e-001 0.000000e+000
      vertex -2.951762e-002 -3.936170e-001 4.000000e-001
    endloop
  endfacet
  facet normal 0.000000e+000 0.000000e+000 -1.000000e+000
    outer loop
      vertex -1.577411e-001 2.872340e-001 0.000000e+000
      vertex -2.029833e-001 5.000000e-001 0.000000e+000
      vertex -7.884540e-002 5.000000e-001 0.000000e+000
    endloop
  endfacet
  facet normal 0.000000e+000 1.000000e+000 0.000000e+000
    outer loop
      vertex -2.029833e-001 5.000000e-001 4.000000e-001
      vertex -7.884540e-002 5.000000e-001 0.000000e+000
      vertex -2.029833e-001 5.000000e-001 0.000000e+000
    endloop
  endfacet
  facet normal 0.000000e+000 0.000000e+000 -1.000000e+000
    outer loop
      vertex -1.034482e-001 -5.000000e-001 0.000000e+000
      vertex -1.577411e-001 2.872340e-001 0.000000e+000
      vertex -7.884540e-002 5.000000e-001 0.000000e+000
    endloop
  endfacet
  facet normal 0.000000e+000 1.000000e+000 0.000000e+000
    outer loop
      vertex -7.884540e-002 5.000000e-001 4.000000e-001
      vertex -7.884540e-002 5.000000e-001 0.000000e+000
      vertex -2.029833e-001 5.000000e-001 4.000000e-001
    endloop
  endfacet
  facet normal 9.984799e-001 5.511622e-002 0.000000e+000
    outer loop
      vertex -2.951762e-002 -3.936170e-001 4.000000e-001
      vertex -7.884540e-002 5.000000e-001 0.000000e+000
      vertex -7.884540e-002 5.000000e-001 4.000000e-001
    endloop
  endfacet
  facet normal 0.000000e+000 0.000000e+000 -1.000000e+000
    outer loop
      vertex -2.965517e-001 -5.000000e-001 0.000000e+000
      vertex -3.793103e-001 -5.000000e-001 0.000000e+000
      vertex -2.029833e-001 5.000000e-001 0.000000e+000
    endloop
  endfacet
  facet normal -9.848078e-001 1.736482e-001 0.000000e+000
    outer loop
      vertex -2.029833e-001 5.000000e-001 4.000000e-001
      vertex -2.029833e-001 5.000000e-001 0.000000e+000
      vertex -3.793103e-001 -5.000000e-001 0.000000e+000
    endloop
  endfacet
  facet normal 0.000000e+000 0.000000e+000 -1.000000e+000
    outer loop
      vertex -1.577411e-001 2.872340e-001 0.000000e+000
      vertex -2.965517e-001 -5.000000e-001 0.000000e+000
      vertex -2.029833e-001 5.000000e-001 0.000000e+000
    endloop
  endfacet
  facet normal 0.000000e+000 -1.000000e+000 0.000000e+000
    outer loop
      vertex -2.965517e-001 -5.000000e-001 4.000000e-001
      vertex -3.793103e-001 -5.000000e-001 0.000000e+000
      vertex -2.965517e-001 -5.000000e-001 0.000000e+000
    endloop
  endfacet
  facet normal 0.000000e+000 -1.000000e+000 0.000000e+000
    outer loop
      vertex -3.793103e-001 -5.000000e-001 4.000000e-001
      vertex -3.793103e-001 -5.000000e-001 0.000000e+000
      vertex -2.965517e-001 -5.000000e-001 4.000000e-001
    endloop
  endfacet
  facet normal -9.848078e-001 1.736482e-001 0.000000e+000
    outer loop
      vertex -2.029833e-001 5.000000e-001 4.000000e-001
      vertex -3.793103e-001 -5.000000e-001 0.000000e+000
      vertex -3.793103e-001 -5.000000e-001 4.000000e-001
    endloop
  endfacet
  facet normal 9.848078e-001 -1.736482e-001 0.000000e+000
    outer loop
      vertex -2.965517e-001 -5.000000e-001 4.000000e-001
      vertex -2.965517e-001 -5.000000e-001 0.000000e+000
      vertex -1.577411e-001 2.872340e-001 0.000000e+000
    endloop
  endfacet
  facet normal -9.976303e-001 -6.880317e-002 0.000000e+000
    outer loop
      vertex -1.577411e-001 2.872340e-001 4.000000e-001
      vertex -1.577411e-001 2.872340e-001 0.000000e+000
      vertex -1.034482e-001 -5.000000e-001 0.000000e+000
    endloop
  endfacet
  facet normal 9.848078e-001 -1.736482e-001 0.000000e+000
    outer loop
      vertex -2.965517e-001 -5.000000e-001 4.000000e-001
      vertex -1.577411e-001 2.872340e-001 0.000000e+000
      vertex -1.577411e-001 2.872340e-001 4.000000e-001
    endloop
  endfacet
  facet normal 0.000000e+000 -1.000000e+000 0.000000e+000
    outer loop
      vertex 6.896604e-003 -5.000000e-001 4.000000e-001
      vertex -1.034482e-001 -5.000000e-001 0.000000e+000
      vertex 6.896604e-003 -5.000000e-001 0.000000e+000
    endloop
  endfacet
  facet normal 0.000000e+000 -1.000000e+000 0.000000e+000
    outer loop
      vertex -1.034482e-001 -5.000000e-001 4.000000e-001
      vertex -1.034482e-001 -5.000000e-001 0.000000e+000
      vertex 6.896604e-003 -5.000000e-001 4.000000e-001
    endloop
  endfacet
  facet normal -9.976303e-001 -6.880317e-002 0.000000e+000
    outer loop
      vertex -1.577411e-001 2.872340e-001 4.000000e-001
      vertex -1.034482e-001 -5.000000e-001 0.000000e+000
      vertex -1.034482e-001 -5.000000e-001 4.000000e-001
    endloop
  endfacet
  facet normal 0.000000e+000 0.000000e+000 -1.000000e+000
    outer loop
      vertex 9.832236e-001 5.000000e-001 0.000000e+000
      vertex 1.065982e+000 5.000000e-001 0.000000e+000
      vertex 9.496815e-001 -1.595745e-001 0.000000e+000
    endloop
  endfacet
  facet normal 9.848078e-001 -1.736482e-001 0.000000e+000
    outer loop
      vertex 9.496815e-001 -1.595745e-001 4.000000e-001
      vertex 9.496815e-001 -1.595745e-001 0.000000e+000
      vertex 1.065982e+000 5.000000e-001 0.000000e+000
    endloop
  endfacet
  facet normal 0.000000e+000 0.000000e+000 -1.000000e+000
    outer loop
      vertex 9.171302e-001 -2.659574e-001 0.000000e+000
      vertex 9.832236e-001 5.000000e-001 0.000000e+000
      vertex 9.496815e-001 -1.595745e-001 0.000000e+000
    endloop
  endfacet
  facet normal 9.562375e-001 -2.925916e-001 0.000000e+000
    outer loop
      vertex 9.496815e-001 -1.595745e-001 4.000000e-001
      vertex 9.171302e-001 -2.659574e-001 0.000000e+000
      vertex 9.496815e-001 -1.595745e-001 0.000000e+000
    endloop
  endfacet
  facet normal 0.000000e+000 1.000000e+000 0.000000e+000
    outer loop
      vertex 9.832236e-001 5.000000e-001 4.000000e-001
      vertex 1.065982e+000 5.000000e-001 0.000000e+000
      vertex 9.832236e-001 5.000000e-001 0.000000e+000
    endloop
  endfacet
  facet normal 9.848078e-001 -1.736482e-001 0.000000e+000
    outer loop
      vertex 1.065982e+000 5.000000e-001 4.000000e-001
      vertex 9.496815e-001 -1.595745e-001 4.000000e-001
      vertex 1.065982e+000 5.000000e-001 0.000000e+000
    endloop
  endfacet
  facet normal 0.000000e+000 1.000000e+000 0.000000e+000
    outer loop
      vertex 1.065982e+000 5.000000e-001 4.000000e-001
      vertex 1.065982e+000 5.000000e-001 0.000000e+000
      vertex 9.832236e-001 5.000000e-001 4.000000e-001
    endloop
  endfacet
  facet normal 0.000000e+000 0.000000e+000 -1.000000e+000
    outer loop
      vertex 8.745374e-001 -3.510638e-001 0.000000e+000
      vertex 8.669229e-001 -1.595745e-001 0.000000e+000
      vertex 9.832236e-001 5.000000e-001 0.000000e+000
    endloop
  endfacet
  facet normal -9.848078e-001 1.736482e-001 0.000000e+000
    outer loop
      vertex 9.832236e-001 5.000000e-001 4.000000e-001
      vertex 9.832236e-001 5.000000e-001 0.000000e+000
      vertex 8.669229e-001 -1.595745e-001 0.000000e+000
    endloop
  endfacet
  facet normal 0.000000e+000 0.000000e+000 -1.000000e+000
    outer loop
      vertex 9.171302e-001 -2.659574e-001 0.000000e+000
      vertex 8.745374e-001 -3.510638e-001 0.000000e+000
      vertex 9.832236e-001 5.000000e-001 0.000000e+000
    endloop
  endfacet
  facet normal 0.000000e+000 0.000000e+000 -1.000000e+000
    outer loop
      vertex 8.043585e-001 -4.361702e-001 0.000000e+000
      vertex 8.381232e-001 -2.446809e-001 0.000000e+000
      vertex 8.669229e-001 -1.595745e-001 0.000000e+000
    endloop
  endfacet
  facet normal -9.472348e-001 3.205404e-001 0.000000e+000
    outer loop
      vertex 8.381232e-001 -2.446809e-001 4.000000e-001
      vertex 8.669229e-001 -1.595745e-001 0.000000e+000
      vertex 8.381232e-001 -2.446809e-001 0.000000e+000
    endloop
  endfacet
  facet normal 0.000000e+000 0.000000e+000 -1.000000e+000
    outer loop
      vertex 8.745374e-001 -3.510638e-001 0.000000e+000
      vertex 8.043585e-001 -4.361702e-001 0.000000e+000
      vertex 8.669229e-001 -1.595745e-001 0.000000e+000
    endloop
  endfacet
  facet normal -9.472348e-001 3.205404e-001 0.000000e+000
    outer loop
      vertex 8.669229e-001 -1.595745e-001 4.000000e-001
      vertex 8.669229e-001 -1.595745e-001 0.000000e+000
      vertex 8.381232e-001 -2.446809e-001 4.000000e-001
    endloop
  endfacet
  facet normal -9.848078e-001 1.736482e-001 0.000000e+000
    outer loop
      vertex 9.832236e-001 5.000000e-001 4.000000e-001
      vertex 8.669229e-001 -1.595745e-001 0.000000e+000
      vertex 8.669229e-001 -1.595745e-001 4.000000e-001
    endloop
  endfacet
  facet normal 0.000000e+000 0.000000e+000 -1.000000e+000
    outer loop
      vertex 8.043585e-001 -4.361702e-001 0.000000e+000
      vertex 7.992821e-001 -3.085106e-001 0.000000e+000
      vertex 8.381232e-001 -2.446809e-001 0.000000e+000
    endloop
  endfacet
  facet normal -8.542686e-001 5.198319e-001 0.000000e+000
    outer loop
      vertex 7.992821e-001 -3.085106e-001 4.000000e-001
      vertex 8.381232e-001 -2.446809e-001 0.000000e+000
      vertex 7.992821e-001 -3.085106e-001 0.000000e+000
    endloop
  endfacet
  facet normal -8.542686e-001 5.198319e-001 0.000000e+000
    outer loop
      vertex 8.381232e-001 -2.446809e-001 4.000000e-001
      vertex 8.381232e-001 -2.446809e-001 0.000000e+000
      vertex 7.992821e-001 -3.085106e-001 4.000000e-001
    endloop
  endfacet
  facet normal 0.000000e+000 0.000000e+000 -1.000000e+000
    outer loop
      vertex 7.416828e-001 -4.787234e-001 0.000000e+000
      vertex 7.503995e-001 -3.510638e-001 0.000000e+000
      vertex 7.992821e-001 -3.085106e-001 0.000000e+000
    endloop
  endfacet
  facet normal -6.565878e-001 7.542496e-001 0.000000e+000
    outer loop
      vertex 7.503995e-001 -3.510638e-001 4.000000e-001
      vertex 7.992821e-001 -3.085106e-001 0.000000e+000
      vertex 7.503995e-001 -3.510638e-001 0.000000e+000
    endloop
  endfacet
  facet normal 0.000000e+000 0.000000e+000 -1.000000e+000
    outer loop
      vertex 8.043585e-001 -4.361702e-001 0.000000e+000
      vertex 7.416828e-001 -4.787234e-001 0.000000e+000
      vertex 7.992821e-001 -3.085106e-001 0.000000e+000
    endloop
  endfacet
  facet normal -6.565878e-001 7.542496e-001 0.000000e+000
    outer loop
      vertex 7.992821e-001 -3.085106e-001 4.000000e-001
      vertex 7.992821e-001 -3.085106e-001 0.000000e+000
      vertex 7.503995e-001 -3.510638e-001 4.000000e-001
    endloop
  endfacet
  facet normal 0.000000e+000 0.000000e+000 -1.000000e+000
    outer loop
      vertex 7.416828e-001 -4.787234e-001 0.000000e+000
      vertex 6.914755e-001 -3.723404e-001 0.000000e+000
      vertex 7.503995e-001 -3.510638e-001 0.000000e+000
    endloop
  endfacet
  facet normal -3.396229e-001 9.405617e-001 0.000000e+000
    outer loop
      vertex 6.914755e-001 -3.723404e-001 4.000000e-001
      vertex 7.503995e-001 -3.510638e-001 0.000000e+000
      vertex 6.914755e-001 -3.723404e-001 0.000000e+000
    endloop
  endfacet
  facet normal -3.396229e-001 9.405617e-001 0.000000e+000
    outer loop
      vertex 7.503995e-001 -3.510638e-001 4.000000e-001
      vertex 7.503995e-001 -3.510638e-001 0.000000e+000
      vertex 6.914755e-001 -3.723404e-001 4.000000e-001
    endloop
  endfacet
  facet normal 0.000000e+000 0.000000e+000 -1.000000e+000
    outer loop
      vertex 6.689656e-001 -5.000000e-001 0.000000e+000
      vertex 6.363030e-001 -3.723404e-001 0.000000e+000
      vertex 6.914755e-001 -3.723404e-001 0.000000e+000
    endloop
  endfacet
  facet normal 0.000000e+000 1.000000e+000 0.000000e+000
    outer loop
      vertex 6.363030e-001 -3.723404e-001 4.000000e-001
      vertex 6.914755e-001 -3.723404e-001 0.000000e+000
      vertex 6.363030e-001 -3.723404e-001 0.000000e+000
    endloop
  endfacet
  facet normal 0.000000e+000 0.000000e+000 -1.000000e+000
    outer loop
      vertex 7.416828e-001 -4.787234e-001 0.000000e+000
      vertex 6.689656e-001 -5.000000e-001 0.000000e+000
      vertex 6.914755e-001 -3.723404e-001 0.000000e+000
    endloop
  endfacet
  facet normal 0.000000e+000 1.000000e+000 0.000000e+000
    outer loop
      vertex 6.914755e-001 -3.723404e-001 4.000000e-001
      vertex 6.914755e-001 -3.723404e-001 0.000000e+000
      vertex 6.363030e-001 -3.723404e-001 4.000000e-001
    endloop
  endfacet
  facet normal 0.000000e+000 0.000000e+000 -1.000000e+000
    outer loop
      vertex 6.137932e-001 -5.000000e-001 0.000000e+000
      vertex 5.848823e-001 -3.510638e-001 0.000000e+000
      vertex 6.363030e-001 -3.723404e-001 0.000000e+000
    endloop
  endfacet
  facet normal 3.823371e-001 9.240229e-001 0.000000e+000
    outer loop
      vertex 5.848823e-001 -3.510638e-001 4.000000e-001
      vertex 6.363030e-001 -3.723404e-001 0.000000e+000
      vertex 5.848823e-001 -3.510638e-001 0.000000e+000
    endloop
  endfacet
  facet normal 0.000000e+000 0.000000e+000 -1.000000e+000
    outer loop
      vertex 6.689656e-001 -5.000000e-001 0.000000e+000
      vertex 6.137932e-001 -5.000000e-001 0.000000e+000
      vertex 6.363030e-001 -3.723404e-001 0.000000e+000
    endloop
  endfacet
  facet normal 3.823371e-001 9.240229e-001 0.000000e+000
    outer loop
      vertex 6.363030e-001 -3.723404e-001 4.000000e-001
      vertex 6.363030e-001 -3.723404e-001 0.000000e+000
      vertex 5.848823e-001 -3.510638e-001 4.000000e-001
    endloop
  endfacet
  facet normal 0.000000e+000 0.000000e+000 -1.000000e+000
    outer loop
      vertex 5.485793e-001 -4.787234e-001 0.000000e+000
      vertex 5.510062e-001 -3.085106e-001 0.000000e+000
      vertex 5.848823e-001 -3.510638e-001 0.000000e+000
    endloop
  endfacet
  facet normal 7.823597e-001 6.228268e-001 0.000000e+000
    outer loop
      vertex 5.510062e-001 -3.085106e-001 4.000000e-001
      vertex 5.848823e-001 -3.510638e-001 0.000000e+000
      vertex 5.510062e-001 -3.085106e-001 0.000000e+000
    endloop
  endfacet
  facet normal 0.000000e+000 0.000000e+000 -1.000000e+000
    outer loop
      vertex 6.137932e-001 -5.000000e-001 0.000000e+000
      vertex 5.485793e-001 -4.787234e-001 0.000000e+000
      vertex 5.848823e-001 -3.510638e-001 0.000000e+000
    endloop
  endfacet
  facet normal 7.823597e-001 6.228268e-001 0.000000e+000
    outer loop
      vertex 5.848823e-001 -3.510638e-001 4.000000e-001
      vertex 5.848823e-001 -3.510638e-001 0.000000e+000
      vertex 5.510062e-001 -3.085106e-001 4.000000e-001
    endloop
  endfacet
  facet normal 0.000000e+000 0.000000e+000 -1.000000e+000
    outer loop
      vertex 5.485793e-001 -4.787234e-001 0.000000e+000
      vertex 5.346749e-001 -2.446809e-001 0.000000e+000
      vertex 5.510062e-001 -3.085106e-001 0.000000e+000
    endloop
  endfacet
  facet normal 9.687926e-001 2.478727e-001 0.000000e+000
    outer loop
      vertex 5.346749e-001 -2.446809e-001 4.000000e-001
      vertex 5.510062e-001 -3.085106e-001 0.000000e+000
      vertex 5.346749e-001 -2.446809e-001 0.000000e+000
    endloop
  endfacet
  facet normal 9.687926e-001 2.478727e-001 0.000000e+000
    outer loop
      vertex 5.510062e-001 -3.085106e-001 4.000000e-001
      vertex 5.510062e-001 -3.085106e-001 0.000000e+000
      vertex 5.346749e-001 -2.446809e-001 4.000000e-001
    endloop
  endfacet
  facet normal 0.000000e+000 0.000000e+000 -1.000000e+000
    outer loop
      vertex 5.009102e-001 -4.361702e-001 0.000000e+000
      vertex 5.358884e-001 -1.595745e-001 0.000000e+000
      vertex 5.346749e-001 -2.446809e-001 0.000000e+000
    endloop
  endfacet
  facet normal 9.998984e-001 -1.425707e-002 0.000000e+000
    outer loop
      vertex 5.358884e-001 -1.595745e-001 4.000000e-001
      vertex 5.346749e-001 -2.446809e-001 0.000000e+000
      vertex 5.358884e-001 -1.595745e-001 0.000000e+000
    endloop
  endfacet
  facet normal 0.000000e+000 0.000000e+000 -1.000000e+000
    outer loop
      vertex 5.485793e-001 -4.787234e-001 0.000000e+000
      vertex 5.009102e-001 -4.361702e-001 0.000000e+000
      vertex 5.346749e-001 -2.446809e-001 0.000000e+000
    endloop
  endfacet
  facet normal 9.998984e-001 -1.425707e-002 0.000000e+000
    outer loop
      vertex 5.346749e-001 -2.446809e-001 4.000000e-001
      vertex 5.346749e-001 -2.446809e-001 0.000000e+000
      vertex 5.358884e-001 -1.595745e-001 4.000000e-001
    endloop
  endfacet
  facet normal 0.000000e+000 0.000000e+000 -1.000000e+000
    outer loop
      vertex 5.694305e-001 5.000000e-001 0.000000e+000
      vertex 6.521891e-001 5.000000e-001 0.000000e+000
      vertex 5.358884e-001 -1.595745e-001 0.000000e+000
    endloop
  endfacet
  facet normal 9.848078e-001 -1.736482e-001 0.000000e+000
    outer loop
      vertex 5.358884e-001 -1.595745e-001 4.000000e-001
      vertex 5.358884e-001 -1.595745e-001 0.000000e+000
      vertex 6.521891e-001 5.000000e-001 0.000000e+000
    endloop
  endfacet
  facet normal 0.000000e+000 0.000000e+000 -1.000000e+000
    outer loop
      vertex 5.009102e-001 -4.361702e-001 0.000000e+000
      vertex 5.694305e-001 5.000000e-001 0.000000e+000
      vertex 5.358884e-001 -1.595745e-001 0.000000e+000
    endloop
  endfacet
  facet normal 0.000000e+000 1.000000e+000 0.000000e+000
    outer loop
      vertex 5.694305e-001 5.000000e-001 4.000000e-001
      vertex 6.521891e-001 5.000000e-001 0.000000e+000
      vertex 5.694305e-001 5.000000e-001 0.000000e+000
    endloop
  endfacet
  facet normal 0.000000e+000 1.000000e+000 0.000000e+000
    outer loop
      vertex 6.521891e-001 5.000000e-001 4.000000e-001
      vertex 6.521891e-001 5.000000e-001 0.000000e+000
      vertex 5.694305e-001 5.000000e-001 4.000000e-001
    endloop
  endfacet
  facet normal 9.848078e-001 -1.736482e-001 0.000000e+000
    outer loop
      vertex 5.358884e-001 -1.595745e-001 4.000000e-001
      vertex 6.521891e-001 5.000000e-001 0.000000e+000
      vertex 6.521891e-001 5.000000e-001 4.000000e-001
    endloop
  endfacet
  facet normal 0.000000e+000 0.000000e+000 -1.000000e+000
    outer loop
      vertex 4.607443e-001 -3.510638e-001 0.000000e+000
      vertex 4.531297e-001 -1.595745e-001 0.000000e+000
      vertex 5.694305e-001 5.000000e-001 0.000000e+000
    endloop
  endfacet
  facet normal -9.848077e-001 1.736482e-001 0.000000e+000
    outer loop
      vertex 5.694305e-001 5.000000e-001 4.000000e-001
      vertex 5.694305e-001 5.000000e-001 0.000000e+000
      vertex 4.531297e-001 -1.595745e-001 0.000000e+000
    endloop
  endfacet
  facet normal 0.000000e+000 0.000000e+000 -1.000000e+000
    outer loop
      vertex 5.009102e-001 -4.361702e-001 0.000000e+000
      vertex 4.607443e-001 -3.510638e-001 0.000000e+000
      vertex 5.694305e-001 5.000000e-001 0.000000e+000
    endloop
  endfacet
  facet normal 0.000000e+000 0.000000e+000 -1.000000e+000
    outer loop
      vertex 4.607443e-001 -3.510638e-001 0.000000e+000
      vertex 4.481646e-001 -2.659574e-001 0.000000e+000
      vertex 4.531297e-001 -1.595745e-001 0.000000e+000
    endloop
  endfacet
  facet normal -9.989126e-001 4.662116e-002 0.000000e+000
    outer loop
      vertex 4.481646e-001 -2.659574e-001 4.000000e-001
      vertex 4.531297e-001 -1.595745e-001 0.000000e+000
      vertex 4.481646e-001 -2.659574e-001 0.000000e+000
    endloop
  endfacet
  facet normal -9.989126e-001 4.662116e-002 0.000000e+000
    outer loop
      vertex 4.531297e-001 -1.595745e-001 4.000000e-001
      vertex 4.531297e-001 -1.595745e-001 0.000000e+000
      vertex 4.481646e-001 -2.659574e-001 4.000000e-001
    endloop
  endfacet
  facet normal -9.848077e-001 1.736482e-001 0.000000e+000
    outer loop
      vertex 5.694305e-001 5.000000e-001 4.000000e-001
      vertex 4.531297e-001 -1.595745e-001 0.000000e+000
      vertex 4.531297e-001 -1.595745e-001 4.000000e-001
    endloop
  endfacet
  facet normal -9.892518e-001 -1.462222e-001 0.000000e+000
    outer loop
      vertex 4.607443e-001 -3.510638e-001 4.000000e-001
      vertex 4.481646e-001 -2.659574e-001 0.000000e+000
      vertex 4.607443e-001 -3.510638e-001 0.000000e+000
    endloop
  endfacet
  facet normal -9.892518e-001 -1.462222e-001 0.000000e+000
    outer loop
      vertex 4.481646e-001 -2.659574e-001 4.000000e-001
      vertex 4.481646e-001 -2.659574e-001 0.000000e+000
      vertex 4.607443e-001 -3.510638e-001 4.000000e-001
    endloop
  endfacet
  facet normal -9.043441e-001 -4.268042e-001 0.000000e+000
    outer loop
      vertex 5.009102e-001 -4.361702e-001 4.000000e-001
      vertex 4.607443e-001 -3.510638e-001 0.000000e+000
      vertex 5.009102e-001 -4.361702e-001 0.000000e+000
    endloop
  endfacet
  facet normal -9.043441e-001 -4.268042e-001 0.000000e+000
    outer loop
      vertex 4.607443e-001 -3.510638e-001 4.000000e-001
      vertex 4.607443e-001 -3.510638e-001 0.000000e+000
      vertex 5.009102e-001 -4.361702e-001 4.000000e-001
    endloop
  endfacet
  facet normal -6.659416e-001 -7.460039e-001 0.000000e+000
    outer loop
      vertex 5.485793e-001 -4.787234e-001 4.000000e-001
      vertex 5.009102e-001 -4.361702e-001 0.000000e+000
      vertex 5.485793e-001 -4.787234e-001 0.000000e+000
    endloop
  endfacet
  facet normal -6.659416e-001 -7.460039e-001 0.000000e+000
    outer loop
      vertex 5.009102e-001 -4.361702e-001 4.000000e-001
      vertex 5.009102e-001 -4.361702e-001 0.000000e+000
      vertex 5.485793e-001 -4.787234e-001 4.000000e-001
    endloop
  endfacet
  facet normal -3.101680e-001 -9.506818e-001 0.000000e+000
    outer loop
      vertex 6.137932e-001 -5.000000e-001 4.000000e-001
      vertex 5.485793e-001 -4.787234e-001 0.000000e+000
      vertex 6.137932e-001 -5.000000e-001 0.000000e+000
    endloop
  endfacet
  facet normal -3.101680e-001 -9.506818e-001 0.000000e+000
    outer loop
      vertex 5.485793e-001 -4.787234e-001 4.000000e-001
      vertex 5.485793e-001 -4.787234e-001 0.000000e+000
      vertex 6.137932e-001 -5.000000e-001 4.000000e-001
    endloop
  endfacet
  facet normal 0.000000e+000 -1.000000e+000 0.000000e+000
    outer loop
      vertex 6.689656e-001 -5.000000e-001 4.000000e-001
      vertex 6.137932e-001 -5.000000e-001 0.000000e+000
      vertex 6.689656e-001 -5.000000e-001 0.000000e+000
    endloop
  endfacet
  facet normal 0.000000e+000 -1.000000e+000 0.000000e+000
    outer loop
      vertex 6.137932e-001 -5.000000e-001 4.000000e-001
      vertex 6.137932e-001 -5.000000e-001 0.000000e+000
      vertex 6.689656e-001 -5.000000e-001 4.000000e-001
    endloop
  endfacet
  facet normal 2.808199e-001 -9.597605e-001 0.000000e+000
    outer loop
      vertex 7.416828e-001 -4.787234e-001 4.000000e-001
      vertex 6.689656e-001 -5.000000e-001 0.000000e+000
      vertex 7.416828e-001 -4.787234e-001 0.000000e+000
    endloop
  endfacet
  facet normal 2.808199e-001 -9.597605e-001 0.000000e+000
    outer loop
      vertex 6.689656e-001 -5.000000e-001 4.000000e-001
      vertex 6.689656e-001 -5.000000e-001 0.000000e+000
      vertex 7.416828e-001 -4.787234e-001 4.000000e-001
    endloop
  endfacet
  facet normal 5.617114e-001 -8.273332e-001 0.000000e+000
    outer loop
      vertex 8.043585e-001 -4.361702e-001 4.000000e-001
      vertex 7.416828e-001 -4.787234e-001 0.000000e+000
      vertex 8.043585e-001 -4.361702e-001 0.000000e+000
    endloop
  endfacet
  facet normal 5.617114e-001 -8.273332e-001 0.000000e+000
    outer loop
      vertex 7.416828e-001 -4.787234e-001 4.000000e-001
      vertex 7.416828e-001 -4.787234e-001 0.000000e+000
      vertex 8.043585e-001 -4.361702e-001 4.000000e-001
    endloop
  endfacet
  facet normal 7.715239e-001 -6.362003e-001 0.000000e+000
    outer loop
      vertex 8.745374e-001 -3.510638e-001 4.000000e-001
      vertex 8.043585e-001 -4.361702e-001 0.000000e+000
      vertex 8.745374e-001 -3.510638e-001 0.000000e+000
    endloop
  endfacet
  facet normal 7.715239e-001 -6.362003e-001 0.000000e+000
    outer loop
      vertex 8.043585e-001 -4.361702e-001 4.000000e-001
      vertex 8.043585e-001 -4.361702e-001 0.000000e+000
      vertex 8.745374e-001 -3.510638e-001 4.000000e-001
    endloop
  endfacet
  facet normal 8.942608e-001 -4.475463e-001 0.000000e+000
    outer loop
      vertex 9.171302e-001 -2.659574e-001 4.000000e-001
      vertex 8.745374e-001 -3.510638e-001 0.000000e+000
      vertex 9.171302e-001 -2.659574e-001 0.000000e+000
    endloop
  endfacet
  facet normal 8.942608e-001 -4.475463e-001 0.000000e+000
    outer loop
      vertex 8.745374e-001 -3.510638e-001 4.000000e-001
      vertex 8.745374e-001 -3.510638e-001 0.000000e+000
      vertex 9.171302e-001 -2.659574e-001 4.000000e-001
    endloop
  endfacet
  facet normal 9.562375e-001 -2.925916e-001 0.000000e+000
    outer loop
      vertex 9.171302e-001 -2.659574e-001 4.000000e-001
      vertex 9.171302e-001 -2.659574e-001 0.000000e+000
      vertex 9.496815e-001 -1.595745e-001 4.000000e-001
    endloop
  endfacet
  facet normal 0.000000e+000 0.000000e+000 1.000000e+000
    outer loop
      vertex -4.688039e-001 4.787234e-001 4.000000e-001
      vertex -4.850239e-001 3.085106e-001 4.000000e-001
      vertex -4.787341e-001 2.659574e-001 4.000000e-001
    endloop
  endfacet
  facet normal 0.000000e+000 0.000000e+000 1.000000e+000
    outer loop
      vertex -3.959755e-001 2.659574e-001 4.000000e-001
      vertex -4.688039e-001 4.787234e-001 4.000000e-001
      vertex -4.787341e-001 2.659574e-001 4.000000e-001
    endloop
  endfacet
  facet normal 0.000000e+000 0.000000e+000 1.000000e+000
    outer loop
      vertex -5.340179e-001 5.000000e-001 4.000000e-001
      vertex -5.051069e-001 3.510638e-001 4.000000e-001
      vertex -4.850239e-001 3.085106e-001 4.000000e-001
    endloop
  endfacet
  facet normal 0.000000e+000 0.000000e+000 1.000000e+000
    outer loop
      vertex -4.688039e-001 4.787234e-001 4.000000e-001
      vertex -5.340179e-001 5.000000e-001 4.000000e-001
      vertex -4.850239e-001 3.085106e-001 4.000000e-001
    endloop
  endfacet
  facet normal 0.000000e+000 0.000000e+000 1.000000e+000
    outer loop
      vertex -5.340179e-001 5.000000e-001 4.000000e-001
      vertex -5.427346e-001 3.723404e-001 4.000000e-001
      vertex -5.051069e-001 3.510638e-001 4.000000e-001
    endloop
  endfacet
  facet normal 0.000000e+000 0.000000e+000 1.000000e+000
    outer loop
      vertex -6.029834e-001 5.000000e-001 4.000000e-001
      vertex -6.254932e-001 3.723404e-001 4.000000e-001
      vertex -5.427346e-001 3.723404e-001 4.000000e-001
    endloop
  endfacet
  facet normal 0.000000e+000 0.000000e+000 1.000000e+000
    outer loop
      vertex -5.340179e-001 5.000000e-001 4.000000e-001
      vertex -6.029834e-001 5.000000e-001 4.000000e-001
      vertex -5.427346e-001 3.723404e-001 4.000000e-001
    endloop
  endfacet
  facet normal 0.000000e+000 0.000000e+000 1.000000e+000
    outer loop
      vertex -6.619074e-001 4.787234e-001 4.000000e-001
      vertex -6.706241e-001 3.510638e-001 4.000000e-001
      vertex -6.254932e-001 3.723404e-001 4.000000e-001
    endloop
  endfacet
  facet normal 0.000000e+000 0.000000e+000 1.000000e+000
    outer loop
      vertex -6.029834e-001 5.000000e-001 4.000000e-001
      vertex -6.619074e-001 4.787234e-001 4.000000e-001
      vertex -6.254932e-001 3.723404e-001 4.000000e-001
    endloop
  endfacet
  facet normal 0.000000e+000 0.000000e+000 1.000000e+000
    outer loop
      vertex -7.245831e-001 4.361702e-001 4.000000e-001
      vertex -7.195067e-001 3.085106e-001 4.000000e-001
      vertex -6.706241e-001 3.510638e-001 4.000000e-001
    endloop
  endfacet
  facet normal 0.000000e+000 0.000000e+000 1.000000e+000
    outer loop
      vertex -6.619074e-001 4.787234e-001 4.000000e-001
      vertex -7.245831e-001 4.361702e-001 4.000000e-001
      vertex -6.706241e-001 3.510638e-001 4.000000e-001
    endloop
  endfacet
  facet normal 0.000000e+000 0.000000e+000 1.000000e+000
    outer loop
      vertex -7.245831e-001 4.361702e-001 4.000000e-001
      vertex -7.445548e-001 2.446809e-001 4.000000e-001
      vertex -7.195067e-001 3.085106e-001 4.000000e-001
    endloop
  endfacet
  facet normal 0.000000e+000 0.000000e+000 1.000000e+000
    outer loop
      vertex -7.947621e-001 3.510638e-001 4.000000e-001
      vertex -7.520580e-001 2.021277e-001 4.000000e-001
      vertex -7.445548e-001 2.446809e-001 4.000000e-001
    endloop
  endfacet
  facet normal 0.000000e+000 0.000000e+000 1.000000e+000
    outer loop
      vertex -7.245831e-001 4.361702e-001 4.000000e-001
      vertex -7.947621e-001 3.510638e-001 4.000000e-001
      vertex -7.445548e-001 2.446809e-001 4.000000e-001
    endloop
  endfacet
  facet normal 0.000000e+000 0.000000e+000 1.000000e+000
    outer loop
      vertex -7.519467e-001 -3.191489e-002 4.000000e-001
      vertex -7.495198e-001 1.382979e-001 4.000000e-001
      vertex -7.520580e-001 2.021277e-001 4.000000e-001
    endloop
  endfacet
  facet normal 0.000000e+000 0.000000e+000 1.000000e+000
    outer loop
      vertex -7.947621e-001 3.510638e-001 4.000000e-001
      vertex -7.519467e-001 -3.191489e-002 4.000000e-001
      vertex -7.520580e-001 2.021277e-001 4.000000e-001
    endloop
  endfacet
  facet normal 0.000000e+000 0.000000e+000 1.000000e+000
    outer loop
      vertex -7.005259e-001 -5.319149e-002 4.000000e-001
      vertex -7.156438e-001 9.574468e-002 4.000000e-001
      vertex -7.495198e-001 1.382979e-001 4.000000e-001
    endloop
  endfacet
  facet normal 0.000000e+000 0.000000e+000 1.000000e+000
    outer loop
      vertex -7.519467e-001 -3.191489e-002 4.000000e-001
      vertex -7.005259e-001 -5.319149e-002 4.000000e-001
      vertex -7.495198e-001 1.382979e-001 4.000000e-001
    endloop
  endfacet
  facet normal 0.000000e+000 0.000000e+000 1.000000e+000
    outer loop
      vertex -7.005259e-001 -5.319149e-002 4.000000e-001
      vertex -6.780161e-001 7.446808e-002 4.000000e-001
      vertex -7.156438e-001 9.574468e-002 4.000000e-001
    endloop
  endfacet
  facet normal 0.000000e+000 0.000000e+000 1.000000e+000
    outer loop
      vertex -6.177673e-001 -5.319149e-002 4.000000e-001
      vertex -5.952575e-001 7.446808e-002 4.000000e-001
      vertex -6.780161e-001 7.446808e-002 4.000000e-001
    endloop
  endfacet
  facet normal 0.000000e+000 0.000000e+000 1.000000e+000
    outer loop
      vertex -7.005259e-001 -5.319149e-002 4.000000e-001
      vertex -6.177673e-001 -5.319149e-002 4.000000e-001
      vertex -6.780161e-001 7.446808e-002 4.000000e-001
    endloop
  endfacet
  facet normal 0.000000e+000 0.000000e+000 1.000000e+000
    outer loop
      vertex -5.324705e-001 -1.170213e-001 4.000000e-001
      vertex -5.300436e-001 5.319149e-002 4.000000e-001
      vertex -5.952575e-001 7.446808e-002 4.000000e-001
    endloop
  endfacet
  facet normal 0.000000e+000 0.000000e+000 1.000000e+000
    outer loop
      vertex -5.663465e-001 -7.446808e-002 4.000000e-001
      vertex -5.324705e-001 -1.170213e-001 4.000000e-001
      vertex -5.952575e-001 7.446808e-002 4.000000e-001
    endloop
  endfacet
  facet normal 0.000000e+000 0.000000e+000 1.000000e+000
    outer loop
      vertex -6.177673e-001 -5.319149e-002 4.000000e-001
      vertex -5.663465e-001 -7.446808e-002 4.000000e-001
      vertex -5.952575e-001 7.446808e-002 4.000000e-001
    endloop
  endfacet
  facet normal 0.000000e+000 0.000000e+000 1.000000e+000
    outer loop
      vertex -4.909799e-001 -3.510638e-001 4.000000e-001
      vertex -4.823745e-001 1.063830e-002 4.000000e-001
      vertex -5.300436e-001 5.319149e-002 4.000000e-001
    endloop
  endfacet
  facet normal 0.000000e+000 0.000000e+000 1.000000e+000
    outer loop
      vertex -5.161392e-001 -1.808511e-001 4.000000e-001
      vertex -4.909799e-001 -3.510638e-001 4.000000e-001
      vertex -5.300436e-001 5.319149e-002 4.000000e-001
    endloop
  endfacet
  facet normal 0.000000e+000 0.000000e+000 1.000000e+000
    outer loop
      vertex -5.324705e-001 -1.170213e-001 4.000000e-001
      vertex -5.161392e-001 -1.808511e-001 4.000000e-001
      vertex -5.300436e-001 5.319149e-002 4.000000e-001
    endloop
  endfacet
  facet normal 0.000000e+000 0.000000e+000 1.000000e+000
    outer loop
      vertex -4.483871e-001 -2.659574e-001 4.000000e-001
      vertex -4.422086e-001 -7.446808e-002 4.000000e-001
      vertex -4.823745e-001 1.063830e-002 4.000000e-001
    endloop
  endfacet
  facet normal 0.000000e+000 0.000000e+000 1.000000e+000
    outer loop
      vertex -4.909799e-001 -3.510638e-001 4.000000e-001
      vertex -4.483871e-001 -2.659574e-001 4.000000e-001
      vertex -4.823745e-001 1.063830e-002 4.000000e-001
    endloop
  endfacet
  facet normal 0.000000e+000 0.000000e+000 1.000000e+000
    outer loop
      vertex -4.483871e-001 -2.659574e-001 4.000000e-001
      vertex -4.296289e-001 -1.595745e-001 4.000000e-001
      vertex -4.422086e-001 -7.446808e-002 4.000000e-001
    endloop
  endfacet
  facet normal 0.000000e+000 0.000000e+000 1.000000e+000
    outer loop
      vertex -5.273941e-001 -2.446809e-001 4.000000e-001
      vertex -5.611588e-001 -4.361702e-001 4.000000e-001
      vertex -4.909799e-001 -3.510638e-001 4.000000e-001
    endloop
  endfacet
  facet normal 0.000000e+000 0.000000e+000 1.000000e+000
    outer loop
      vertex -5.161392e-001 -1.808511e-001 4.000000e-001
      vertex -5.273941e-001 -2.446809e-001 4.000000e-001
      vertex -4.909799e-001 -3.510638e-001 4.000000e-001
    endloop
  endfacet
  facet normal 0.000000e+000 0.000000e+000 1.000000e+000
    outer loop
      vertex -6.151178e-001 -3.510638e-001 4.000000e-001
      vertex -6.238346e-001 -4.787234e-001 4.000000e-001
      vertex -5.611588e-001 -4.361702e-001 4.000000e-001
    endloop
  endfacet
  facet normal 0.000000e+000 0.000000e+000 1.000000e+000
    outer loop
      vertex -5.662352e-001 -3.085106e-001 4.000000e-001
      vertex -6.151178e-001 -3.510638e-001 4.000000e-001
      vertex -5.611588e-001 -4.361702e-001 4.000000e-001
    endloop
  endfacet
  facet normal 0.000000e+000 0.000000e+000 1.000000e+000
    outer loop
      vertex -5.273941e-001 -2.446809e-001 4.000000e-001
      vertex -5.662352e-001 -3.085106e-001 4.000000e-001
      vertex -5.611588e-001 -4.361702e-001 4.000000e-001
    endloop
  endfacet
  facet normal 0.000000e+000 0.000000e+000 1.000000e+000
    outer loop
      vertex -6.740419e-001 -3.723404e-001 4.000000e-001
      vertex -6.965517e-001 -5.000000e-001 4.000000e-001
      vertex -6.238346e-001 -4.787234e-001 4.000000e-001
    endloop
  endfacet
  facet normal 0.000000e+000 0.000000e+000 1.000000e+000
    outer loop
      vertex -6.151178e-001 -3.510638e-001 4.000000e-001
      vertex -6.740419e-001 -3.723404e-001 4.000000e-001
      vertex -6.238346e-001 -4.787234e-001 4.000000e-001
    endloop
  endfacet
  facet normal 0.000000e+000 0.000000e+000 1.000000e+000
    outer loop
      vertex -7.843867e-001 -3.723404e-001 4.000000e-001
      vertex -8.068966e-001 -5.000000e-001 4.000000e-001
      vertex -6.965517e-001 -5.000000e-001 4.000000e-001
    endloop
  endfacet
  facet normal 0.000000e+000 0.000000e+000 1.000000e+000
    outer loop
      vertex -6.740419e-001 -3.723404e-001 4.000000e-001
      vertex -7.843867e-001 -3.723404e-001 4.000000e-001
      vertex -6.965517e-001 -5.000000e-001 4.000000e-001
    endloop
  endfacet
  facet normal 0.000000e+000 0.000000e+000 1.000000e+000
    outer loop
      vertex -8.659319e-001 -2.872340e-001 4.000000e-001
      vertex -8.721104e-001 -4.787234e-001 4.000000e-001
      vertex -8.068966e-001 -5.000000e-001 4.000000e-001
    endloop
  endfacet
  facet normal 0.000000e+000 0.000000e+000 1.000000e+000
    outer loop
      vertex -8.358075e-001 -3.510638e-001 4.000000e-001
      vertex -8.659319e-001 -2.872340e-001 4.000000e-001
      vertex -8.068966e-001 -5.000000e-001 4.000000e-001
    endloop
  endfacet
  facet normal 0.000000e+000 0.000000e+000 1.000000e+000
    outer loop
      vertex -7.843867e-001 -3.723404e-001 4.000000e-001
      vertex -8.358075e-001 -3.510638e-001 4.000000e-001
      vertex -8.068966e-001 -5.000000e-001 4.000000e-001
    endloop
  endfacet
  facet normal 0.000000e+000 0.000000e+000 1.000000e+000
    outer loop
      vertex -9.512287e-001 -2.234043e-001 4.000000e-001
      vertex -9.298210e-001 -4.148936e-001 4.000000e-001
      vertex -8.721104e-001 -4.787234e-001 4.000000e-001
    endloop
  endfacet
  facet normal 0.000000e+000 0.000000e+000 1.000000e+000
    outer loop
      vertex -8.684701e-001 -2.234043e-001 4.000000e-001
      vertex -9.512287e-001 -2.234043e-001 4.000000e-001
      vertex -8.721104e-001 -4.787234e-001 4.000000e-001
    endloop
  endfacet
  facet normal 0.000000e+000 0.000000e+000 1.000000e+000
    outer loop
      vertex -8.659319e-001 -2.872340e-001 4.000000e-001
      vertex -8.684701e-001 -2.234043e-001 4.000000e-001
      vertex -8.721104e-001 -4.787234e-001 4.000000e-001
    endloop
  endfacet
  facet normal 0.000000e+000 0.000000e+000 1.000000e+000
    outer loop
      vertex -9.512287e-001 -2.234043e-001 4.000000e-001
      vertex -9.524422e-001 -3.085106e-001 4.000000e-001
      vertex -9.298210e-001 -4.148936e-001 4.000000e-001
    endloop
  endfacet
  facet normal 0.000000e+000 0.000000e+000 1.000000e+000
    outer loop
      vertex -7.947621e-001 3.510638e-001 4.000000e-001
      vertex -7.996159e-001 1.063830e-002 4.000000e-001
      vertex -7.519467e-001 -3.191489e-002 4.000000e-001
    endloop
  endfacet
  facet normal 0.000000e+000 0.000000e+000 1.000000e+000
    outer loop
      vertex -8.385683e-001 1.808511e-001 4.000000e-001
      vertex -8.397817e-001 9.574468e-002 4.000000e-001
      vertex -7.996159e-001 1.063830e-002 4.000000e-001
    endloop
  endfacet
  facet normal 0.000000e+000 0.000000e+000 1.000000e+000
    outer loop
      vertex -8.235617e-001 2.659574e-001 4.000000e-001
      vertex -8.385683e-001 1.808511e-001 4.000000e-001
      vertex -7.996159e-001 1.063830e-002 4.000000e-001
    endloop
  endfacet
  facet normal 0.000000e+000 0.000000e+000 1.000000e+000
    outer loop
      vertex -7.947621e-001 3.510638e-001 4.000000e-001
      vertex -8.235617e-001 2.659574e-001 4.000000e-001
      vertex -7.996159e-001 1.063830e-002 4.000000e-001
    endloop
  endfacet
  facet normal 0.000000e+000 0.000000e+000 1.000000e+000
    outer loop
      vertex -3.959755e-001 2.659574e-001 4.000000e-001
      vertex -4.248864e-001 4.148936e-001 4.000000e-001
      vertex -4.688039e-001 4.787234e-001 4.000000e-001
    endloop
  endfacet
  facet normal 0.000000e+000 0.000000e+000 1.000000e+000
    outer loop
      vertex -3.959755e-001 2.659574e-001 4.000000e-001
      vertex -3.985137e-001 3.297872e-001 4.000000e-001
      vertex -4.248864e-001 4.148936e-001 4.000000e-001
    endloop
  endfacet
  facet normal 0.000000e+000 0.000000e+000 1.000000e+000
    outer loop
      vertex 3.349477e-001 5.000000e-001 4.000000e-001
      vertex 6.896604e-003 -5.000000e-001 4.000000e-001
      vertex 3.388107e-001 2.872340e-001 4.000000e-001
    endloop
  endfacet
  facet normal 0.000000e+000 0.000000e+000 1.000000e+000
    outer loop
      vertex 4.590857e-001 5.000000e-001 4.000000e-001
      vertex 3.349477e-001 5.000000e-001 4.000000e-001
      vertex 3.388107e-001 2.872340e-001 4.000000e-001
    endloop
  endfacet
  facet normal 0.000000e+000 0.000000e+000 1.000000e+000
    outer loop
      vertex 2.827587e-001 -5.000000e-001 4.000000e-001
      vertex 4.590857e-001 5.000000e-001 4.000000e-001
      vertex 3.388107e-001 2.872340e-001 4.000000e-001
    endloop
  endfacet
  facet normal 0.000000e+000 0.000000e+000 1.000000e+000
    outer loop
      vertex 2.000001e-001 -5.000000e-001 4.000000e-001
      vertex 2.827587e-001 -5.000000e-001 4.000000e-001
      vertex 3.388107e-001 2.872340e-001 4.000000e-001
    endloop
  endfacet
  facet normal 0.000000e+000 0.000000e+000 1.000000e+000
    outer loop
      vertex -2.951762e-002 -3.936170e-001 4.000000e-001
      vertex -1.034482e-001 -5.000000e-001 4.000000e-001
      vertex 6.896604e-003 -5.000000e-001 4.000000e-001
    endloop
  endfacet
  facet normal 0.000000e+000 0.000000e+000 1.000000e+000
    outer loop
      vertex 3.349477e-001 5.000000e-001 4.000000e-001
      vertex -2.951762e-002 -3.936170e-001 4.000000e-001
      vertex 6.896604e-003 -5.000000e-001 4.000000e-001
    endloop
  endfacet
  facet normal 0.000000e+000 0.000000e+000 1.000000e+000
    outer loop
      vertex -7.884540e-002 5.000000e-001 4.000000e-001
      vertex -1.577411e-001 2.872340e-001 4.000000e-001
      vertex -1.034482e-001 -5.000000e-001 4.000000e-001
    endloop
  endfacet
  facet normal 0.000000e+000 0.000000e+000 1.000000e+000
    outer loop
      vertex -2.951762e-002 -3.936170e-001 4.000000e-001
      vertex -7.884540e-002 5.000000e-001 4.000000e-001
      vertex -1.034482e-001 -5.000000e-001 4.000000e-001
    endloop
  endfacet
  facet normal 0.000000e+000 0.000000e+000 1.000000e+000
    outer loop
      vertex -2.029833e-001 5.000000e-001 4.000000e-001
      vertex -2.965517e-001 -5.000000e-001 4.000000e-001
      vertex -1.577411e-001 2.872340e-001 4.000000e-001
    endloop
  endfacet
  facet normal 0.000000e+000 0.000000e+000 1.000000e+000
    outer loop
      vertex -7.884540e-002 5.000000e-001 4.000000e-001
      vertex -2.029833e-001 5.000000e-001 4.000000e-001
      vertex -1.577411e-001 2.872340e-001 4.000000e-001
    endloop
  endfacet
  facet normal 0.000000e+000 0.000000e+000 1.000000e+000
    outer loop
      vertex -2.029833e-001 5.000000e-001 4.000000e-001
      vertex -3.793103e-001 -5.000000e-001 4.000000e-001
      vertex -2.965517e-001 -5.000000e-001 4.000000e-001
    endloop
  endfacet
  facet normal 0.000000e+000 0.000000e+000 1.000000e+000
    outer loop
      vertex 8.669229e-001 -1.595745e-001 4.000000e-001
      vertex 9.171302e-001 -2.659574e-001 4.000000e-001
      vertex 9.496815e-001 -1.595745e-001 4.000000e-001
    endloop
  endfacet
  facet normal 0.000000e+000 0.000000e+000 1.000000e+000
    outer loop
      vertex 9.832236e-001 5.000000e-001 4.000000e-001
      vertex 8.669229e-001 -1.595745e-001 4.000000e-001
      vertex 9.496815e-001 -1.595745e-001 4.000000e-001
    endloop
  endfacet
  facet normal 0.000000e+000 0.000000e+000 1.000000e+000
    outer loop
      vertex 1.065982e+000 5.000000e-001 4.000000e-001
      vertex 9.832236e-001 5.000000e-001 4.000000e-001
      vertex 9.496815e-001 -1.595745e-001 4.000000e-001
    endloop
  endfacet
  facet normal 0.000000e+000 0.000000e+000 1.000000e+000
    outer loop
      vertex 8.669229e-001 -1.595745e-001 4.000000e-001
      vertex 8.745374e-001 -3.510638e-001 4.000000e-001
      vertex 9.171302e-001 -2.659574e-001 4.000000e-001
    endloop
  endfacet
  facet normal 0.000000e+000 0.000000e+000 1.000000e+000
    outer loop
      vertex 8.381232e-001 -2.446809e-001 4.000000e-001
      vertex 8.043585e-001 -4.361702e-001 4.000000e-001
      vertex 8.745374e-001 -3.510638e-001 4.000000e-001
    endloop
  endfacet
  facet normal 0.000000e+000 0.000000e+000 1.000000e+000
    outer loop
      vertex 8.669229e-001 -1.595745e-001 4.000000e-001
      vertex 8.381232e-001 -2.446809e-001 4.000000e-001
      vertex 8.745374e-001 -3.510638e-001 4.000000e-001
    endloop
  endfacet
  facet normal 0.000000e+000 0.000000e+000 1.000000e+000
    outer loop
      vertex 7.503995e-001 -3.510638e-001 4.000000e-001
      vertex 7.416828e-001 -4.787234e-001 4.000000e-001
      vertex 8.043585e-001 -4.361702e-001 4.000000e-001
    endloop
  endfacet
  facet normal 0.000000e+000 0.000000e+000 1.000000e+000
    outer loop
      vertex 7.992821e-001 -3.085106e-001 4.000000e-001
      vertex 7.503995e-001 -3.510638e-001 4.000000e-001
      vertex 8.043585e-001 -4.361702e-001 4.000000e-001
    endloop
  endfacet
  facet normal 0.000000e+000 0.000000e+000 1.000000e+000
    outer loop
      vertex 8.381232e-001 -2.446809e-001 4.000000e-001
      vertex 7.992821e-001 -3.085106e-001 4.000000e-001
      vertex 8.043585e-001 -4.361702e-001 4.000000e-001
    endloop
  endfacet
  facet normal 0.000000e+000 0.000000e+000 1.000000e+000
    outer loop
      vertex 6.914755e-001 -3.723404e-001 4.000000e-001
      vertex 6.689656e-001 -5.000000e-001 4.000000e-001
      vertex 7.416828e-001 -4.787234e-001 4.000000e-001
    endloop
  endfacet
  facet normal 0.000000e+000 0.000000e+000 1.000000e+000
    outer loop
      vertex 7.503995e-001 -3.510638e-001 4.000000e-001
      vertex 6.914755e-001 -3.723404e-001 4.000000e-001
      vertex 7.416828e-001 -4.787234e-001 4.000000e-001
    endloop
  endfacet
  facet normal 0.000000e+000 0.000000e+000 1.000000e+000
    outer loop
      vertex 6.363030e-001 -3.723404e-001 4.000000e-001
      vertex 6.137932e-001 -5.000000e-001 4.000000e-001
      vertex 6.689656e-001 -5.000000e-001 4.000000e-001
    endloop
  endfacet
  facet normal 0.000000e+000 0.000000e+000 1.000000e+000
    outer loop
      vertex 6.914755e-001 -3.723404e-001 4.000000e-001
      vertex 6.363030e-001 -3.723404e-001 4.000000e-001
      vertex 6.689656e-001 -5.000000e-001 4.000000e-001
    endloop
  endfacet
  facet normal 0.000000e+000 0.000000e+000 1.000000e+000
    outer loop
      vertex 5.510062e-001 -3.085106e-001 4.000000e-001
      vertex 5.485793e-001 -4.787234e-001 4.000000e-001
      vertex 6.137932e-001 -5.000000e-001 4.000000e-001
    endloop
  endfacet
  facet normal 0.000000e+000 0.000000e+000 1.000000e+000
    outer loop
      vertex 5.848823e-001 -3.510638e-001 4.000000e-001
      vertex 5.510062e-001 -3.085106e-001 4.000000e-001
      vertex 6.137932e-001 -5.000000e-001 4.000000e-001
    endloop
  endfacet
  facet normal 0.000000e+000 0.000000e+000 1.000000e+000
    outer loop
      vertex 6.363030e-001 -3.723404e-001 4.000000e-001
      vertex 5.848823e-001 -3.510638e-001 4.000000e-001
      vertex 6.137932e-001 -5.000000e-001 4.000000e-001
    endloop
  endfacet
  facet normal 0.000000e+000 0.000000e+000 1.000000e+000
    outer loop
      vertex 5.346749e-001 -2.446809e-001 4.000000e-001
      vertex 5.009102e-001 -4.361702e-001 4.000000e-001
      vertex 5.485793e-001 -4.787234e-001 4.000000e-001
    endloop
  endfacet
  facet normal 0.000000e+000 0.000000e+000 1.000000e+000
    outer loop
      vertex 5.510062e-001 -3.085106e-001 4.000000e-001
      vertex 5.346749e-001 -2.446809e-001 4.000000e-001
      vertex 5.485793e-001 -4.787234e-001 4.000000e-001
    endloop
  endfacet
  facet normal 0.000000e+000 0.000000e+000 1.000000e+000
    outer loop
      vertex 4.531297e-001 -1.595745e-001 4.000000e-001
      vertex 4.607443e-001 -3.510638e-001 4.000000e-001
      vertex 5.009102e-001 -4.361702e-001 4.000000e-001
    endloop
  endfacet
  facet normal 0.000000e+000 0.000000e+000 1.000000e+000
    outer loop
      vertex 5.346749e-001 -2.446809e-001 4.000000e-001
      vertex 4.531297e-001 -1.595745e-001 4.000000e-001
      vertex 5.009102e-001 -4.361702e-001 4.000000e-001
    endloop
  endfacet
  facet normal 0.000000e+000 0.000000e+000 1.000000e+000
    outer loop
      vertex 4.531297e-001 -1.595745e-001 4.000000e-001
      vertex 4.481646e-001 -2.659574e-001 4.000000e-001
      vertex 4.607443e-001 -3.510638e-001 4.000000e-001
    endloop
  endfacet
  facet normal 0.000000e+000 0.000000e+000 1.000000e+000
    outer loop
      vertex 5.358884e-001 -1.595745e-001 4.000000e-001
      vertex 5.694305e-001 5.000000e-001 4.000000e-001
      vertex 4.531297e-001 -1.595745e-001 4.000000e-001
    endloop
  endfacet
  facet normal 0.000000e+000 0.000000e+000 1.000000e+000
    outer loop
      vertex 5.346749e-001 -2.446809e-001 4.000000e-001
      vertex 5.358884e-001 -1.595745e-001 4.000000e-001
      vertex 4.531297e-001 -1.595745e-001 4.000000e-001
    endloop
  endfacet
  facet normal 0.000000e+000 0.000000e+000 1.000000e+000
    outer loop
      vertex 5.358884e-001 -1.595745e-001 4.000000e-001
      vertex 6.521891e-001 5.000000e-001 4.000000e-001
      vertex 5.694305e-001 5.000000e-001 4.000000e-001
    endloop
  endfacet
endsolid SMU
