solid TWOHOLE
  facet normal 0.000000e+000 0.000000e+000 -1.000000e+000
    outer loop
      vertex -2.500000e-001 -6.123032e-017 0.000000e+000
      vertex 2.995317e-001 2.169514e-001 0.000000e+000
      vertex 2.500000e-001 6.123032e-017 0.000000e+000
    endloop
  endfacet
  facet normal 9.749143e-001 -2.225805e-001 2.743517e-033
    outer loop
      vertex 2.500000e-001 6.123032e-017 2.000000e+000
      vertex 2.500000e-001 6.123032e-017 0.000000e+000
      vertex 2.995317e-001 2.169514e-001 0.000000e+000
    endloop
  endfacet
  facet normal 0.000000e+000 0.000000e+000 -1.000000e+000
    outer loop
      vertex -1.500000e+000 -1.000000e+000 0.000000e+000
      vertex 2.500000e-001 6.123032e-017 0.000000e+000
      vertex 2.995317e-001 -2.169514e-001 0.000000e+000
    endloop
  endfacet
  facet normal 9.749143e-001 2.225805e-001 0.000000e+000
    outer loop
      vertex 2.995317e-001 -2.169514e-001 2.000000e+000
      vertex 2.995317e-001 -2.169514e-001 0.000000e+000
      vertex 2.500000e-001 6.123032e-017 0.000000e+000
    endloop
  endfacet
  facet normal 0.000000e+000 0.000000e+000 -1.000000e+000
    outer loop
      vertex -2.995317e-001 -2.169514e-001 0.000000e+000
      vertex -2.500000e-001 -6.123032e-017 0.000000e+000
      vertex 2.500000e-001 6.123032e-017 0.000000e+000
    endloop
  endfacet
  facet normal 0.000000e+000 0.000000e+000 -1.000000e+000
    outer loop
      vertex -4.382264e-001 -3.908895e-001 0.000000e+000
      vertex -2.995317e-001 -2.169514e-001 0.000000e+000
      vertex 2.500000e-001 6.123032e-017 0.000000e+000
    endloop
  endfacet
  facet normal 0.000000e+000 0.000000e+000 -1.000000e+000
    outer loop
      vertex -1.500000e+000 -1.000000e+000 0.000000e+000
      vertex -4.382264e-001 -3.908895e-001 0.000000e+000
      vertex 2.500000e-001 6.123032e-017 0.000000e+000
    endloop
  endfacet
  facet normal 9.749143e-001 2.225805e-001 0.000000e+000
    outer loop
      vertex 2.995317e-001 -2.169514e-001 2.000000e+000
      vertex 2.500000e-001 6.123032e-017 0.000000e+000
      vertex 2.500000e-001 6.123032e-017 2.000000e+000
    endloop
  endfacet
  facet normal 0.000000e+000 0.000000e+000 -1.000000e+000
    outer loop
      vertex -2.500000e-001 -6.123032e-017 0.000000e+000
      vertex 4.382264e-001 3.908895e-001 0.000000e+000
      vertex 2.995317e-001 2.169514e-001 0.000000e+000
    endloop
  endfacet
  facet normal 7.818673e-001 -6.234449e-001 0.000000e+000
    outer loop
      vertex 2.995317e-001 2.169514e-001 2.000000e+000
      vertex 2.995317e-001 2.169514e-001 0.000000e+000
      vertex 4.382264e-001 3.908895e-001 0.000000e+000
    endloop
  endfacet
  facet normal 9.749143e-001 -2.225805e-001 0.000000e+000
    outer loop
      vertex 2.995317e-001 2.169514e-001 2.000000e+000
      vertex 2.500000e-001 6.123032e-017 2.000000e+000
      vertex 2.995317e-001 2.169514e-001 0.000000e+000
    endloop
  endfacet
  facet normal 0.000000e+000 0.000000e+000 -1.000000e+000
    outer loop
      vertex 1.500000e+000 1.000000e+000 0.000000e+000
      vertex 6.387790e-001 4.874656e-001 0.000000e+000
      vertex 4.382264e-001 3.908895e-001 0.000000e+000
    endloop
  endfacet
  facet normal 4.338654e-001 -9.009777e-001 0.000000e+000
    outer loop
      vertex 4.382264e-001 3.908895e-001 2.000000e+000
      vertex 4.382264e-001 3.908895e-001 0.000000e+000
      vertex 6.387790e-001 4.874656e-001 0.000000e+000
    endloop
  endfacet
  facet normal 0.000000e+000 0.000000e+000 -1.000000e+000
    outer loop
      vertex 1.500000e+000 1.000000e+000 0.000000e+000
      vertex 4.382264e-001 3.908895e-001 0.000000e+000
      vertex -2.500000e-001 -6.123032e-017 0.000000e+000
    endloop
  endfacet
  facet normal 7.818673e-001 -6.234449e-001 0.000000e+000
    outer loop
      vertex 2.995317e-001 2.169514e-001 2.000000e+000
      vertex 4.382264e-001 3.908895e-001 0.000000e+000
      vertex 4.382264e-001 3.908895e-001 2.000000e+000
    endloop
  endfacet
  facet normal 0.000000e+000 0.000000e+000 -1.000000e+000
    outer loop
      vertex 1.500000e+000 1.000000e+000 0.000000e+000
      vertex 8.612210e-001 4.874656e-001 0.000000e+000
      vertex 6.387790e-001 4.874656e-001 0.000000e+000
    endloop
  endfacet
  facet normal -2.495534e-016 -1.000000e+000 0.000000e+000
    outer loop
      vertex 6.387790e-001 4.874656e-001 2.000000e+000
      vertex 6.387790e-001 4.874656e-001 0.000000e+000
      vertex 8.612210e-001 4.874656e-001 0.000000e+000
    endloop
  endfacet
  facet normal 4.338654e-001 -9.009777e-001 0.000000e+000
    outer loop
      vertex 4.382264e-001 3.908895e-001 2.000000e+000
      vertex 6.387790e-001 4.874656e-001 0.000000e+000
      vertex 6.387790e-001 4.874656e-001 2.000000e+000
    endloop
  endfacet
  facet normal 0.000000e+000 0.000000e+000 -1.000000e+000
    outer loop
      vertex 1.500000e+000 1.000000e+000 0.000000e+000
      vertex 1.061774e+000 3.908895e-001 0.000000e+000
      vertex 8.612210e-001 4.874656e-001 0.000000e+000
    endloop
  endfacet
  facet normal -4.338654e-001 -9.009777e-001 0.000000e+000
    outer loop
      vertex 8.612210e-001 4.874656e-001 2.000000e+000
      vertex 8.612210e-001 4.874656e-001 0.000000e+000
      vertex 1.061774e+000 3.908895e-001 0.000000e+000
    endloop
  endfacet
  facet normal -2.495534e-016 -1.000000e+000 0.000000e+000
    outer loop
      vertex 6.387790e-001 4.874656e-001 2.000000e+000
      vertex 8.612210e-001 4.874656e-001 0.000000e+000
      vertex 8.612210e-001 4.874656e-001 2.000000e+000
    endloop
  endfacet
  facet normal 0.000000e+000 0.000000e+000 -1.000000e+000
    outer loop
      vertex 1.500000e+000 1.000000e+000 0.000000e+000
      vertex 1.200468e+000 2.169514e-001 0.000000e+000
      vertex 1.061774e+000 3.908895e-001 0.000000e+000
    endloop
  endfacet
  facet normal -7.818673e-001 -6.234449e-001 0.000000e+000
    outer loop
      vertex 1.061774e+000 3.908895e-001 2.000000e+000
      vertex 1.061774e+000 3.908895e-001 0.000000e+000
      vertex 1.200468e+000 2.169514e-001 0.000000e+000
    endloop
  endfacet
  facet normal -4.338654e-001 -9.009777e-001 0.000000e+000
    outer loop
      vertex 8.612210e-001 4.874656e-001 2.000000e+000
      vertex 1.061774e+000 3.908895e-001 0.000000e+000
      vertex 1.061774e+000 3.908895e-001 2.000000e+000
    endloop
  endfacet
  facet normal 0.000000e+000 0.000000e+000 -1.000000e+000
    outer loop
      vertex 1.500000e+000 1.000000e+000 0.000000e+000
      vertex 1.250000e+000 -6.123032e-017 0.000000e+000
      vertex 1.200468e+000 2.169514e-001 0.000000e+000
    endloop
  endfacet
  facet normal -9.749143e-001 -2.225805e-001 0.000000e+000
    outer loop
      vertex 1.200468e+000 2.169514e-001 2.000000e+000
      vertex 1.200468e+000 2.169514e-001 0.000000e+000
      vertex 1.250000e+000 -6.123032e-017 0.000000e+000
    endloop
  endfacet
  facet normal -7.818673e-001 -6.234449e-001 0.000000e+000
    outer loop
      vertex 1.061774e+000 3.908895e-001 2.000000e+000
      vertex 1.200468e+000 2.169514e-001 0.000000e+000
      vertex 1.200468e+000 2.169514e-001 2.000000e+000
    endloop
  endfacet
  facet normal 0.000000e+000 0.000000e+000 -1.000000e+000
    outer loop
      vertex 1.500000e+000 1.000000e+000 0.000000e+000
      vertex 1.200468e+000 -2.169514e-001 0.000000e+000
      vertex 1.250000e+000 -6.123032e-017 0.000000e+000
    endloop
  endfacet
  facet normal -9.749143e-001 2.225805e-001 0.000000e+000
    outer loop
      vertex 1.250000e+000 -6.123032e-017 2.000000e+000
      vertex 1.250000e+000 -6.123032e-017 0.000000e+000
      vertex 1.200468e+000 -2.169514e-001 0.000000e+000
    endloop
  endfacet
  facet normal -9.749143e-001 -2.225805e-001 0.000000e+000
    outer loop
      vertex 1.200468e+000 2.169514e-001 2.000000e+000
      vertex 1.250000e+000 -6.123032e-017 0.000000e+000
      vertex 1.250000e+000 -6.123032e-017 2.000000e+000
    endloop
  endfacet
  facet normal 0.000000e+000 0.000000e+000 -1.000000e+000
    outer loop
      vertex 1.500000e+000 -1.000000e+000 0.000000e+000
      vertex 1.061774e+000 -3.908895e-001 0.000000e+000
      vertex 1.200468e+000 -2.169514e-001 0.000000e+000
    endloop
  endfacet
  facet normal -7.818673e-001 6.234449e-001 0.000000e+000
    outer loop
      vertex 1.200468e+000 -2.169514e-001 2.000000e+000
      vertex 1.200468e+000 -2.169514e-001 0.000000e+000
      vertex 1.061774e+000 -3.908895e-001 0.000000e+000
    endloop
  endfacet
  facet normal 0.000000e+000 0.000000e+000 -1.000000e+000
    outer loop
      vertex 1.500000e+000 1.000000e+000 0.000000e+000
      vertex 1.500000e+000 -1.000000e+000 0.000000e+000
      vertex 1.200468e+000 -2.169514e-001 0.000000e+000
    endloop
  endfacet
  facet normal -9.749143e-001 2.225805e-001 0.000000e+000
    outer loop
      vertex 1.250000e+000 -6.123032e-017 2.000000e+000
      vertex 1.200468e+000 -2.169514e-001 0.000000e+000
      vertex 1.200468e+000 -2.169514e-001 2.000000e+000
    endloop
  endfacet
  facet normal 0.000000e+000 0.000000e+000 -1.000000e+000
    outer loop
      vertex 1.500000e+000 -1.000000e+000 0.000000e+000
      vertex 8.612210e-001 -4.874656e-001 0.000000e+000
      vertex 1.061774e+000 -3.908895e-001 0.000000e+000
    endloop
  endfacet
  facet normal -4.338654e-001 9.009777e-001 0.000000e+000
    outer loop
      vertex 1.061774e+000 -3.908895e-001 2.000000e+000
      vertex 1.061774e+000 -3.908895e-001 0.000000e+000
      vertex 8.612210e-001 -4.874656e-001 0.000000e+000
    endloop
  endfacet
  facet normal -7.818673e-001 6.234449e-001 0.000000e+000
    outer loop
      vertex 1.200468e+000 -2.169514e-001 2.000000e+000
      vertex 1.061774e+000 -3.908895e-001 0.000000e+000
      vertex 1.061774e+000 -3.908895e-001 2.000000e+000
    endloop
  endfacet
  facet normal 0.000000e+000 0.000000e+000 -1.000000e+000
    outer loop
      vertex -1.500000e+000 -1.000000e+000 0.000000e+000
      vertex 6.387790e-001 -4.874656e-001 0.000000e+000
      vertex 8.612210e-001 -4.874656e-001 0.000000e+000
    endloop
  endfacet
  facet normal -2.495534e-016 1.000000e+000 0.000000e+000
    outer loop
      vertex 8.612210e-001 -4.874656e-001 2.000000e+000
      vertex 8.612210e-001 -4.874656e-001 0.000000e+000
      vertex 6.387790e-001 -4.874656e-001 0.000000e+000
    endloop
  endfacet
  facet normal 0.000000e+000 0.000000e+000 -1.000000e+000
    outer loop
      vertex -1.500000e+000 -1.000000e+000 0.000000e+000
      vertex 8.612210e-001 -4.874656e-001 0.000000e+000
      vertex 1.500000e+000 -1.000000e+000 0.000000e+000
    endloop
  endfacet
  facet normal -4.338654e-001 9.009777e-001 0.000000e+000
    outer loop
      vertex 1.061774e+000 -3.908895e-001 2.000000e+000
      vertex 8.612210e-001 -4.874656e-001 0.000000e+000
      vertex 8.612210e-001 -4.874656e-001 2.000000e+000
    endloop
  endfacet
  facet normal 0.000000e+000 0.000000e+000 -1.000000e+000
    outer loop
      vertex -1.500000e+000 -1.000000e+000 0.000000e+000
      vertex 4.382264e-001 -3.908895e-001 0.000000e+000
      vertex 6.387790e-001 -4.874656e-001 0.000000e+000
    endloop
  endfacet
  facet normal 4.338654e-001 9.009777e-001 0.000000e+000
    outer loop
      vertex 6.387790e-001 -4.874656e-001 2.000000e+000
      vertex 6.387790e-001 -4.874656e-001 0.000000e+000
      vertex 4.382264e-001 -3.908895e-001 0.000000e+000
    endloop
  endfacet
  facet normal -2.495534e-016 1.000000e+000 0.000000e+000
    outer loop
      vertex 8.612210e-001 -4.874656e-001 2.000000e+000
      vertex 6.387790e-001 -4.874656e-001 0.000000e+000
      vertex 6.387790e-001 -4.874656e-001 2.000000e+000
    endloop
  endfacet
  facet normal 0.000000e+000 0.000000e+000 -1.000000e+000
    outer loop
      vertex -1.500000e+000 -1.000000e+000 0.000000e+000
      vertex 2.995317e-001 -2.169514e-001 0.000000e+000
      vertex 4.382264e-001 -3.908895e-001 0.000000e+000
    endloop
  endfacet
  facet normal 7.818673e-001 6.234449e-001 0.000000e+000
    outer loop
      vertex 4.382264e-001 -3.908895e-001 2.000000e+000
      vertex 4.382264e-001 -3.908895e-001 0.000000e+000
      vertex 2.995317e-001 -2.169514e-001 0.000000e+000
    endloop
  endfacet
  facet normal 4.338654e-001 9.009777e-001 0.000000e+000
    outer loop
      vertex 6.387790e-001 -4.874656e-001 2.000000e+000
      vertex 4.382264e-001 -3.908895e-001 0.000000e+000
      vertex 4.382264e-001 -3.908895e-001 2.000000e+000
    endloop
  endfacet
  facet normal 7.818673e-001 6.234449e-001 0.000000e+000
    outer loop
      vertex 4.382264e-001 -3.908895e-001 2.000000e+000
      vertex 2.995317e-001 -2.169514e-001 0.000000e+000
      vertex 2.995317e-001 -2.169514e-001 2.000000e+000
    endloop
  endfacet
  facet normal 0.000000e+000 0.000000e+000 -1.000000e+000
    outer loop
      vertex -1.500000e+000 -1.000000e+000 0.000000e+000
      vertex -1.200468e+000 2.169514e-001 0.000000e+000
      vertex -1.250000e+000 6.123032e-017 0.000000e+000
    endloop
  endfacet
  facet normal 9.749143e-001 -2.225805e-001 -1.371759e-033
    outer loop
      vertex -1.250000e+000 6.123032e-017 2.000000e+000
      vertex -1.250000e+000 6.123032e-017 0.000000e+000
      vertex -1.200468e+000 2.169514e-001 0.000000e+000
    endloop
  endfacet
  facet normal 0.000000e+000 0.000000e+000 -1.000000e+000
    outer loop
      vertex -1.500000e+000 -1.000000e+000 0.000000e+000
      vertex -1.250000e+000 6.123032e-017 0.000000e+000
      vertex -1.200468e+000 -2.169514e-001 0.000000e+000
    endloop
  endfacet
  facet normal 9.749143e-001 2.225805e-001 0.000000e+000
    outer loop
      vertex -1.200468e+000 -2.169514e-001 2.000000e+000
      vertex -1.200468e+000 -2.169514e-001 0.000000e+000
      vertex -1.250000e+000 6.123032e-017 0.000000e+000
    endloop
  endfacet
  facet normal 9.749143e-001 2.225805e-001 0.000000e+000
    outer loop
      vertex -1.200468e+000 -2.169514e-001 2.000000e+000
      vertex -1.250000e+000 6.123032e-017 0.000000e+000
      vertex -1.250000e+000 6.123032e-017 2.000000e+000
    endloop
  endfacet
  facet normal 0.000000e+000 0.000000e+000 -1.000000e+000
    outer loop
      vertex -1.500000e+000 1.000000e+000 0.000000e+000
      vertex -1.061774e+000 3.908895e-001 0.000000e+000
      vertex -1.200468e+000 2.169514e-001 0.000000e+000
    endloop
  endfacet
  facet normal 7.818673e-001 -6.234449e-001 0.000000e+000
    outer loop
      vertex -1.200468e+000 2.169514e-001 2.000000e+000
      vertex -1.200468e+000 2.169514e-001 0.000000e+000
      vertex -1.061774e+000 3.908895e-001 0.000000e+000
    endloop
  endfacet
  facet normal 0.000000e+000 0.000000e+000 -1.000000e+000
    outer loop
      vertex -1.500000e+000 -1.000000e+000 0.000000e+000
      vertex -1.500000e+000 1.000000e+000 0.000000e+000
      vertex -1.200468e+000 2.169514e-001 0.000000e+000
    endloop
  endfacet
  facet normal 9.749143e-001 -2.225805e-001 0.000000e+000
    outer loop
      vertex -1.200468e+000 2.169514e-001 2.000000e+000
      vertex -1.250000e+000 6.123032e-017 2.000000e+000
      vertex -1.200468e+000 2.169514e-001 0.000000e+000
    endloop
  endfacet
  facet normal 0.000000e+000 0.000000e+000 -1.000000e+000
    outer loop
      vertex -1.500000e+000 1.000000e+000 0.000000e+000
      vertex -8.612210e-001 4.874656e-001 0.000000e+000
      vertex -1.061774e+000 3.908895e-001 0.000000e+000
    endloop
  endfacet
  facet normal 4.338654e-001 -9.009777e-001 0.000000e+000
    outer loop
      vertex -1.061774e+000 3.908895e-001 2.000000e+000
      vertex -1.061774e+000 3.908895e-001 0.000000e+000
      vertex -8.612210e-001 4.874656e-001 0.000000e+000
    endloop
  endfacet
  facet normal 7.818673e-001 -6.234449e-001 0.000000e+000
    outer loop
      vertex -1.200468e+000 2.169514e-001 2.000000e+000
      vertex -1.061774e+000 3.908895e-001 0.000000e+000
      vertex -1.061774e+000 3.908895e-001 2.000000e+000
    endloop
  endfacet
  facet normal 0.000000e+000 0.000000e+000 -1.000000e+000
    outer loop
      vertex 1.500000e+000 1.000000e+000 0.000000e+000
      vertex -6.387790e-001 4.874656e-001 0.000000e+000
      vertex -8.612210e-001 4.874656e-001 0.000000e+000
    endloop
  endfacet
  facet normal -2.495534e-016 -1.000000e+000 0.000000e+000
    outer loop
      vertex -8.612210e-001 4.874656e-001 2.000000e+000
      vertex -8.612210e-001 4.874656e-001 0.000000e+000
      vertex -6.387790e-001 4.874656e-001 0.000000e+000
    endloop
  endfacet
  facet normal 0.000000e+000 0.000000e+000 -1.000000e+000
    outer loop
      vertex -1.500000e+000 1.000000e+000 0.000000e+000
      vertex 1.500000e+000 1.000000e+000 0.000000e+000
      vertex -8.612210e-001 4.874656e-001 0.000000e+000
    endloop
  endfacet
  facet normal 4.338654e-001 -9.009777e-001 0.000000e+000
    outer loop
      vertex -1.061774e+000 3.908895e-001 2.000000e+000
      vertex -8.612210e-001 4.874656e-001 0.000000e+000
      vertex -8.612210e-001 4.874656e-001 2.000000e+000
    endloop
  endfacet
  facet normal 0.000000e+000 0.000000e+000 -1.000000e+000
    outer loop
      vertex 1.500000e+000 1.000000e+000 0.000000e+000
      vertex -4.382264e-001 3.908895e-001 0.000000e+000
      vertex -6.387790e-001 4.874656e-001 0.000000e+000
    endloop
  endfacet
  facet normal -4.338654e-001 -9.009777e-001 0.000000e+000
    outer loop
      vertex -6.387790e-001 4.874656e-001 2.000000e+000
      vertex -6.387790e-001 4.874656e-001 0.000000e+000
      vertex -4.382264e-001 3.908895e-001 0.000000e+000
    endloop
  endfacet
  facet normal -2.495534e-016 -1.000000e+000 0.000000e+000
    outer loop
      vertex -8.612210e-001 4.874656e-001 2.000000e+000
      vertex -6.387790e-001 4.874656e-001 0.000000e+000
      vertex -6.387790e-001 4.874656e-001 2.000000e+000
    endloop
  endfacet
  facet normal 0.000000e+000 0.000000e+000 -1.000000e+000
    outer loop
      vertex 1.500000e+000 1.000000e+000 0.000000e+000
      vertex -2.995317e-001 2.169514e-001 0.000000e+000
      vertex -4.382264e-001 3.908895e-001 0.000000e+000
    endloop
  endfacet
  facet normal -7.818673e-001 -6.234449e-001 0.000000e+000
    outer loop
      vertex -4.382264e-001 3.908895e-001 2.000000e+000
      vertex -4.382264e-001 3.908895e-001 0.000000e+000
      vertex -2.995317e-001 2.169514e-001 0.000000e+000
    endloop
  endfacet
  facet normal -4.338654e-001 -9.009777e-001 0.000000e+000
    outer loop
      vertex -6.387790e-001 4.874656e-001 2.000000e+000
      vertex -4.382264e-001 3.908895e-001 0.000000e+000
      vertex -4.382264e-001 3.908895e-001 2.000000e+000
    endloop
  endfacet
  facet normal 0.000000e+000 0.000000e+000 -1.000000e+000
    outer loop
      vertex 1.500000e+000 1.000000e+000 0.000000e+000
      vertex -2.500000e-001 -6.123032e-017 0.000000e+000
      vertex -2.995317e-001 2.169514e-001 0.000000e+000
    endloop
  endfacet
  facet normal -9.749143e-001 -2.225805e-001 0.000000e+000
    outer loop
      vertex -2.995317e-001 2.169514e-001 2.000000e+000
      vertex -2.995317e-001 2.169514e-001 0.000000e+000
      vertex -2.500000e-001 -6.123032e-017 0.000000e+000
    endloop
  endfacet
  facet normal -7.818673e-001 -6.234449e-001 0.000000e+000
    outer loop
      vertex -4.382264e-001 3.908895e-001 2.000000e+000
      vertex -2.995317e-001 2.169514e-001 0.000000e+000
      vertex -2.995317e-001 2.169514e-001 2.000000e+000
    endloop
  endfacet
  facet normal -9.749143e-001 2.225805e-001 0.000000e+000
    outer loop
      vertex -2.500000e-001 -6.123032e-017 2.000000e+000
      vertex -2.500000e-001 -6.123032e-017 0.000000e+000
      vertex -2.995317e-001 -2.169514e-001 0.000000e+000
    endloop
  endfacet
  facet normal -9.749143e-001 -2.225805e-001 0.000000e+000
    outer loop
      vertex -2.995317e-001 2.169514e-001 2.000000e+000
      vertex -2.500000e-001 -6.123032e-017 0.000000e+000
      vertex -2.500000e-001 -6.123032e-017 2.000000e+000
    endloop
  endfacet
  facet normal -7.818673e-001 6.234449e-001 0.000000e+000
    outer loop
      vertex -2.995317e-001 -2.169514e-001 2.000000e+000
      vertex -2.995317e-001 -2.169514e-001 0.000000e+000
      vertex -4.382264e-001 -3.908895e-001 0.000000e+000
    endloop
  endfacet
  facet normal -9.749143e-001 2.225805e-001 0.000000e+000
    outer loop
      vertex -2.500000e-001 -6.123032e-017 2.000000e+000
      vertex -2.995317e-001 -2.169514e-001 0.000000e+000
      vertex -2.995317e-001 -2.169514e-001 2.000000e+000
    endloop
  endfacet
  facet normal 0.000000e+000 0.000000e+000 -1.000000e+000
    outer loop
      vertex -1.500000e+000 -1.000000e+000 0.000000e+000
      vertex -6.387790e-001 -4.874656e-001 0.000000e+000
      vertex -4.382264e-001 -3.908895e-001 0.000000e+000
    endloop
  endfacet
  facet normal -4.338654e-001 9.009777e-001 0.000000e+000
    outer loop
      vertex -4.382264e-001 -3.908895e-001 2.000000e+000
      vertex -4.382264e-001 -3.908895e-001 0.000000e+000
      vertex -6.387790e-001 -4.874656e-001 0.000000e+000
    endloop
  endfacet
  facet normal -7.818673e-001 6.234449e-001 0.000000e+000
    outer loop
      vertex -2.995317e-001 -2.169514e-001 2.000000e+000
      vertex -4.382264e-001 -3.908895e-001 0.000000e+000
      vertex -4.382264e-001 -3.908895e-001 2.000000e+000
    endloop
  endfacet
  facet normal 0.000000e+000 0.000000e+000 -1.000000e+000
    outer loop
      vertex -1.500000e+000 -1.000000e+000 0.000000e+000
      vertex -8.612210e-001 -4.874656e-001 0.000000e+000
      vertex -6.387790e-001 -4.874656e-001 0.000000e+000
    endloop
  endfacet
  facet normal -2.495534e-016 1.000000e+000 0.000000e+000
    outer loop
      vertex -6.387790e-001 -4.874656e-001 2.000000e+000
      vertex -6.387790e-001 -4.874656e-001 0.000000e+000
      vertex -8.612210e-001 -4.874656e-001 0.000000e+000
    endloop
  endfacet
  facet normal -4.338654e-001 9.009777e-001 0.000000e+000
    outer loop
      vertex -4.382264e-001 -3.908895e-001 2.000000e+000
      vertex -6.387790e-001 -4.874656e-001 0.000000e+000
      vertex -6.387790e-001 -4.874656e-001 2.000000e+000
    endloop
  endfacet
  facet normal 0.000000e+000 0.000000e+000 -1.000000e+000
    outer loop
      vertex -1.500000e+000 -1.000000e+000 0.000000e+000
      vertex -1.061774e+000 -3.908895e-001 0.000000e+000
      vertex -8.612210e-001 -4.874656e-001 0.000000e+000
    endloop
  endfacet
  facet normal 4.338654e-001 9.009777e-001 0.000000e+000
    outer loop
      vertex -8.612210e-001 -4.874656e-001 2.000000e+000
      vertex -8.612210e-001 -4.874656e-001 0.000000e+000
      vertex -1.061774e+000 -3.908895e-001 0.000000e+000
    endloop
  endfacet
  facet normal -2.495534e-016 1.000000e+000 0.000000e+000
    outer loop
      vertex -6.387790e-001 -4.874656e-001 2.000000e+000
      vertex -8.612210e-001 -4.874656e-001 0.000000e+000
      vertex -8.612210e-001 -4.874656e-001 2.000000e+000
    endloop
  endfacet
  facet normal 0.000000e+000 0.000000e+000 -1.000000e+000
    outer loop
      vertex -1.500000e+000 -1.000000e+000 0.000000e+000
      vertex -1.200468e+000 -2.169514e-001 0.000000e+000
      vertex -1.061774e+000 -3.908895e-001 0.000000e+000
    endloop
  endfacet
  facet normal 7.818673e-001 6.234449e-001 0.000000e+000
    outer loop
      vertex -1.061774e+000 -3.908895e-001 2.000000e+000
      vertex -1.061774e+000 -3.908895e-001 0.000000e+000
      vertex -1.200468e+000 -2.169514e-001 0.000000e+000
    endloop
  endfacet
  facet normal 4.338654e-001 9.009777e-001 0.000000e+000
    outer loop
      vertex -8.612210e-001 -4.874656e-001 2.000000e+000
      vertex -1.061774e+000 -3.908895e-001 0.000000e+000
      vertex -1.061774e+000 -3.908895e-001 2.000000e+000
    endloop
  endfacet
  facet normal 7.818673e-001 6.234449e-001 0.000000e+000
    outer loop
      vertex -1.061774e+000 -3.908895e-001 2.000000e+000
      vertex -1.200468e+000 -2.169514e-001 0.000000e+000
      vertex -1.200468e+000 -2.169514e-001 2.000000e+000
    endloop
  endfacet
  facet normal 1.000000e+000 0.000000e+000 0.000000e+000
    outer loop
      vertex 1.500000e+000 1.000000e+000 2.000000e+000
      vertex 1.500000e+000 -1.000000e+000 0.000000e+000
      vertex 1.500000e+000 1.000000e+000 0.000000e+000
    endloop
  endfacet
  facet normal 0.000000e+000 -1.000000e+000 0.000000e+000
    outer loop
      vertex -1.500000e+000 -1.000000e+000 2.000000e+000
      vertex -1.500000e+000 -1.000000e+000 0.000000e+000
      vertex 1.500000e+000 -1.000000e+000 0.000000e+000
    endloop
  endfacet
  facet normal 0.000000e+000 -1.000000e+000 0.000000e+000
    outer loop
      vertex -1.500000e+000 -1.000000e+000 2.000000e+000
      vertex 1.500000e+000 -1.000000e+000 0.000000e+000
      vertex 1.500000e+000 -1.000000e+000 2.000000e+000
    endloop
  endfacet
  facet normal 1.000000e+000 0.000000e+000 0.000000e+000
    outer loop
      vertex 1.500000e+000 1.000000e+000 2.000000e+000
      vertex 1.500000e+000 -1.000000e+000 2.000000e+000
      vertex 1.500000e+000 -1.000000e+000 0.000000e+000
    endloop
  endfacet
  facet normal 0.000000e+000 1.000000e+000 0.000000e+000
    outer loop
      vertex 1.500000e+000 1.000000e+000 2.000000e+000
      vertex 1.500000e+000 1.000000e+000 0.000000e+000
      vertex -1.500000e+000 1.000000e+000 0.000000e+000
    endloop
  endfacet
  facet normal -1.000000e+000 0.000000e+000 0.000000e+000
    outer loop
      vertex -1.500000e+000 -1.000000e+000 2.000000e+000
      vertex -1.500000e+000 1.000000e+000 0.000000e+000
      vertex -1.500000e+000 -1.000000e+000 0.000000e+000
    endloop
  endfacet
  facet normal -1.000000e+000 0.000000e+000 0.000000e+000
    outer loop
      vertex -1.500000e+000 1.000000e+000 2.000000e+000
      vertex -1.500000e+000 1.000000e+000 0.000000e+000
      vertex -1.500000e+000 -1.000000e+000 2.000000e+000
    endloop
  endfacet
  facet normal 0.000000e+000 1.000000e+000 0.000000e+000
    outer loop
      vertex 1.500000e+000 1.000000e+000 2.000000e+000
      vertex -1.500000e+000 1.000000e+000 0.000000e+000
      vertex -1.500000e+000 1.000000e+000 2.000000e+000
    endloop
  endfacet
  facet normal 0.000000e+000 0.000000e+000 1.000000e+000
    outer loop
      vertex -2.500000e-001 -6.123032e-017 2.000000e+000
      vertex 2.995317e-001 -2.169514e-001 2.000000e+000
      vertex 2.500000e-001 6.123032e-017 2.000000e+000
    endloop
  endfacet
  facet normal 0.000000e+000 0.000000e+000 1.000000e+000
    outer loop
      vertex -1.500000e+000 1.000000e+000 2.000000e+000
      vertex 2.500000e-001 6.123032e-017 2.000000e+000
      vertex 2.995317e-001 2.169514e-001 2.000000e+000
    endloop
  endfacet
  facet normal 0.000000e+000 0.000000e+000 1.000000e+000
    outer loop
      vertex -2.995317e-001 2.169514e-001 2.000000e+000
      vertex -2.500000e-001 -6.123032e-017 2.000000e+000
      vertex 2.500000e-001 6.123032e-017 2.000000e+000
    endloop
  endfacet
  facet normal 0.000000e+000 0.000000e+000 1.000000e+000
    outer loop
      vertex -4.382264e-001 3.908895e-001 2.000000e+000
      vertex -2.995317e-001 2.169514e-001 2.000000e+000
      vertex 2.500000e-001 6.123032e-017 2.000000e+000
    endloop
  endfacet
  facet normal 0.000000e+000 0.000000e+000 1.000000e+000
    outer loop
      vertex -1.500000e+000 1.000000e+000 2.000000e+000
      vertex -4.382264e-001 3.908895e-001 2.000000e+000
      vertex 2.500000e-001 6.123032e-017 2.000000e+000
    endloop
  endfacet
  facet normal 0.000000e+000 0.000000e+000 1.000000e+000
    outer loop
      vertex -2.500000e-001 -6.123032e-017 2.000000e+000
      vertex 4.382264e-001 -3.908895e-001 2.000000e+000
      vertex 2.995317e-001 -2.169514e-001 2.000000e+000
    endloop
  endfacet
  facet normal 0.000000e+000 0.000000e+000 1.000000e+000
    outer loop
      vertex 1.500000e+000 -1.000000e+000 2.000000e+000
      vertex 6.387790e-001 -4.874656e-001 2.000000e+000
      vertex 4.382264e-001 -3.908895e-001 2.000000e+000
    endloop
  endfacet
  facet normal 0.000000e+000 0.000000e+000 1.000000e+000
    outer loop
      vertex 1.500000e+000 -1.000000e+000 2.000000e+000
      vertex 4.382264e-001 -3.908895e-001 2.000000e+000
      vertex -2.500000e-001 -6.123032e-017 2.000000e+000
    endloop
  endfacet
  facet normal 0.000000e+000 0.000000e+000 1.000000e+000
    outer loop
      vertex 1.500000e+000 -1.000000e+000 2.000000e+000
      vertex 8.612210e-001 -4.874656e-001 2.000000e+000
      vertex 6.387790e-001 -4.874656e-001 2.000000e+000
    endloop
  endfacet
  facet normal 0.000000e+000 0.000000e+000 1.000000e+000
    outer loop
      vertex 1.500000e+000 -1.000000e+000 2.000000e+000
      vertex 1.061774e+000 -3.908895e-001 2.000000e+000
      vertex 8.612210e-001 -4.874656e-001 2.000000e+000
    endloop
  endfacet
  facet normal 0.000000e+000 0.000000e+000 1.000000e+000
    outer loop
      vertex 1.500000e+000 -1.000000e+000 2.000000e+000
      vertex 1.200468e+000 -2.169514e-001 2.000000e+000
      vertex 1.061774e+000 -3.908895e-001 2.000000e+000
    endloop
  endfacet
  facet normal 0.000000e+000 0.000000e+000 1.000000e+000
    outer loop
      vertex 1.500000e+000 -1.000000e+000 2.000000e+000
      vertex 1.250000e+000 -6.123032e-017 2.000000e+000
      vertex 1.200468e+000 -2.169514e-001 2.000000e+000
    endloop
  endfacet
  facet normal 0.000000e+000 0.000000e+000 1.000000e+000
    outer loop
      vertex 1.500000e+000 -1.000000e+000 2.000000e+000
      vertex 1.200468e+000 2.169514e-001 2.000000e+000
      vertex 1.250000e+000 -6.123032e-017 2.000000e+000
    endloop
  endfacet
  facet normal 0.000000e+000 0.000000e+000 1.000000e+000
    outer loop
      vertex 1.500000e+000 1.000000e+000 2.000000e+000
      vertex 1.061774e+000 3.908895e-001 2.000000e+000
      vertex 1.200468e+000 2.169514e-001 2.000000e+000
    endloop
  endfacet
  facet normal 0.000000e+000 0.000000e+000 1.000000e+000
    outer loop
      vertex 1.500000e+000 1.000000e+000 2.000000e+000
      vertex 1.200468e+000 2.169514e-001 2.000000e+000
      vertex 1.500000e+000 -1.000000e+000 2.000000e+000
    endloop
  endfacet
  facet normal 0.000000e+000 0.000000e+000 1.000000e+000
    outer loop
      vertex 1.500000e+000 1.000000e+000 2.000000e+000
      vertex 8.612210e-001 4.874656e-001 2.000000e+000
      vertex 1.061774e+000 3.908895e-001 2.000000e+000
    endloop
  endfacet
  facet normal 0.000000e+000 0.000000e+000 1.000000e+000
    outer loop
      vertex -1.500000e+000 1.000000e+000 2.000000e+000
      vertex 6.387790e-001 4.874656e-001 2.000000e+000
      vertex 8.612210e-001 4.874656e-001 2.000000e+000
    endloop
  endfacet
  facet normal 0.000000e+000 0.000000e+000 1.000000e+000
    outer loop
      vertex 1.500000e+000 1.000000e+000 2.000000e+000
      vertex -1.500000e+000 1.000000e+000 2.000000e+000
      vertex 8.612210e-001 4.874656e-001 2.000000e+000
    endloop
  endfacet
  facet normal 0.000000e+000 0.000000e+000 1.000000e+000
    outer loop
      vertex -1.500000e+000 1.000000e+000 2.000000e+000
      vertex 4.382264e-001 3.908895e-001 2.000000e+000
      vertex 6.387790e-001 4.874656e-001 2.000000e+000
    endloop
  endfacet
  facet normal 0.000000e+000 0.000000e+000 1.000000e+000
    outer loop
      vertex -1.500000e+000 1.000000e+000 2.000000e+000
      vertex 2.995317e-001 2.169514e-001 2.000000e+000
      vertex 4.382264e-001 3.908895e-001 2.000000e+000
    endloop
  endfacet
  facet normal 0.000000e+000 0.000000e+000 1.000000e+000
    outer loop
      vertex -1.500000e+000 1.000000e+000 2.000000e+000
      vertex -1.200468e+000 -2.169514e-001 2.000000e+000
      vertex -1.250000e+000 6.123032e-017 2.000000e+000
    endloop
  endfacet
  facet normal 0.000000e+000 0.000000e+000 1.000000e+000
    outer loop
      vertex -1.500000e+000 1.000000e+000 2.000000e+000
      vertex -1.250000e+000 6.123032e-017 2.000000e+000
      vertex -1.200468e+000 2.169514e-001 2.000000e+000
    endloop
  endfacet
  facet normal 0.000000e+000 0.000000e+000 1.000000e+000
    outer loop
      vertex -1.500000e+000 -1.000000e+000 2.000000e+000
      vertex -1.061774e+000 -3.908895e-001 2.000000e+000
      vertex -1.200468e+000 -2.169514e-001 2.000000e+000
    endloop
  endfacet
  facet normal 0.000000e+000 0.000000e+000 1.000000e+000
    outer loop
      vertex -1.500000e+000 1.000000e+000 2.000000e+000
      vertex -1.500000e+000 -1.000000e+000 2.000000e+000
      vertex -1.200468e+000 -2.169514e-001 2.000000e+000
    endloop
  endfacet
  facet normal 0.000000e+000 0.000000e+000 1.000000e+000
    outer loop
      vertex -1.500000e+000 -1.000000e+000 2.000000e+000
      vertex -8.612210e-001 -4.874656e-001 2.000000e+000
      vertex -1.061774e+000 -3.908895e-001 2.000000e+000
    endloop
  endfacet
  facet normal 0.000000e+000 0.000000e+000 1.000000e+000
    outer loop
      vertex 1.500000e+000 -1.000000e+000 2.000000e+000
      vertex -6.387790e-001 -4.874656e-001 2.000000e+000
      vertex -8.612210e-001 -4.874656e-001 2.000000e+000
    endloop
  endfacet
  facet normal 0.000000e+000 0.000000e+000 1.000000e+000
    outer loop
      vertex -1.500000e+000 -1.000000e+000 2.000000e+000
      vertex 1.500000e+000 -1.000000e+000 2.000000e+000
      vertex -8.612210e-001 -4.874656e-001 2.000000e+000
    endloop
  endfacet
  facet normal 0.000000e+000 0.000000e+000 1.000000e+000
    outer loop
      vertex 1.500000e+000 -1.000000e+000 2.000000e+000
      vertex -4.382264e-001 -3.908895e-001 2.000000e+000
      vertex -6.387790e-001 -4.874656e-001 2.000000e+000
    endloop
  endfacet
  facet normal 0.000000e+000 0.000000e+000 1.000000e+000
    outer loop
      vertex 1.500000e+000 -1.000000e+000 2.000000e+000
      vertex -2.995317e-001 -2.169514e-001 2.000000e+000
      vertex -4.382264e-001 -3.908895e-001 2.000000e+000
    endloop
  endfacet
  facet normal 0.000000e+000 0.000000e+000 1.000000e+000
    outer loop
      vertex 1.500000e+000 -1.000000e+000 2.000000e+000
      vertex -2.500000e-001 -6.123032e-017 2.000000e+000
      vertex -2.995317e-001 -2.169514e-001 2.000000e+000
    endloop
  endfacet
  facet normal 0.000000e+000 0.000000e+000 1.000000e+000
    outer loop
      vertex -1.500000e+000 1.000000e+000 2.000000e+000
      vertex -6.387790e-001 4.874656e-001 2.000000e+000
      vertex -4.382264e-001 3.908895e-001 2.000000e+000
    endloop
  endfacet
  facet normal 0.000000e+000 0.000000e+000 1.000000e+000
    outer loop
      vertex -1.500000e+000 1.000000e+000 2.000000e+000
      vertex -8.612210e-001 4.874656e-001 2.000000e+000
      vertex -6.387790e-001 4.874656e-001 2.000000e+000
    endloop
  endfacet
  facet normal 0.000000e+000 0.000000e+000 1.000000e+000
    outer loop
      vertex -1.500000e+000 1.000000e+000 2.000000e+000
      vertex -1.061774e+000 3.908895e-001 2.000000e+000
      vertex -8.612210e-001 4.874656e-001 2.000000e+000
    endloop
  endfacet
  facet normal 0.000000e+000 0.000000e+000 1.000000e+000
    outer loop
      vertex -1.500000e+000 1.000000e+000 2.000000e+000
      vertex -1.200468e+000 2.169514e-001 2.000000e+000
      vertex -1.061774e+000 3.908895e-001 2.000000e+000
    endloop
  endfacet
endsolid TWOHOLE
